<svg width="59" height="59" viewBox="0 0 59 59" fill="none" xmlns="http://www.w3.org/2000/svg">
<g fill="currentColor">
<path d="M22.3906 58.9531H24.4219V38.73L22.3906 39.6004V58.9531Z"/>
<path d="M32.5469 41.6875H39.6562V46.7656H32.5469V41.6875Z"/>
<path d="M23.4062 32.2005L18.3281 30.024V39.1322L23.4062 36.9557V32.2005Z"/>
<path d="M32.5469 48.7969H39.6562V53.875H32.5469V48.7969Z"/>
<path d="M1.0625 56.9219C1.0625 57.4606 1.27651 57.9773 1.65744 58.3582C2.03837 58.7391 2.55503 58.9531 3.09375 58.9531H9.1875C9.72622 58.9531 10.2429 58.7391 10.6238 58.3582C11.0047 57.9773 11.2188 57.4606 11.2188 56.9219V54.8906H1.0625V56.9219Z"/>
<path d="M41.6875 48.7969H48.7969V53.875H41.6875V48.7969Z"/>
<path d="M10.4885 41.6875H5.125C4.86917 41.6866 4.61356 41.6724 4.35922 41.6448L1.36719 52.8594H9.87C9.416 52.1538 9.10694 51.365 8.96082 50.5389C8.8147 49.7127 8.83445 48.8658 9.01891 48.0473L10.4885 41.6875Z"/>
<path d="M11.8708 44.7344H12.2344C12.8456 44.7355 13.4373 44.519 13.9036 44.1238C14.3699 43.7286 14.6804 43.1804 14.7795 42.5772L14.9278 41.6875H12.5736L11.8708 44.7344Z"/>
<path d="M14.2656 34.5781H12.2344V29.5H10.2031V34.5781H8.17186V29.5H6.14061V34.5781H4.10936V29.6016C2.87522 29.8522 1.77822 30.5524 1.03132 31.5663C0.284421 32.5802 -0.0590916 33.8355 0.0674691 35.0885C0.19403 36.3414 0.781635 37.5027 1.71621 38.3467C2.65079 39.1908 3.86566 39.6575 5.12499 39.6562H16.2969V29.5H14.2656V34.5781Z"/>
<path d="M26.4531 30.5156H27.4688C28.3668 30.519 29.2384 30.8198 29.9473 31.3711C30.6562 31.9224 31.1625 32.693 31.387 33.5625H37.625V35.5938H31.387C31.1625 36.4633 30.6562 37.2339 29.9473 37.7852C29.2384 38.3364 28.3668 38.6373 27.4688 38.6406H26.4531V58.9531H54.8906V4.10938H26.4531V30.5156ZM50.8281 54.8906C50.8281 55.16 50.7211 55.4183 50.5307 55.6088C50.3402 55.7992 50.0819 55.9062 49.8125 55.9062H31.5312C31.2619 55.9062 31.0036 55.7992 30.8131 55.6088C30.6226 55.4183 30.5156 55.16 30.5156 54.8906V40.6719C30.5156 40.4025 30.6226 40.1442 30.8131 39.9537C31.0036 39.7633 31.2619 39.6562 31.5312 39.6562H49.8125C50.0819 39.6562 50.3402 39.7633 50.5307 39.9537C50.7211 40.1442 50.8281 40.4025 50.8281 40.6719V54.8906ZM30.5156 18.3281C30.5156 15.6345 31.5857 13.0512 33.4903 11.1466C35.395 9.24191 37.9783 8.17188 40.6719 8.17188C43.3655 8.17188 45.9488 9.24191 47.8534 11.1466C49.7581 13.0512 50.8281 15.6345 50.8281 18.3281V27.4688C50.8281 27.7381 50.7211 27.9964 50.5307 28.1869C50.3402 28.3774 50.0819 28.4844 49.8125 28.4844H31.5312C31.2619 28.4844 31.0036 28.3774 30.8131 28.1869C30.6226 27.9964 30.5156 27.7381 30.5156 27.4688V18.3281Z"/>
<path d="M39.6562 10.2732C37.8689 10.5011 36.2078 11.316 34.9338 12.59C33.6597 13.8641 32.8448 15.5252 32.6169 17.3125H39.6562V10.2732Z"/>
<path d="M29.5 34.5781C29.5 34.0394 29.286 33.5227 28.9051 33.1418C28.5241 32.7609 28.0075 32.5469 27.4688 32.5469H25.4375V36.6094H27.4688C28.0075 36.6094 28.5241 36.3954 28.9051 36.0144C29.286 35.6335 29.5 35.1168 29.5 34.5781Z"/>
<path d="M41.6875 41.6875H48.7969V46.7656H41.6875V41.6875Z"/>
<path d="M32.5469 19.3438H39.6562V26.4531H32.5469V19.3438Z"/>
<path d="M41.6875 19.3438H48.7969V26.4531H41.6875V19.3438Z"/>
<path d="M22.3906 0.046875V29.5559L24.4219 30.4262V3.09375C24.4219 2.82439 24.5289 2.56606 24.7193 2.37559C24.9098 2.18513 25.1681 2.07812 25.4375 2.07812H55.9062C56.1756 2.07812 56.4339 2.18513 56.6244 2.37559C56.8149 2.56606 56.9219 2.82439 56.9219 3.09375V58.9531H58.9531V0.046875H22.3906Z"/>
<path d="M41.6875 10.2732V17.3125H48.7268C48.4989 15.5252 47.684 13.8641 46.41 12.59C45.1359 11.316 43.4748 10.5011 41.6875 10.2732Z"/>
</g>
</svg>
