<svg width="59" height="65" viewBox="0 0 59 65" fill="none" xmlns="http://www.w3.org/2000/svg">
<g fill="currentColor">
<path d="M57.4846 15.9966L30.0689 0.236969C29.8 0.0817284 29.495 0 29.1845 0C28.874 0 28.569 0.0817284 28.3001 0.236969L0.884378 15.9966C0.61576 16.1517 0.392646 16.3747 0.237421 16.6432C0.0821964 16.9118 0.000318148 17.2164 0 17.5266V63.2312C0 63.7003 0.186351 64.1502 0.518057 64.4819C0.849763 64.8137 1.29965 65 1.76876 65H18.5719V39.353C18.5719 38.8839 18.7583 38.434 19.09 38.1023C19.4217 37.7706 19.8716 37.5843 20.3407 37.5843H38.0283C38.4974 37.5843 38.9473 37.7706 39.279 38.1023C39.6107 38.434 39.797 38.8839 39.797 39.353V65H56.6002C57.0693 65 57.5192 64.8137 57.8509 64.4819C58.1826 64.1502 58.369 63.7003 58.369 63.2312V17.5266C58.3687 17.2164 58.2868 16.9118 58.1316 16.6432C57.9763 16.3747 57.7532 16.1517 57.4846 15.9966Z"/>
<path d="M22.1094 41.1218H36.2594V65H22.1094V41.1218Z"/>
</g>
</svg>
