<svg width="31" height="30" viewBox="0 0 31 30" fill="none" xmlns="http://www.w3.org/2000/svg">
<circle cx="15.5" cy="15" r="15" fill="currentColor"/>
<path d="M30.1386 9.366C29.9071 9.13165 29.5932 9 29.2658 9C28.9385 9 28.6246 9.13165 28.3931 9.366L16.9217 20.9827L11.6223 15.6162C11.5084 15.4968 11.3722 15.4016 11.2216 15.3361C11.071 15.2706 10.909 15.2361 10.7451 15.2346C10.5812 15.2332 10.4187 15.2648 10.267 15.3277C10.1153 15.3905 9.97745 15.4834 9.86155 15.6007C9.74565 15.7181 9.65399 15.8577 9.59192 16.0113C9.52985 16.1649 9.49862 16.3295 9.50005 16.4955C9.50147 16.6615 9.53552 16.8255 9.60022 16.978C9.66491 17.1305 9.75895 17.2685 9.87685 17.3838L16.0489 23.634C16.2804 23.8684 16.5943 24 16.9217 24C17.249 24 17.5629 23.8684 17.7944 23.634L30.1386 11.1336C30.37 10.8991 30.5 10.5812 30.5 10.2498C30.5 9.91831 30.37 9.60041 30.1386 9.366Z" fill="white"/>
</svg>
