<svg width="65" height="65" viewBox="0 0 65 65" fill="none" xmlns="http://www.w3.org/2000/svg">
<g fill="currentColor">
<path d="M54.0907 14.2017C54.0907 14.8443 54.5419 12.968 48.0573 37.164C47.6979 35.7703 47.8057 38.7851 47.8057 12.3211C49.6671 9.48656 54.0907 10.8243 54.0907 14.2017Z"/>
<path d="M45.709 3.98387V32.5026C38.0793 19.2901 41.4435 25.1131 37.7412 18.7006V3.98387C37.7412 1.7875 39.5287 0 41.7251 0C43.9557 0 45.709 1.80794 45.709 3.98387Z"/>
<path d="M41.1026 28.7166L38.0098 25.6252C35.3172 22.9314 31.7758 21.3871 27.5548 21.3871L20.4886 9.60323C19.3985 7.70893 20.0363 5.27248 21.9498 4.16734C23.8745 3.0575 26.3031 3.74104 27.3923 5.62591C38.1721 23.5409 32.6554 14.0851 41.1026 28.7166Z"/>
<path d="M46.8097 43.8475C46.8097 50.3921 44.2074 56.7005 39.5588 61.3529C37.2904 63.6188 34.2776 64.9135 31.0747 64.9961C30.5644 64.9961 33.0389 65 25.5104 65C17.4562 65 10.9025 58.4476 10.9025 50.3921V30.263C10.9025 29.6078 11.4358 29.0757 12.0911 29.0757C12.1938 29.0757 12.2782 29.0698 12.4043 29.0351C12.7307 29.1647 15.6783 29.1198 17.6724 32.006C18.9604 33.7268 18.8702 35.7313 18.8702 36.9727C18.8702 41.4585 20.8071 45.7241 24.1816 48.6793C27.836 51.878 33.5529 49.2549 33.5529 44.4267C33.5516 39.0659 33.7576 37.8304 32.8242 35.712C31.9891 33.825 30.9382 33.0103 29.5297 31.7255C29.0503 31.3415 29.6417 31.4516 19.7954 31.4516C18.4976 29.1443 16.0628 27.3956 13.1617 27.0445C13.2797 25.9163 13.8855 24.8392 14.9217 24.147C16.6453 23.3062 14.7211 23.4839 27.7802 23.4839C31.0839 23.4839 34.1911 24.7708 36.5277 27.1074L45.1546 35.7343L45.8072 36.8652C46.4187 39.1115 46.8097 41.1788 46.8097 43.8475Z"/>
</g>
</svg>
