<svg width="63" height="51" viewBox="0 0 63 51" fill="none" xmlns="http://www.w3.org/2000/svg">
<path d="M51.8125 50.6062C48.2964 50.6062 45.3917 47.9331 45.0261 44.5125H20.0051C19.6395 47.9331 16.7348 50.6062 13.2187 50.6062C9.70264 50.6062 6.79796 47.9331 6.43233 44.5125H5.09374C2.45108 44.5125 0.299988 42.3614 0.299988 39.7187V25.5C0.299988 25.3619 0.338582 25.2339 0.403582 25.1242L8.6078 10.9156C8.7378 10.6901 8.97952 10.55 9.24155 10.55H24.677V1.12499C24.677 0.720769 25.0041 0.393738 25.4083 0.393738H61.9708C62.375 0.393738 62.702 0.720769 62.702 1.12499V43.7812C62.702 44.1855 62.375 44.5125 61.9708 44.5125H58.6009C58.2333 47.9331 55.3286 50.6062 51.8125 50.6062ZM51.8125 38.4187C48.855 38.4187 46.45 40.8237 46.45 43.7812C46.45 46.7387 48.855 49.1437 51.8125 49.1437C54.77 49.1437 57.175 46.7387 57.175 43.7812C57.175 40.8237 54.77 38.4187 51.8125 38.4187ZM13.2187 38.4187C10.2612 38.4187 7.85624 40.8237 7.85624 43.7812C7.85624 46.7387 10.2612 49.1437 13.2187 49.1437C16.1762 49.1437 18.5812 46.7387 18.5812 43.7812C18.5812 40.8237 16.1762 38.4187 13.2187 38.4187ZM58.5989 43.05H61.2375V1.85624H26.1375V43.05H45.0261C45.3917 39.6294 48.2944 36.9562 51.8125 36.9562C55.3306 36.9562 58.2333 39.6294 58.5989 43.05ZM20.0051 43.05H24.675V26.2312H1.76249V39.7187C1.76249 41.555 3.25749 43.05 5.09374 43.05H6.43233C6.79796 39.6294 9.70264 36.9562 13.2187 36.9562C16.7348 36.9562 19.6395 39.6294 20.0051 43.05ZM20.0437 24.7687H24.675V12.0125H20.0437V24.7687ZM2.29874 24.7687H18.5812V12.0125H9.66405L2.29874 24.7687ZM21.3437 30.2937H17.2812V28.8312H21.3437V30.2937ZM57.9062 26.2312H41.6562V24.7687H57.9062V26.2312ZM57.9062 20.1375H37.5937V18.675H57.9062V20.1375ZM57.9062 14.0437H33.5312V12.5812H57.9062V14.0437ZM57.9062 7.94999H29.4687V6.48749H57.9062V7.94999Z" fill="currentColor"/>
</svg>
