<svg width="66" height="65" viewBox="0 0 66 65" fill="none" xmlns="http://www.w3.org/2000/svg">
<g fill="currentColor">
<path d="M22.8302 8.85625L30.4542 10.3323C30.6708 10.3729 30.8198 10.3052 30.8875 10.2646C30.9552 10.224 31.0771 10.1156 31.0771 9.95312V8.125C31.0771 7.38021 31.8625 6.77083 32.8375 6.77083C33.0948 6.77083 37.0083 6.79792 40.4479 8.50417C38.8229 3.04687 34.3271 0 27.5833 0C20.0812 0 15.3552 3.76458 14.2854 10.4406L14.8406 10.1156C17.1427 8.775 20.0542 8.32812 22.8302 8.85625Z"/>
<path d="M41.1251 13.5417C41.1251 23.2511 35.0449 31.1459 27.5834 31.1459C20.2303 31.1459 14.2178 23.4813 14.0417 13.9615L16.9397 12.2823C18.3886 11.4292 20.2303 11.1448 21.9772 11.4834L29.6011 12.9594C30.8063 13.1896 32.0657 12.9865 33.0407 12.4042C34.0157 11.8084 34.5845 10.9146 34.5845 9.95314V9.62814C36.5345 9.89898 39.5949 10.6709 41.1115 12.9188C41.1251 13.1219 41.1251 13.3386 41.1251 13.5417Z"/>
<path d="M19.4583 59.5833C19.4583 60.125 19.7833 60.6125 20.2843 60.8292L28.9374 64.5396V54.6271L20.2843 58.3375C19.7833 58.5542 19.4583 59.0417 19.4583 59.5833Z"/>
<path d="M31.6458 54.1667H56.0208V65H31.6458V54.1667Z"/>
<path d="M60.0834 54.1667H58.7292V65H60.0834C63.0761 65 65.5001 62.5761 65.5001 59.5834C65.5001 56.6042 63.0761 54.1667 60.0834 54.1667Z"/>
<path d="M54.6667 48.75V51.4584H30.2917C29.75 51.4584 29.2354 51.5667 28.6937 51.7834L19.201 55.8459C17.7115 56.4959 16.75 57.9584 16.75 59.5834C16.75 61.2084 17.7115 62.6708 19.2146 63.3209L23.1552 65H1.85417C1.10937 65 0.5 64.3906 0.5 63.6459V48.7771C0.5 40.6115 6.41771 33.7729 14.2719 32.8792L18.3073 32.6219C18.7271 32.5948 19.1333 32.5 19.4719 32.3511C19.5125 32.3375 19.5531 32.324 19.5938 32.3104C19.9052 32.175 20.176 31.999 20.4333 31.7959C22.5865 33.1094 25.0104 33.8542 27.5833 33.8542C30.1427 33.8542 32.5531 33.0959 34.7062 31.7688C34.9906 31.999 35.3021 32.1886 35.6542 32.324C36.0469 32.5 36.4396 32.5813 36.8865 32.6219L40.8542 32.8386C44.4698 33.2719 47.774 34.9375 50.2385 37.5511L52.0125 39.7854C52.0396 39.8261 52.0667 39.8667 52.0937 39.8938C53.7729 42.5209 54.6667 45.5948 54.6667 48.75Z"/>
</g>
</svg>
