<svg width="65" height="65" viewBox="0 0 65 65" fill="none" xmlns="http://www.w3.org/2000/svg">
<g fill="currentColor">
<path d="M41.9867 20.3953C42.2119 20.7023 42.5675 20.8867 42.9483 20.8927C43.3941 20.8922 43.7998 20.6363 43.9927 20.2341C44.1856 19.8324 44.1311 19.3554 43.8529 19.0072C43.6485 18.7523 38.6701 12.7677 22.0536 12.7677C5.43718 12.7677 0.458738 18.7523 0.254423 19.0067C-0.135859 19.4977 -0.0560171 20.2118 0.432454 20.6051C0.928365 21.0048 1.6519 20.9393 2.06747 20.4568C2.25542 20.2401 6.8778 15.0891 22.0536 15.0891C36.676 15.0891 41.4864 19.8523 41.9867 20.3953Z"/>
<path d="M40.4905 25.5359H41.7858C42.4265 25.5349 42.9457 25.0157 42.9462 24.375C42.9492 24.072 42.8282 23.7809 42.612 23.5691C42.3973 23.342 42.0982 23.2136 41.7858 23.2141H40.6164C40.6184 23.3276 40.6249 23.4327 40.6249 23.5508C40.6239 24.1429 40.5902 24.734 40.5252 25.3227C40.5168 25.3951 40.4994 25.4635 40.4905 25.5359Z"/>
<path d="M9.52754 7.05284C7.57415 8.77712 6.01601 10.9031 4.95972 13.2849C8.63441 11.7729 14.1142 10.4464 22.0537 10.4464C29.9928 10.4464 35.4726 11.7724 39.1473 13.2845C38.0915 10.9026 36.5333 8.77712 34.5799 7.05284C33.9799 8.61893 32.3473 9.53339 30.6984 9.22691C29.0495 8.92044 27.8544 7.48081 27.8574 5.80365V3.48229C27.8574 3.39551 27.8767 3.31467 27.8827 3.22938C27.114 2.9839 26.33 2.78802 25.536 2.64371V3.48229C25.536 5.40543 23.9769 6.96408 22.0537 6.96408C20.1306 6.96408 18.5715 5.40543 18.5715 3.48229V2.64371C17.7775 2.78802 16.9935 2.9839 16.2248 3.22938C16.2308 3.31467 16.2501 3.39551 16.2501 3.48229V5.80365C16.2531 7.48081 15.0579 8.92044 13.409 9.22691C11.7601 9.53339 10.1276 8.61893 9.52754 7.05284Z"/>
<path d="M11.6072 3.48228V5.80363C11.6072 6.44484 12.1269 6.96406 12.7676 6.96406C13.4088 6.96406 13.9285 6.44484 13.9285 5.80363V3.48228C13.9285 2.84106 13.4088 2.32135 12.7676 2.32135C12.1269 2.32135 11.6072 2.84106 11.6072 3.48228Z"/>
<path d="M30.1787 3.48228V5.80363C30.1787 6.44484 30.6984 6.96406 31.3396 6.96406C31.9804 6.96406 32.5001 6.44484 32.5001 5.80363V3.48228C32.5001 2.84106 31.9804 2.32135 31.3396 2.32135C30.6984 2.32135 30.1787 2.84106 30.1787 3.48228Z"/>
<path d="M13.3484 30.1786C14.6735 30.2828 15.9981 29.9728 17.1392 29.2914C18.6229 28.4171 20.3348 28.0075 22.0537 28.1151C23.7725 28.0075 25.4844 28.4171 26.9681 29.2914C28.1092 29.9728 29.4338 30.2828 30.7589 30.1786C32.6761 30.2793 34.5511 29.591 35.9476 28.2733C37.3242 26.7117 38.1415 24.736 38.2704 22.6581C38.259 22.499 38.2486 22.3398 38.2307 22.19C38.1945 21.7645 38.1286 21.3777 38.0641 20.9909C38.0264 20.802 37.9689 20.5932 37.9188 20.3903C35.3669 19.0846 30.4688 17.4109 22.0537 17.4109C13.6505 17.4109 8.75781 19.0792 6.188 20.4037C6.13692 20.6105 6.0789 20.8148 6.03725 21.0271C5.97922 21.3772 5.91376 21.7645 5.88153 22.1508C5.8612 22.3199 5.84979 22.4895 5.83789 22.6591C5.96683 24.7365 6.78359 26.7117 8.15974 28.2733C9.55622 29.591 11.4313 30.2793 13.3484 30.1786Z"/>
<path d="M20.8926 1.16093V3.48228C20.8926 4.123 21.4123 4.64271 22.0535 4.64271C22.6947 4.64271 23.2144 4.123 23.2144 3.48228V1.16093C23.2144 0.519714 22.6947 0 22.0535 0C21.4123 0 20.8926 0.519714 20.8926 1.16093Z"/>
<path d="M35.9822 47.3078V61.9069C36.1086 61.7165 36.2534 61.539 36.4146 61.3773L43.2135 54.5784C41.9157 51.2568 39.2968 48.6235 35.9822 47.3078Z"/>
<path d="M15.0896 46.4286V54.5536C15.0901 55.1943 15.6093 55.7135 16.25 55.714H27.8573C28.498 55.7135 29.0172 55.1943 29.0177 54.5536V46.4286H26.6964V48.75C26.6964 49.3912 26.1767 49.9109 25.5359 49.9109C24.8947 49.9109 24.375 49.3912 24.375 48.75V40.4747C23.6049 40.5699 22.8298 40.62 22.0537 40.625C21.2776 40.62 20.5025 40.5709 19.7323 40.4777V48.75C19.7323 49.3912 19.2126 49.9109 18.5714 49.9109C17.9307 49.9109 17.411 49.3912 17.411 48.75V46.4286H15.0896Z"/>
<path d="M2.33323 23.214C2.02626 23.2091 1.7307 23.3301 1.51597 23.5488C1.28834 23.763 1.1599 24.0625 1.16089 24.375C1.16139 25.0157 1.68061 25.5349 2.32132 25.5359H3.61664C3.60772 25.466 3.59036 25.399 3.58242 25.3296C3.51696 24.739 3.48324 24.1449 3.48225 23.5508C3.48225 23.4332 3.4887 23.3276 3.49068 23.214H2.33323Z"/>
<path d="M38.0556 63.0188C37.6028 63.472 37.6028 64.207 38.0561 64.6602C38.5093 65.1135 39.2448 65.1135 39.6975 64.6597L53.7244 50.6334C54.1255 50.2307 54.7598 50.1787 55.2215 50.5104C57.5225 52.1633 60.6835 51.8995 62.6785 49.8876L64.32 48.2456C64.7554 47.8102 64.9999 47.2196 64.9999 46.6041C64.9999 45.9882 64.7554 45.3976 64.32 44.9622L61.8578 47.4244C61.6401 47.6421 61.345 47.7646 61.037 47.7646H57.7541C57.4462 47.7641 57.1511 47.6421 56.9334 47.4244L55.2919 45.7824C55.0742 45.5647 54.9517 45.2696 54.9517 44.9617V41.6793C54.9522 41.3713 55.0742 41.0762 55.2919 40.8585L57.7541 38.3963C56.8466 37.4918 55.3782 37.4918 54.4707 38.3963L52.8292 40.0378C50.8173 42.0328 50.553 45.1943 52.2054 47.4963C52.5366 47.958 52.4841 48.5913 52.0824 48.9924L38.0556 63.0188Z"/>
<path d="M22.0535 38.3036C27.5879 38.3795 32.7999 35.708 35.9702 31.1709C34.3888 32.0849 32.5852 32.5451 30.7587 32.5C29.0399 32.6076 27.3285 32.1975 25.8443 31.3232C24.7032 30.6418 23.3786 30.3319 22.0535 30.4365C20.7284 30.3319 19.4039 30.6418 18.2623 31.3232C16.7785 32.1975 15.0671 32.6076 13.3483 32.5C11.5199 32.5451 9.71478 32.0844 8.13184 31.1685C11.2898 35.7224 16.5127 38.3988 22.0535 38.3036Z"/>
<path d="M1.16093 64.9999H8.12499V47.3108C3.2249 49.2181 -0.00198273 53.9382 9.14025e-07 59.1963V63.839C0.000992734 64.4797 0.520211 64.9989 1.16093 64.9999Z"/>
<path d="M10.4463 46.6651V64.9999H33.6608V46.6656C32.8956 46.5154 32.1186 46.436 31.3395 46.4286V54.5536C31.337 56.4757 29.7793 58.0334 27.8572 58.0359H16.2499C14.3278 58.0334 12.7701 56.4757 12.7676 54.5536V46.4286C11.9886 46.436 11.2115 46.5154 10.4463 46.6651Z"/>
</g>
</svg>
