<svg width="65" height="65" viewBox="0 0 65 65" fill="none" xmlns="http://www.w3.org/2000/svg">
<path d="M62.3534 32.5001C64.0821 30.6018 64.8014 27.9703 64.1849 25.268C63.5683 22.5671 61.7784 20.5064 59.3969 19.5468C60.1314 17.0861 59.6358 14.4032 57.9082 12.237C56.182 10.0721 53.67 8.9945 51.1136 9.15967C50.7067 6.62543 49.0972 4.42165 46.6018 3.21902C44.1078 2.01919 41.3804 2.1304 39.1434 3.39536C37.6784 1.2887 35.2717 0.00139648 32.5013 0C29.7296 0 27.3217 1.2873 25.8566 3.39523C23.6196 2.13027 20.8922 2.01906 18.3981 3.2189C15.9027 4.42152 14.2933 6.6253 13.8863 9.15954C11.3298 8.99146 8.81913 10.0704 7.09168 12.2369C5.36422 14.4032 4.86834 17.0874 5.60302 19.5467C3.22151 20.5078 1.43147 22.5671 0.814986 25.2679C0.198501 27.9687 0.917818 30.6017 2.64667 32.4999C0.917818 34.3983 0.198501 37.0298 0.814986 39.7321C1.4316 42.4331 3.22151 44.4938 5.60302 45.4533C4.86847 47.914 5.3641 50.5969 7.09168 52.7631C8.81786 54.928 11.3311 56.0014 13.8863 55.8405C14.2932 58.3747 15.9027 60.5785 18.3981 61.7811C20.8935 62.9822 23.621 62.8697 25.8566 61.6048C27.3218 63.7127 29.7296 65 32.5015 65C35.2717 64.9986 37.6784 63.7113 39.1434 61.6048C41.3792 62.8685 44.1064 62.9809 46.6019 61.7811C49.0973 60.5785 50.7067 58.3747 51.1137 55.8405C53.6675 55.9988 56.1809 54.9282 57.9083 52.7631C59.6358 50.5969 60.1317 47.9126 59.397 45.4533C61.7785 44.4922 63.5686 42.4329 64.185 39.7321C64.8016 37.0312 64.0822 34.3983 62.3534 32.5001ZM15.4363 22.5462C15.4363 18.6262 18.6261 15.4364 22.5462 15.4364C26.4662 15.4364 29.6561 18.6262 29.6561 22.5462C29.6561 26.4663 26.4662 29.6561 22.5462 29.6561C18.626 29.6561 15.4363 26.4663 15.4363 22.5462ZM24.0541 43.962C23.6375 44.3786 23.0917 44.587 22.5462 44.587C22.0005 44.587 21.4546 44.3786 21.0382 43.962C20.205 43.1288 20.205 41.779 21.0382 40.9458L40.946 21.038C41.7792 20.2048 43.129 20.2048 43.9622 21.038C44.7954 21.8712 44.7954 23.2211 43.9622 24.0542L24.0541 43.962ZM42.4538 49.5639C38.5338 49.5639 35.344 46.3741 35.344 42.454C35.344 38.534 38.5338 35.3441 42.4538 35.3441C46.3739 35.3441 49.5637 38.534 49.5637 42.454C49.5637 46.3741 46.374 49.5639 42.4538 49.5639Z" fill="currentColor"/>
</svg>
