<svg width="49" height="65" viewBox="0 0 49 65" fill="none" xmlns="http://www.w3.org/2000/svg">
<path d="M35.2083 0.8125C37.1199 1.46786 38.8592 2.54535 40.2973 3.965L44.7823 8.45542C46.2036 9.89162 47.2822 11.6303 47.9375 13.5417H35.2083V0.8125ZM48.75 18.9583V51.4583C48.7457 55.0485 47.3176 58.4904 44.779 61.029C42.2404 63.5676 38.7985 64.9957 35.2083 65H13.5417C9.95151 64.9957 6.50964 63.5676 3.97101 61.029C1.43239 58.4904 0.00430045 55.0485 0 51.4583V13.5417C0.00430045 9.95151 1.43239 6.50964 3.97101 3.97101C6.50964 1.43239 9.95151 0.00430045 13.5417 0L29.7917 0V13.5417C29.7917 14.9783 30.3624 16.356 31.3782 17.3718C32.394 18.3876 33.7717 18.9583 35.2083 18.9583H48.75ZM37.3967 47.1602C37.1877 46.8711 36.9237 46.6261 36.6198 46.4393C36.3159 46.2525 35.9781 46.1276 35.6258 46.0717C35.2734 46.0159 34.9136 46.0301 34.5668 46.1138C34.22 46.1974 33.8931 46.3487 33.605 46.559C31.7853 47.8257 29.6598 48.5822 27.449 48.75C26.5827 48.7263 25.7532 48.3951 25.109 47.8156C23.6955 46.6941 21.9514 46.0705 20.1473 46.0417C17.1429 46.3241 14.2812 47.4571 11.8977 49.3079C11.6019 49.5188 11.3515 49.787 11.1615 50.0966C10.9715 50.4062 10.8457 50.7509 10.7917 51.1102C10.7376 51.4694 10.7563 51.8358 10.8468 52.1877C10.9373 52.5395 11.0976 52.8695 11.3182 53.1581C11.5388 53.4467 11.8153 53.688 12.1311 53.8676C12.4469 54.0471 12.7955 54.1614 13.1564 54.2034C13.5172 54.2454 13.8828 54.2145 14.2314 54.1123C14.5801 54.0101 14.9046 53.8389 15.1856 53.6087C16.6281 52.479 18.3366 51.7385 20.1473 51.4583C20.8135 51.4583 21.1521 51.6696 22.0431 52.2708C23.5864 53.4898 25.4932 54.1572 27.4598 54.1667C30.8257 54.0128 34.0757 52.8909 36.8198 50.9356C37.3952 50.5102 37.7789 49.8743 37.887 49.1669C37.9951 48.4595 37.8188 47.7381 37.3967 47.1602ZM37.9167 37.9167C37.9167 37.1984 37.6313 36.5095 37.1234 36.0016C36.6155 35.4937 35.9266 35.2083 35.2083 35.2083H13.5417C12.8234 35.2083 12.1345 35.4937 11.6266 36.0016C11.1187 36.5095 10.8333 37.1984 10.8333 37.9167C10.8333 38.635 11.1187 39.3238 11.6266 39.8317C12.1345 40.3397 12.8234 40.625 13.5417 40.625H35.2083C35.9266 40.625 36.6155 40.3397 37.1234 39.8317C37.6313 39.3238 37.9167 38.635 37.9167 37.9167ZM37.9167 27.0833C37.9167 26.365 37.6313 25.6762 37.1234 25.1683C36.6155 24.6603 35.9266 24.375 35.2083 24.375H13.5417C12.8234 24.375 12.1345 24.6603 11.6266 25.1683C11.1187 25.6762 10.8333 26.365 10.8333 27.0833C10.8333 27.8016 11.1187 28.4905 11.6266 28.9984C12.1345 29.5063 12.8234 29.7917 13.5417 29.7917H35.2083C35.9266 29.7917 36.6155 29.5063 37.1234 28.9984C37.6313 28.4905 37.9167 27.8016 37.9167 27.0833Z" fill="currentColor"/>
</svg>
