<svg width="56" height="65" viewBox="0 0 56 65" fill="none" xmlns="http://www.w3.org/2000/svg">
<g fill="currentColor">
<path d="M43.5191 6.02188H5.50925C4.28562 6.05013 3.12151 6.55555 2.26539 7.43026C1.40927 8.30496 0.928967 9.47967 0.927002 10.7036V60.3183C0.928705 61.5594 1.4225 62.7492 2.30013 63.6269C3.17776 64.5045 4.36759 64.9983 5.60874 65H43.5191C44.5853 64.9986 45.6192 64.6338 46.4502 63.9656C47.2811 63.2975 47.8594 62.366 48.0896 61.3248C48.1654 60.9947 48.2027 60.657 48.2008 60.3183V10.7036C48.1991 9.46246 47.7053 8.27264 46.8277 7.39501C45.95 6.51738 44.7602 6.02358 43.5191 6.02188ZM9.78718 14.566H39.3406C39.651 14.566 39.9487 14.6894 40.1682 14.9089C40.3877 15.1284 40.5111 15.4261 40.5111 15.7365C40.5111 16.0469 40.3877 16.3446 40.1682 16.5641C39.9487 16.7836 39.651 16.9069 39.3406 16.9069H9.78718C9.47676 16.9069 9.17906 16.7836 8.95956 16.5641C8.74006 16.3446 8.61675 16.0469 8.61675 15.7365C8.61675 15.4261 8.74006 15.1284 8.95956 14.9089C9.17906 14.6894 9.47676 14.566 9.78718 14.566ZM9.78718 26.1065H39.3406C39.651 26.1065 39.9487 26.2298 40.1682 26.4493C40.3877 26.6688 40.5111 26.9665 40.5111 27.2769C40.5111 27.5874 40.3877 27.8851 40.1682 28.1046C39.9487 28.3241 39.651 28.4474 39.3406 28.4474H9.78718C9.47676 28.4474 9.17906 28.3241 8.95956 28.1046C8.74006 27.8851 8.61675 27.5874 8.61675 27.2769C8.61675 26.9665 8.74006 26.6688 8.95956 26.4493C9.17906 26.2298 9.47676 26.1065 9.78718 26.1065ZM27.6363 39.8591H9.78718C9.47676 39.8591 9.17906 39.7358 8.95956 39.5163C8.74006 39.2968 8.61675 38.9991 8.61675 38.6887C8.61675 38.3783 8.74006 38.0805 8.95956 37.861C9.17906 37.6415 9.47676 37.5182 9.78718 37.5182H27.6363C27.9467 37.5182 28.2444 37.6415 28.4639 37.861C28.6834 38.0805 28.8067 38.3783 28.8067 38.6887C28.8067 38.9991 28.6834 39.2968 28.4639 39.5163C28.2444 39.7358 27.9467 39.8591 27.6363 39.8591ZM45.2747 58.5626C45.2808 59.0966 45.1617 59.6246 44.9269 60.1043C44.6921 60.584 44.3483 61.002 43.9229 61.3248C43.309 61.8125 42.5474 62.0766 41.7634 62.0739H32.6633C32.3577 62.0589 32.0687 61.9308 31.8524 61.7144C31.636 61.4981 31.5079 61.209 31.4929 60.9035C31.4929 60.5931 31.6162 60.2954 31.8357 60.0759C32.0552 59.8564 32.3529 59.7331 32.6633 59.7331H41.7634C42.0738 59.7331 42.3715 59.6097 42.591 59.3902C42.8105 59.1707 42.9338 58.873 42.9338 58.5626V49.2167C42.9338 48.9063 43.0572 48.6086 43.2767 48.3891C43.4962 48.1696 43.7939 48.0463 44.1043 48.0463C44.4147 48.0463 44.7124 48.1696 44.9319 48.3891C45.1514 48.6086 45.2747 48.9063 45.2747 49.2167V58.5626Z"/>
<path d="M50.4481 0H12.532C11.4645 0.00244877 10.4296 0.368328 9.59778 1.0374C8.76597 1.70647 8.18678 2.63884 7.95557 3.68101H43.5192C45.3812 3.68256 47.1665 4.42294 48.4832 5.7396C49.7998 7.05625 50.5402 8.84158 50.5418 10.7036V58.984C51.7666 58.9578 52.9326 58.4533 53.7901 57.5783C54.6476 56.7033 55.1285 55.5274 55.1299 54.3022V4.68173C55.1282 3.44058 54.6344 2.25076 53.7567 1.37313C52.8791 0.495503 51.6893 0.00170307 50.4481 0Z"/>
</g>
</svg>
