<svg xmlns="http://www.w3.org/2000/svg" xml:space="preserve" width="839.131" height="839.131" viewBox="0 0 222.02 222.02"><path fill="currentColor" d="M58.079 221.8c-8.543-1.15-18.257-5.331-22.286-9.592-1.88-1.988-3.42-4.695-4.564-8.026-.647-1.883-.666-4.643-.666-93.133V19.856l.846-2.585c1.006-3.069 2.932-6.17 5.156-8.302 2.045-1.96 8.118-5.127 12.893-6.725C54.698.491 59.268-.19 64.253.04c6.822.313 11.378 1.535 18.344 4.918 3.696 1.795 4.783 2.518 6.712 4.463 1.267 1.277 2.81 3.288 3.429 4.467 2.221 4.232 2.206 4.04 2.206 28.561v22.268l-2.028-.142c-1.116-.079-2.223-.204-2.46-.279-.332-.105-.453-5.262-.529-22.464l-.098-22.328-1.117-2.356c-1.754-3.703-3.399-5.217-8.347-7.68C68.957 3.79 58.65 3.472 47.22 8.445c-5.778 2.513-8.38 4.65-10.236 8.406l-1.13 2.286v183.81l.987 2.008c1.678 3.416 3.636 5.246 7.982 7.456 6.35 3.229 11.694 4.562 18.196 4.538 6.117-.023 12.407-1.664 18.303-4.774 3.946-2.082 5.601-3.662 7.178-6.852l1.33-2.692.185-115.89 1.142-.175a668.8 668.8 0 0 0 2.466-.384l1.323-.21-.004 57.96c-.005 63.584.133 59.449-2.141 64.069-1.745 3.543-4.678 6.251-9.32 8.607-7 3.551-12.566 5.095-19.398 5.38-1.943.081-4.644-.002-6.002-.185zm.617-7.764c-3.653-.475-7.458-1.672-11.562-3.639-4.757-2.28-6.168-3.478-7.657-6.502l-1.154-2.344V20.561l1.018-2.204c1.332-2.884 3.251-4.604 7.326-6.567 11.404-5.494 21.23-5.43 32.686.214 4.172 2.055 5.967 3.782 7.112 6.843.693 1.851.718 2.662.718 23.6 0 17.113-.093 21.682-.441 21.678-.243-.003-.799-.1-1.235-.218l-.794-.213V20.876l-.884-1.773c-1.121-2.25-1.852-2.917-5.113-4.667-3.64-1.952-8.416-3.482-12.47-3.994-5.858-.74-12.517.552-18.607 3.611-3.439 1.727-4.716 2.823-5.894 5.055l-.953 1.806v179.92l.811 1.76c1.053 2.285 1.866 3.115 4.462 4.563 8.512 4.746 17.498 5.838 26.025 3.163 4.015-1.26 9.618-4.178 10.67-5.557 1.872-2.453 1.764.817 1.953-59.471l.177-56.248 1.146-.67 1.147-.67v113.92l-1.25 2.499c-1.55 3.098-2.437 3.852-7.356 6.247-4.35 2.118-7.723 3.137-12.199 3.684-3.333.408-4.478.406-7.682-.01zm1.753-8.677c-2.243-1.105-3.43-4.012-2.56-6.27l.399-1.035 3.518 3.505c3.142 3.13 3.454 3.552 2.915 3.946-.832.608-2.884.538-4.272-.146zm3.286-5.399c-1.927-1.934-3.405-3.615-3.285-3.735.565-.565 2.734-.74 3.957-.32 1.748.602 2.532 1.37 3.212 3.152.465 1.217.497 1.762.176 2.956-.217.805-.431 1.463-.476 1.463-.044 0-1.657-1.582-3.584-3.516zm-6.461-37.25c-1.661-1.164-1.84-2.106-1.84-9.64 0-3.878.15-7.45.336-7.937s.917-1.529 1.626-2.313l1.29-1.427-1.142-1.3c-3.283-3.74-2.738-8.645 1.26-11.35 1.64-1.11 1.893-1.173 4.25-1.054 3.18.16 4.984 1.284 6.302 3.93 1.462 2.934 1.004 5.803-1.379 8.625l-.97 1.15 1.136 1.294c1.958 2.23 2.107 2.958 2.107 10.341 0 9.983-.185 10.231-7.665 10.231-3.53 0-4.698-.121-5.312-.55zm.981-64.84c-5.794-1.578-10.62-6.505-12.16-12.412-2.26-8.679 2.883-17.904 11.543-20.704 3.101-1.003 8.852-.896 21.783.406 17.792 1.79 21.14 1.964 37.394 1.944 24.381-.03 29.19-.808 48.05-7.773 10.477-3.87 12.842-4.477 16.808-4.319 2.346.094 3.42.314 4.64.948 6.681 3.473 6.867 10.453.508 19.107-4.811 6.548-13.173 12.409-20.614 14.448-3.528.966-11.473 1.566-16.989 1.282-4.867-.251-9.255-.86-21.642-3.002-9.53-1.648-17.88-2.643-27.164-3.236-5.879-.375-7.04-.359-9.443.134-3.88.795-7.132 2.503-12.605 6.62-5.685 4.277-7.56 5.404-10.532 6.335-2.576.807-7.05.91-9.576.222zm9.878-5.729c1.262-.594 3.993-2.376 6.07-3.96 8.99-6.854 13.758-8.882 20.876-8.882 7.51 0 22.873 1.715 36.355 4.058 14.492 2.52 18.936 2.902 26.627 2.294 5.803-.458 8.494-1.174 12.64-3.362 8.507-4.488 15.616-12.829 15.702-18.423.055-3.574-3.98-4.9-9.909-3.257-1.415.393-5.619 1.843-9.341 3.224-20.336 7.543-28.6 8.755-56.51 8.292-12.54-.208-17.796-.547-33.447-2.156-15.96-1.642-18.978-1.276-23.051 2.793-1.832 1.831-2.285 2.541-2.91 4.566-.886 2.867-.933 4.726-.182 7.253.704 2.372 1.771 4.07 3.593 5.715 2.615 2.363 4.813 3.138 8.548 3.014 2.1-.069 3.12-.31 4.94-1.168zm-8.006-66.428c-2.11-1.325-3.078-4.006-2.237-6.19l.4-1.039 3.583 3.583c1.97 1.97 3.47 3.695 3.334 3.832s-1.083.31-2.101.386c-1.414.104-2.118-.03-2.98-.572zm3.585-5.343c-3.852-3.87-3.92-4.203-.87-4.211 2.171-.006 3.751 1.023 4.634 3.018.677 1.53.673 3.022-.012 4.29-.154.285-1.458-.791-3.752-3.097z"/></svg>