<svg xmlns="http://www.w3.org/2000/svg" xml:space="preserve" width="403.994" height="403.994" viewBox="0 0 106.89 106.89"><path fill="none" stroke="currentColor" stroke-linecap="round" stroke-linejoin="round" stroke-width="1.9" d="M82.935 23.511h-6.45v-6.45m12.742-6.292L76.485 23.51m22.413-6.503c0 8.87-7.2 16.058-16.07 16.058-8.869 0-16.058-7.19-16.058-16.058C66.77 8.14 73.971.95 82.84.95c8.87 0 16.058 7.19 16.058 16.058zm-54.115 63.69L32.046 93.433m.079-12.978L44.71 67.871m-12.585-.157 12.677-12.677m-12.677-.065 12.663-12.663M32.125 29.868h12.677l-12.78 12.778m.103-18.983v82.08l12.722-12.721m12.767.015-12.78 12.78m25.359.124V93.042l-12.756 12.756m.013-50.667a3.146 3.146 0 1 1-6.292 0 3.146 3.146 0 0 1 6.292 0zm-12.665-12.9H82.69l.011 25.644H44.785zm.002-25.169h21.984c-.135 7.867 6.543 15.92 15.92 16.006l.008 59.974H44.787zM25.82 23.67h42.39c2.025 4.23 5.076 6.625 8.106 8.003v74.113H25.82z"/></svg>