<?xml version="1.0" encoding="UTF-8"?>
<svg width="404" height="404" version="1.1" viewBox="0 0 106.9 106.9" xml:space="preserve" xmlns="http://www.w3.org/2000/svg"><path d="m82.94 23.51h-6.45v-6.45m12.74-6.292-12.74 12.74m22.41-6.503c0 8.87-7.2 16.06-16.07 16.06-8.869 0-16.06-7.19-16.06-16.06 0-8.867 7.201-16.06 16.07-16.06 8.87 0 16.06 7.19 16.06 16.06zm-54.12 63.69-12.74 12.74m0.079-12.98 12.58-12.58m-12.58-0.157 12.68-12.68m-12.68-0.065 12.66-12.66m0.014-12.44-12.78 12.78m0.103-18.98v82.08l12.72-12.72m12.77 0.015-12.78 12.78m25.36-12.78-12.76 12.76m0.013-50.67c0 4.195-6.292 4.195-6.292 0s6.292-4.195 6.292 0zm-12.66-12.9h37.9l0.011 25.64h-37.92zm2e-3 -25.17h21.98c-0.135 7.867 6.543 15.92 15.92 16.01l8e-3 59.97h-37.91zm31.53 75.98v12.69h-50.5v-82.06h18.97m-5.968 0-6.694 6.693m44.19 68.8-6.563 6.563" fill="none" stroke="currentColor" stroke-linecap="round" stroke-linejoin="round" stroke-width="1.9"/></svg>
