<svg width="44" height="52" viewBox="0 0 44 52" fill="none" xmlns="http://www.w3.org/2000/svg">
<g fill="currentColor">
<path d="M43.583 26C43.5798 22.68 42.8078 19.4059 41.3275 16.4342L42.4412 15.6607C43.1482 15.1678 43.6305 14.4144 43.7821 13.566C43.9336 12.7176 43.742 11.8438 43.2494 11.1367C42.7565 10.4297 42.0031 9.94735 41.1547 9.7958C40.3063 9.64424 39.4325 9.83586 38.7254 10.3285L37.6095 11.1042C34.3013 7.61243 29.9221 5.32488 25.1664 4.60417V3.25C25.1664 2.38805 24.824 1.5614 24.2145 0.951903C23.605 0.34241 22.7783 0 21.9164 0C21.0544 0 20.2278 0.34241 19.6183 0.951903C19.0088 1.5614 18.6664 2.38805 18.6664 3.25V4.60417C13.9106 5.32488 9.53146 7.61243 6.2232 11.1042L5.10736 10.3285C4.40024 9.83586 3.5264 9.64424 2.67802 9.7958C1.82963 9.94735 1.07618 10.4297 0.583364 11.1367C0.0907211 11.8438 -0.100893 12.7176 0.050662 13.566C0.202217 14.4144 0.68453 15.1678 1.39153 15.6607L2.5052 16.4342C1.02191 19.4048 0.249759 22.6796 0.249759 26C0.249759 29.3204 1.02191 32.5952 2.5052 35.5658L1.39153 36.3393C0.68453 36.8322 0.202217 37.5856 0.050662 38.434C-0.100893 39.2824 0.0907211 40.1562 0.583364 40.8633C1.07618 41.5703 1.82963 42.0527 2.67802 42.2042C3.5264 42.3558 4.40024 42.1641 5.10736 41.6715L6.2232 40.8958C9.53146 44.3876 13.9106 46.6751 18.6664 47.3958V48.75C18.6664 49.612 19.0088 50.4386 19.6183 51.0481C20.2278 51.6576 21.0544 52 21.9164 52C22.7783 52 23.605 51.6576 24.2145 51.0481C24.824 50.4386 25.1664 49.612 25.1664 48.75V47.3958C29.9221 46.6751 34.3013 44.3876 37.6095 40.8958L38.7254 41.6715C39.4325 42.1641 40.3063 42.3558 41.1547 42.2042C42.0031 42.0527 42.7565 41.5703 43.2494 40.8633C43.742 40.1562 43.9336 39.2824 43.7821 38.434C43.6305 37.5856 43.1482 36.8322 42.4412 36.3393L41.3275 35.5658C42.8078 32.5941 43.5798 29.32 43.583 26ZM21.9164 41.1667C18.9167 41.1667 15.9844 40.2772 13.4902 38.6106C10.9961 36.9441 9.05212 34.5754 7.90419 31.804C6.75626 29.0327 6.45591 25.9832 7.04112 23.0411C7.62633 20.0991 9.07082 17.3966 11.1919 15.2755C13.313 13.1545 16.0155 11.71 18.9575 11.1248C21.8995 10.5395 24.9491 10.8399 27.7204 11.9878C30.4917 13.1358 32.8605 15.0797 34.527 17.5739C36.1935 20.068 37.083 23.0003 37.083 26C37.0779 30.0209 35.4783 33.8756 32.6351 36.7188C29.7919 39.5619 25.9372 41.1615 21.9164 41.1667Z"/>
<circle cx="22" cy="26" r="11"/>
</g>
</svg>
