<svg width="65" height="65" viewBox="0 0 65 65" fill="none" xmlns="http://www.w3.org/2000/svg">
<path d="M59.1423 5.85776C51.3322 -1.95259 38.6693 -1.95259 30.8591 5.85776C25.5861 11.1308 23.8787 18.6148 25.7256 25.3249L1.57015 49.4801C1.02371 50.0265 0.695088 50.7539 0.646362 51.5248L0.00647644 61.6228C-0.0511489 62.5335 0.285258 63.4245 0.930261 64.0695C1.57526 64.7145 2.46657 65.0512 3.377 64.9933L13.475 64.3534C14.2462 64.3045 14.9733 63.9761 15.5197 63.4294L17.222 61.7274C18.1091 60.8403 18.4839 59.5632 18.2172 58.3373L17.3586 54.3914C17.301 54.1264 17.382 53.8503 17.5737 53.6585C17.7655 53.4667 18.0416 53.3855 18.3066 53.4433L22.2525 54.3022C23.4782 54.5689 24.7553 54.194 25.6424 53.307C26.5295 52.4199 26.9044 51.1428 26.6376 49.9171L25.779 45.9714C25.7214 45.7064 25.8024 45.4303 25.9942 45.2385C26.1859 45.0467 26.462 44.9655 26.727 45.0234L30.6729 45.8822C31.8986 46.149 33.1757 45.7741 34.0628 44.887L39.6749 39.2749C46.3853 41.1222 53.8692 39.4146 59.1423 34.1415C66.9526 26.331 66.9526 13.6679 59.1423 5.85776ZM26.6024 37.1394L10.634 53.1078C10.1995 53.5421 9.63012 53.7595 9.06077 53.7595C8.49141 53.7595 7.92206 53.5421 7.48753 53.1078C6.6187 52.239 6.6187 50.8302 7.48753 49.9614L23.456 33.9929C24.325 33.1243 25.7334 33.1243 26.6027 33.9929C27.4713 34.8615 27.4713 36.2703 26.6024 37.1394ZM50.7552 25.7538C47.5772 28.9319 42.424 28.9319 39.246 25.7538C36.0681 22.5762 36.0681 17.4231 39.2464 14.2448C42.424 11.0669 47.5772 11.0669 50.755 14.2448C53.9331 17.4229 53.9331 22.5762 50.7552 25.7538Z" fill="currentColor"/>
</svg>
