<svg width="60" height="52" viewBox="0 0 60 52" fill="none" xmlns="http://www.w3.org/2000/svg">
<path d="M56.1677 17.6594C53.6047 14.4835 49.7398 12.641 45.6586 12.6496H40.6464L40.8678 11.351C41.7701 6.06073 38.2132 1.04071 32.9229 0.138336C32.3409 0.0390488 31.7509 -0.00700745 31.1605 0.00086146C27.451 -0.0184637 24.048 2.05615 22.3658 5.36237L18.6471 12.6496H13.5267C6.05952 12.6578 0.00810035 18.7091 0 26.1763V38.4733C0.00810035 45.9406 6.05952 51.9919 13.5267 52H43.0591C49.442 51.9769 54.9485 47.5143 56.2931 41.2746L58.8928 28.9775C59.7457 24.9868 58.7436 20.8245 56.1677 17.6594ZM7.37814 38.4732V26.1763C7.37814 22.7807 10.1309 20.0278 13.5267 20.0278H17.2158V44.6217H13.5267C10.131 44.6217 7.37814 41.869 7.37814 38.4732ZM51.6743 27.4503L49.0723 39.7473C48.4621 42.5831 45.9598 44.6116 43.059 44.6219H24.5939V17.2265L28.9372 8.71452C29.3975 7.85288 30.3127 7.33318 31.2884 7.37912C32.5814 7.37993 33.6291 8.42893 33.6282 9.72197C33.6281 9.8525 33.6171 9.9828 33.5954 10.1115L31.9058 20.0278H45.6586C49.0543 20.0275 51.8074 22.78 51.8077 26.1756C51.8079 26.604 51.7631 27.0311 51.6743 27.4503Z" fill="currentColor"/>
</svg>
