<svg width="56" height="52" viewBox="0 0 56 52" fill="none" xmlns="http://www.w3.org/2000/svg">
<path d="M10.5028 15.7845C9.42992 15.7874 8.36712 15.5839 7.3759 15.1857C6.38467 14.7874 5.48472 14.2024 4.72814 13.4645L1.17002 10.3976C0.476964 9.79729 0.0581108 8.9545 0.00560384 8.05462C-0.020395 7.60904 0.0443291 7.16286 0.196081 6.74155C0.347832 6.32024 0.583639 5.93205 0.890038 5.59915C1.19644 5.26624 1.56743 4.99515 1.98183 4.80133C2.39623 4.60751 2.84592 4.49478 3.30523 4.46955C4.23286 4.41862 5.14334 4.72724 5.8364 5.32754L9.53218 8.52801C9.65251 8.66596 9.80073 8.77852 9.96767 8.85871C10.1346 8.93891 10.3167 8.98505 10.5028 8.99427C10.8116 8.99421 11.1078 8.87537 11.3264 8.66381L19.7562 0.877665C20.4331 0.283511 21.3224 -0.0305895 22.2346 0.00235239C23.1468 0.0352943 24.0096 0.412672 24.6391 1.054C25.2685 1.69533 25.6148 2.54985 25.604 3.43531C25.5932 4.32078 25.2262 5.16711 24.5813 5.7938L16.2144 13.5211C15.4627 14.2443 14.5712 14.8165 13.5911 15.2049C12.611 15.5933 11.5615 15.7903 10.5028 15.7845ZM56 7.86256C56 6.96212 55.6313 6.09856 54.9749 5.46185C54.3186 4.82514 53.4284 4.46744 52.5002 4.46744H33.8347C32.9065 4.46744 32.0163 4.82514 31.36 5.46185C30.7036 6.09856 30.3349 6.96212 30.3349 7.86256C30.3349 8.76301 30.7036 9.62657 31.36 10.2633C32.0163 10.9 32.9065 11.2577 33.8347 11.2577H52.5002C53.4284 11.2577 54.3186 10.9 54.9749 10.2633C55.6313 9.62657 56 8.76301 56 7.86256ZM16.2144 31.6284L24.5813 23.9011C25.2262 23.2744 25.5932 22.4281 25.604 21.5426C25.6148 20.6572 25.2685 19.8026 24.6391 19.1613C24.0096 18.52 23.1468 18.1426 22.2346 18.1097C21.3224 18.0767 20.4331 18.3908 19.7562 18.985L11.3264 26.7711C11.1076 26.9833 10.811 27.1025 10.5016 27.1025C10.1923 27.1025 9.8956 26.9833 9.67683 26.7711L5.97873 23.1814C5.32218 22.5444 4.43171 22.1866 3.50321 22.1866C2.57471 22.1866 1.68424 22.5444 1.0277 23.1814C0.371149 23.8183 0.00230421 24.6821 0.00230421 25.5828C0.00230421 26.4836 0.371149 27.3474 1.0277 27.9843L4.72814 31.5718C6.24929 33.0466 8.30873 33.8797 10.4593 33.8903C12.6099 33.9009 14.6779 33.0881 16.2144 31.6284ZM56 25.9699C56 25.0694 55.6313 24.2059 54.9749 23.5692C54.3186 22.9325 53.4284 22.5748 52.5002 22.5748H33.8347C32.9065 22.5748 32.0163 22.9325 31.36 23.5692C30.7036 24.2059 30.3349 25.0694 30.3349 25.9699C30.3349 26.8703 30.7036 27.7339 31.36 28.3706C32.0163 29.0073 32.9065 29.365 33.8347 29.365H52.5002C53.4284 29.365 54.3186 29.0073 54.9749 28.3706C55.6313 27.7339 56 26.8703 56 25.9699ZM16.2144 49.7357L24.5813 42.0084C25.2262 41.3817 25.5932 40.5354 25.604 39.6499C25.6148 38.7645 25.2685 37.91 24.6391 37.2686C24.0096 36.6273 23.1468 36.2499 22.2346 36.217C21.3224 36.184 20.4331 36.4981 19.7562 37.0923L11.3264 44.8784C11.1078 45.09 10.8116 45.2088 10.5028 45.2089C10.3167 45.1997 10.1346 45.1535 9.96767 45.0733C9.80073 44.9932 9.65251 44.8806 9.53218 44.7426L5.8364 41.5422C5.14334 40.9419 4.23286 40.6333 3.30523 40.6842C2.37761 40.7351 1.50884 41.1415 0.890038 41.8138C0.271237 42.4861 -0.0469031 43.3694 0.00560384 44.2693C0.0581108 45.1691 0.476964 46.0119 1.17002 46.6122L4.72347 49.6791C6.24482 51.1553 8.30525 51.9893 10.457 51.9999C12.6087 52.0105 14.6777 51.1968 16.2144 49.7357ZM56 44.0772C56 43.1768 55.6313 42.3132 54.9749 41.6765C54.3186 41.0398 53.4284 40.6821 52.5002 40.6821H33.8347C32.9065 40.6821 32.0163 41.0398 31.36 41.6765C30.7036 42.3132 30.3349 43.1768 30.3349 44.0772C30.3349 44.9776 30.7036 45.8412 31.36 46.4779C32.0163 47.1146 32.9065 47.4723 33.8347 47.4723H52.5002C53.4284 47.4723 54.3186 47.1146 54.9749 46.4779C55.6313 45.8412 56 44.9776 56 44.0772Z" fill="currentColor"/>
</svg>
