<svg width="14" height="16" viewBox="0 0 14 16" fill="none" xmlns="http://www.w3.org/2000/svg">
<path d="M7 0C5.14423 0.00194072 3.36505 0.703516 2.05275 1.95082C0.740463 3.19812 0.00222758 4.88929 0 6.65332C0 8.36665 1.39565 11.048 4.14838 14.6226C4.47609 15.0494 4.90516 15.3966 5.40068 15.6359C5.8962 15.8753 6.44418 16 7 16C7.55582 16 8.10379 15.8753 8.59932 15.6359C9.09484 15.3966 9.52391 15.0494 9.85162 14.6226C12.6043 11.048 14 8.36665 14 6.65332C13.9978 4.88929 13.2595 3.19812 11.9472 1.95082C10.635 0.703516 8.85577 0.00194072 7 0ZM7 9.30532C6.44516 9.30532 5.90278 9.14892 5.44144 8.8559C4.98011 8.56289 4.62054 8.14641 4.40821 7.65914C4.19588 7.17188 4.14033 6.6357 4.24857 6.11842C4.35682 5.60113 4.624 5.12598 5.01633 4.75304C5.40866 4.3801 5.90853 4.12613 6.45271 4.02323C6.99689 3.92034 7.56095 3.97315 8.07355 4.17498C8.58616 4.37681 9.02429 4.71861 9.33255 5.15714C9.6408 5.59567 9.80533 6.11124 9.80533 6.63866C9.80533 7.3459 9.50977 8.02418 8.98367 8.52427C8.45757 9.02437 7.74402 9.30532 7 9.30532Z" fill="#F9C201"/>
</svg>
