<svg xmlns="http://www.w3.org/2000/svg" xml:space="preserve" width="378.104" height="378.104" viewBox="0 0 100.04 100.04"><path fill="none" stroke="currentColor" stroke-linecap="round" stroke-linejoin="round" stroke-width="1.9" d="m69.842 15.382 5.742 5.742L91.226 5.482M88.64 8.138a15.815 15.815 0 0 1 2.592 8.702c0 8.775-7.114 15.889-15.889 15.889s-15.889-7.114-15.889-15.89S66.567.952 75.343.952c3.288 0 6.343.999 8.878 2.71m-40.83 57.581a3.19 3.19 0 0 1-3.19 3.19 3.19 3.19 0 0 1-3.188-3.19 3.19 3.19 0 0 1 3.189-3.19 3.19 3.19 0 0 1 3.189 3.19v0m-12.568 12.84h38.069M30.823 48.753h38.069M30.823 23.27h29.974m8.095 75.824V31.42m-38.07-14.285v81.96M75.343 32.8v66.293H24.688V17.135h34.78"/></svg>