<svg width="20" height="20" viewBox="0 0 20 20" fill="none" xmlns="http://www.w3.org/2000/svg">
<path d="M19.9259 19.3573L6.4565 0.173646C6.35421 0.0279317 6.16923 -0.0346398 5.99948 0.0189929C5.82972 0.0726255 5.71429 0.230095 5.71429 0.408177V5.7143H7.75511V6.53063H5.71429V8.57144H7.75511V9.38777H5.71429V11.4286H7.75511V12.2449H5.71429V14.2857H7.75511V15.1021H5.71429V17.1429H7.75511V17.9592H5.71429V19.5919C5.71429 19.8173 5.89703 20 6.12246 20H19.5918C19.7441 20 19.8838 19.9152 19.954 19.7801C20.0243 19.645 20.0134 19.4819 19.9259 19.3573ZM14.1202 16.1009C14.051 16.2392 13.9097 16.3265 13.7551 16.3265H9.4694C9.24397 16.3265 9.06123 16.1438 9.06123 15.9184V10.2041C9.06123 10.0284 9.17364 9.87242 9.34034 9.81687C9.50699 9.76128 9.6905 9.81863 9.79593 9.9592L14.0816 15.6735C14.1744 15.7972 14.1894 15.9627 14.1202 16.1009Z" fill="currentColor"/>
<path d="M4.4898 0H0.408163C0.182735 0 0 0.182735 0 0.408163V2.65306H2.1542V3.46939H0V5.91837H2.1542V6.73469H0V9.59184H2.1542V10.4082H0V13.2653H2.1542V14.0816H0V16.5306H2.1542V17.3469H0V19.5918C0 19.8173 0.182735 20 0.408163 20H4.4898C4.71522 20 4.89796 19.8173 4.89796 19.5918V0.408163C4.89796 0.182735 4.71522 0 4.4898 0Z" fill="currentColor"/>
</svg>
