<svg width="65" height="65" viewBox="0 0 65 65" fill="none" xmlns="http://www.w3.org/2000/svg">
<g fill="currentColor">
<path d="M26.7871 36.3086C26.7871 39.4586 29.35 42.0215 32.5 42.0215C35.65 42.0215 38.2129 39.4586 38.2129 36.3086C38.2129 33.1586 35.65 30.5957 32.5 30.5957C29.35 30.5957 26.7871 33.1586 26.7871 36.3086Z"/>
<path d="M32.5 45.8301C26.1995 45.8301 21.0742 50.9553 21.0742 57.2559V65H43.9258V57.2559C43.9258 50.9553 38.8005 45.8301 32.5 45.8301Z"/>
<path d="M17.2656 40.1172C17.2656 36.9672 14.7028 34.4043 11.5527 34.4043C8.40271 34.4043 5.83984 36.9672 5.83984 40.1172C5.83984 43.2672 8.40271 45.8301 11.5527 45.8301C14.7028 45.8301 17.2656 43.2672 17.2656 40.1172Z"/>
<path d="M59.1602 40.1172C59.1602 36.9672 56.5973 34.4043 53.4473 34.4043C50.2972 34.4043 47.7344 36.9672 47.7344 40.1172C47.7344 43.2672 50.2972 45.8301 53.4473 45.8301C56.5973 45.8301 59.1602 43.2672 59.1602 40.1172Z"/>
<path d="M9.64844 0L6.75133 6.83018L0 7.78233L4.86935 12.4077L3.74958 19.1699L9.64844 16.0868L15.5473 19.1699L14.4275 12.4077L19.1699 7.78233L12.6165 6.83018L9.64844 0Z"/>
<path d="M35.468 6.83018L32.5 0L29.6029 6.83018L22.9785 7.78233L27.7209 12.4077L26.6011 19.1699L32.5 16.0868L38.3989 19.1699L37.2791 12.4077L42.0215 7.78233L35.468 6.83018Z"/>
<path d="M55.3516 0L52.4545 6.83018L45.8301 7.78233L50.5725 12.4077L49.4527 19.1699L55.3516 16.0868L61.2504 19.1699L60.1307 12.4077L65 7.78233L58.3196 6.83018L55.3516 0Z"/>
<path d="M53.4473 49.6387C50.9161 49.6387 48.5997 50.4882 46.7064 51.8807C47.3436 53.5584 47.7344 55.3575 47.7344 57.2559V65H65V61.0645C65 54.754 59.7577 49.6387 53.4473 49.6387Z"/>
<path d="M0 61.0645V65H17.2656V57.2559C17.2656 55.3575 17.6564 53.5584 18.2936 51.8807C16.4003 50.4882 14.0839 49.6387 11.5527 49.6387C5.24227 49.6387 0 54.754 0 61.0645Z"/>
</g>
</svg>
