<svg width="54" height="52" viewBox="0 0 54 52" fill="none" xmlns="http://www.w3.org/2000/svg">
<path d="M15.3077 52C13.6018 51.9924 11.9422 51.4447 10.5669 50.4354C9.1614 49.4466 8.11265 48.0306 7.57661 46.398C7.04058 44.7653 7.04591 43.0032 7.59182 41.3738L10.207 33.2846L3.32257 28.2509C1.94221 27.2424 0.916194 25.8231 0.391331 24.1962C-0.133533 22.5692 -0.13035 20.8179 0.400423 19.1928C0.931197 17.5678 1.96236 16.1522 3.34639 15.1487C4.73041 14.1452 6.39637 13.6052 8.10591 13.6059H16.5326L19.092 5.62619C19.6172 3.99212 20.6475 2.56691 22.0346 1.55584C23.4216 0.544766 25.0937 0 26.8101 0C28.5265 0 30.1987 0.544766 31.5857 1.55584C32.9727 2.56691 34.003 3.99212 34.5283 5.62619V5.62619L37.0965 13.6059H45.5233C47.2326 13.6057 48.8982 14.146 50.2819 15.1497C51.6656 16.1534 52.6964 17.5689 53.2269 19.1939C53.7573 20.8188 53.7603 22.5699 53.2354 24.1967C52.7105 25.8235 51.6846 27.2425 50.3044 28.2509L43.4222 33.2846L46.0374 41.3738C46.5646 43.0056 46.5608 44.7625 46.0263 46.3919C45.4919 48.0213 44.4544 49.4392 43.0632 50.4416C41.6719 51.4441 39.9985 51.9794 38.2838 51.9707C36.569 51.9619 34.9012 51.4095 33.5202 50.3929L26.8146 45.462L20.109 50.3951C18.7215 51.43 17.0386 51.9925 15.3077 52V52ZM8.10591 20.3115C7.81088 20.3115 7.52338 20.4047 7.28451 20.5779C7.04564 20.751 6.86762 20.9953 6.77588 21.2757C6.68415 21.5561 6.6834 21.8583 6.77374 22.1392C6.86408 22.42 7.04088 22.6652 7.27889 22.8395L16.1214 29.3015C16.6907 29.7178 17.1143 30.3031 17.3318 30.9741C17.5493 31.6451 17.5497 32.3676 17.3328 33.0388L13.98 43.4325C13.887 43.7144 13.886 44.0186 13.9773 44.3011C14.0686 44.5836 14.2473 44.8298 14.4878 45.004C14.7282 45.1782 15.0177 45.2714 15.3146 45.2702C15.6115 45.2689 15.9003 45.1733 16.1392 44.9971L24.832 38.6022C25.4078 38.1784 26.1041 37.9499 26.8191 37.9499C27.534 37.9499 28.2303 38.1784 28.8062 38.6022L37.4989 44.9949C37.7375 45.1727 38.0267 45.2697 38.3243 45.2717C38.6219 45.2737 38.9124 45.1806 39.1534 45.0059C39.3944 44.8313 39.5733 44.5843 39.6641 44.3008C39.7549 44.0174 39.7528 43.7124 39.6581 43.4302L36.3053 33.0365C36.0884 32.3653 36.0888 31.6428 36.3063 30.9719C36.5238 30.3009 36.9474 29.7156 37.5167 29.2993L46.357 22.8373C46.5948 22.663 46.7716 22.4181 46.862 22.1375C46.9524 21.8568 46.9518 21.5548 46.8603 21.2745C46.7689 20.9942 46.5912 20.7499 46.3527 20.5766C46.1142 20.4033 45.827 20.3097 45.5322 20.3093H34.6378C33.9277 20.3091 33.236 20.0834 32.6623 19.6649C32.0887 19.2463 31.6628 18.6564 31.4459 17.9802L28.1557 7.67364C28.0651 7.39156 27.8873 7.14552 27.6479 6.97097C27.4084 6.79642 27.1198 6.70237 26.8235 6.70237C26.5272 6.70237 26.2386 6.79642 25.9992 6.97097C25.7598 7.14552 25.582 7.39156 25.4913 7.67364L22.1765 17.9824C21.9601 18.6575 21.5352 19.2467 20.9629 19.6651C20.3906 20.0836 19.7003 20.3099 18.9914 20.3115H8.10591Z" fill="currentColor"/>
</svg>
