<svg xmlns="http://www.w3.org/2000/svg" xml:space="preserve" viewBox="0 0 22 32"><path fill="#f9c201" d="M7.773.603c.272-.804 1.409-.804 1.68 0l1.447 4.27c.121.361.46.603.84.603h4.598c.868 0 1.22 1.119.508 1.615l-3.657 2.551a.887.887 0 0 0-.333 1.012l1.411 4.17c.275.811-.645 1.502-1.348 1.012l-3.798-2.649a.887.887 0 0 0-1.015 0l-3.798 2.65c-.703.49-1.623-.202-1.348-1.013l1.411-4.17a.887.887 0 0 0-.333-1.012L.381 7.092C-.33 6.594.021 5.475.89 5.475h4.598c.38 0 .719-.242.84-.602z"/><path fill="#d1d1d1" d="M7.773 16.603c.272-.804 1.409-.804 1.68 0l1.447 4.27c.121.361.46.604.84.604h4.598c.868 0 1.22 1.118.508 1.615l-3.657 2.55a.887.887 0 0 0-.333 1.012l1.411 4.17c.275.812-.645 1.503-1.348 1.013l-3.798-2.65a.887.887 0 0 0-1.015 0l-3.798 2.65c-.703.49-1.623-.201-1.348-1.013l1.411-4.17a.887.887 0 0 0-.333-1.012l-3.657-2.55c-.712-.497-.36-1.615.508-1.615h4.598c.38 0 .719-.243.84-.603z"/></svg>