<?xml version="1.0" encoding="UTF-8"?>
<svg version="1.1" viewBox="0 0 22 32" xml:space="preserve" xmlns="http://www.w3.org/2000/svg"><path d="m7.7731 0.60279c0.27203-0.80372 1.4088-0.80372 1.6808-1.78e-6l1.4456 4.2709c0.1219 0.3603 0.46003 0.60279 0.84039 0.60279h4.5983c0.86816 0 1.2197 1.1182 0.5075 1.6149l-3.6569 2.5507c-0.32375 0.22571-0.45941 0.63827-0.33289 1.0121l1.4114 4.1701c0.27451 0.81111-0.64564 1.5021-1.348 1.0122l-3.7982-2.6492c-0.30494-0.21267-0.71023-0.21267-1.0151 0l-3.7983 2.6492c-0.70232 0.48993-1.6225-0.20105-1.348-1.0122l1.4114-4.1701c0.12654-0.37379-0.009103-0.78635-0.33284-1.0121l-3.657-2.5507c-0.71212-0.49669-0.36066-1.6149 0.50757-1.6149h4.5983c0.38039 0 0.71845-0.24249 0.8404-0.60279z" fill="#f9c201"/><path d="m7.7731 16.603c0.27203-0.80372 1.4088-0.80372 1.6808-2e-6l1.4456 4.2709c0.1219 0.3603 0.46003 0.60279 0.84039 0.60279h4.5983c0.86816 0 1.2197 1.1182 0.5075 1.6149l-3.6569 2.5507c-0.32375 0.22571-0.45941 0.63828-0.33289 1.0121l1.4114 4.1701c0.27451 0.81111-0.64564 1.5021-1.348 1.0122l-3.7982-2.6492c-0.30494-0.21267-0.71023-0.21267-1.0151 0l-3.7983 2.6492c-0.70232 0.48993-1.6225-0.20105-1.348-1.0122l1.4114-4.1701c0.12654-0.37379-0.0091-0.78635-0.33284-1.0121l-3.657-2.5507c-0.71212-0.49669-0.36066-1.6149 0.50757-1.6149h4.5983c0.38039 0 0.71845-0.24249 0.8404-0.60279z" fill="#d1d1d1"/></svg>
