<svg width="63" height="63" viewBox="0 0 63 63" fill="none" xmlns="http://www.w3.org/2000/svg">
<path d="M50.0413 62.9437C46.6836 62.9437 43.3686 61.6356 40.8905 59.1616C37.4434 55.7125 36.2389 50.5816 37.7583 45.9727L17.0253 25.2437C12.4124 26.7611 7.28751 25.5545 3.84048 22.1095C-0.0270228 18.2441 -1.04265 12.3331 1.3136 7.40328C1.41517 7.19 1.61423 7.03765 1.84985 6.99703C2.08954 6.96046 2.32313 7.03359 2.4897 7.20218L10.6188 15.3312C11.9188 16.6272 14.0313 16.6292 15.3313 15.3312C16.6292 14.0312 16.6292 11.9187 15.3313 10.6187L7.2022 2.48968C7.0336 2.32109 6.95845 2.08343 6.99704 1.84984C7.03767 1.61624 7.18798 1.41718 7.40329 1.31359C12.3331 -1.04469 18.242 -0.0270366 22.1075 3.83843C25.5566 7.28749 26.7631 12.4184 25.2397 17.0294L45.9706 37.7583C50.5836 36.2308 55.7125 37.4414 59.1595 40.8905C63.023 44.7559 64.0386 50.6648 61.6844 55.5967C61.5808 55.81 61.3817 55.9623 61.1461 56.0009C60.9267 56.0456 60.6769 55.9644 60.5063 55.7978L52.3772 47.6687C51.0792 46.3708 48.9647 46.3708 47.6688 47.6687C46.3688 48.9687 46.3688 51.0812 47.6688 52.3772L55.7978 60.5062C55.9644 60.6748 56.0416 60.9125 56.001 61.1461C55.9603 61.3797 55.81 61.5808 55.5967 61.6844C53.8255 62.5314 51.9283 62.9437 50.0413 62.9437ZM17.2163 23.6716C17.4072 23.6716 17.5941 23.7467 17.7322 23.8848L39.1172 45.2617C39.3203 45.4648 39.3853 45.7655 39.2858 46.0336C37.7319 50.222 38.7678 54.9691 41.9264 58.1256C45.1033 61.3025 49.8402 62.31 53.9961 60.7764L46.6349 53.4151C44.7681 51.5464 44.7681 48.5056 46.6349 46.6348C48.5117 44.7702 51.5505 44.7722 53.4152 46.6348L60.7764 53.9961C62.31 49.8381 61.3045 45.1033 58.1256 41.9264C54.9691 38.7678 50.2261 37.7319 46.0336 39.2858C45.7655 39.3833 45.4669 39.3203 45.2617 39.1172L23.8828 17.7383C23.6797 17.5372 23.6147 17.2345 23.7142 16.9664C25.2702 12.778 24.2322 8.03093 21.0756 4.87234C17.8988 1.69546 13.1619 0.687964 9.00392 2.22359L16.3652 9.58484C17.267 10.4867 17.7627 11.6912 17.7627 12.975C17.7627 14.2587 17.265 15.4633 16.3631 16.3631C14.5594 18.1689 11.3866 18.1669 9.58485 16.3631L2.2236 9.0039C0.690009 13.1598 1.69548 17.8967 4.87235 21.0756C8.02892 24.2322 12.778 25.2681 16.9624 23.7162C17.0456 23.6858 17.1309 23.6716 17.2163 23.6716ZM4.80532 62.4562C4.61845 62.4562 4.42954 62.3831 4.28938 62.243L0.748915 58.7025C0.472665 58.4262 0.462509 57.9834 0.72454 57.693L6.68829 51.1341C6.82235 50.9858 7.01126 50.9005 7.21235 50.8944C7.36876 50.8944 7.60439 50.9675 7.74657 51.1077L9.29845 52.6595L24.4841 37.4719L25.518 38.5078L10.3324 53.6955L11.8822 55.2453C12.0244 55.3875 12.1016 55.5805 12.0955 55.7816C12.0894 55.9827 12.0041 56.1695 11.8558 56.3056L5.29688 62.2694C5.15876 62.3933 4.98204 62.4562 4.80532 62.4562ZM2.27642 58.1602L4.8297 60.7155L10.3039 55.7369L7.25298 52.6859L2.27642 58.1602ZM42.3895 28.4897L41.3536 27.4558L60.2666 8.54281C61.0466 7.76484 61.4752 6.73093 61.4752 5.63203C61.4752 4.53312 61.0466 3.49921 60.2666 2.72124C58.666 1.12062 56.0538 1.11656 54.4491 2.72124L35.5361 21.6342L34.5002 20.6003L53.4131 1.68734C55.5216 -0.421099 59.1981 -0.417037 61.3025 1.68734C62.3567 2.74156 62.9377 4.14109 62.9377 5.63203C62.9377 7.12296 62.3567 8.52249 61.3025 9.57671L42.3895 28.4897ZM38.9628 25.063L37.9269 24.0291L56.7809 5.17499L57.8169 6.2089L38.9628 25.063Z" fill="currentColor"/>
</svg>
