<svg width="21" height="21" viewBox="0 0 21 21" fill="none" xmlns="http://www.w3.org/2000/svg">
<g clip-path="url(#clip0_262_3287)">
<path d="M10.5 0C5.31562 0 0 1.11562 0 9.1875C0 13.5188 1.50938 16.2094 4.59375 17.4563V19.8844C4.59375 20.3438 4.85625 20.7375 5.25 20.9344C5.38125 21 5.57812 21 5.70937 21C5.97187 21 6.3 20.8687 6.49687 20.6719L8.85938 18.3094C9.38437 18.3094 9.90938 18.375 10.5 18.375C15.6844 18.375 21 17.2594 21 9.1875C21 1.11562 15.6844 0 10.5 0Z" fill="#7B519C"/>
<path d="M10.1719 5.97186C11.7469 5.97186 13.0594 7.28436 13.0594 8.85936C13.0594 9.25311 13.3219 9.51561 13.7156 9.51561C14.1094 9.51561 14.3719 9.25311 14.3719 8.85936C14.3719 6.56249 12.4687 4.65936 10.1719 4.65936C9.77812 4.65936 9.51562 4.92186 9.51562 5.31561C9.51562 5.70936 9.77812 5.97186 10.1719 5.97186Z" fill="white"/>
<path d="M10.1719 8.00626C10.6313 8.00626 11.025 8.40001 11.025 8.85938C11.025 9.25313 11.2875 9.51563 11.6812 9.51563C12.075 9.51563 12.3375 9.25313 12.3375 8.85938C12.3375 7.67813 11.3531 6.69376 10.1719 6.69376C9.77812 6.69376 9.51562 6.95626 9.51562 7.35001C9.51562 7.74376 9.77812 8.00626 10.1719 8.00626Z" fill="white"/>
<path d="M10.1719 2.625C9.77812 2.625 9.51562 2.8875 9.51562 3.28125C9.51562 3.675 9.77812 3.9375 10.1719 3.9375C12.8625 3.9375 15.0938 6.16875 15.0938 8.85938C15.0938 9.25313 15.3562 9.51562 15.75 9.51562C16.1438 9.51562 16.4062 9.25313 16.4062 8.85938C16.4062 5.44688 13.5844 2.625 10.1719 2.625Z" fill="white"/>
<path d="M14.3719 11.2219L14.2406 11.1562C14.2406 11.1562 12.7969 10.4344 12.5344 10.3688C12.0094 10.1719 11.4844 10.3031 11.1563 10.7625L11.0906 10.8938C10.9594 11.0906 10.7625 11.3531 10.6313 11.4844C10.3031 11.3531 9.7125 11.0906 8.925 10.4344C8.4 9.975 8.00625 9.38438 7.80938 9.05625C7.875 8.99062 7.875 8.99063 7.94063 8.925C8.00625 8.85938 8.07188 8.79375 8.1375 8.72813C8.26875 8.59688 8.33438 8.46563 8.46563 8.26875C8.59688 7.94063 8.59688 7.6125 8.46563 7.21875C8.4 7.0875 8.1375 6.49687 7.94063 6.0375L7.67813 5.5125C7.41563 4.85625 7.02188 4.725 6.5625 4.725C6.49688 4.59375 6.43125 4.59375 6.3 4.59375C5.775 4.59375 5.31563 4.79063 4.9875 5.11875C4.65938 5.44688 3.9375 6.16875 3.9375 7.6125C3.9375 8.79375 4.65937 9.90938 5.05313 10.5L5.11875 10.5656C6.36563 12.4031 7.94063 13.7156 9.51563 14.3719C10.8938 14.9625 11.6813 15.0938 12.2063 15.0938C12.4688 15.0938 12.6656 15.0938 12.7969 15.0281C13.65 14.8313 14.6344 14.2406 14.8969 13.4531C15.0281 12.9937 15.225 12.2062 14.9625 11.7469C14.8313 11.4844 14.5688 11.3531 14.3719 11.2219Z" fill="white"/>
</g>
<defs>
<clipPath id="clip0_262_3287">
<rect width="21" height="21" fill="white"/>
</clipPath>
</defs>
</svg>
