<?xml version="1.0" encoding="UTF-8"?>
<svg width="14" height="14" version="1.1" xmlns="http://www.w3.org/2000/svg">
 <path d="m0.5 4e-6a0.5 0.5 0 0 0-0.5 0.5v3a0.5 0.5 0 0 0 0.5 0.5h3a0.5 0.5 0 0 0 0.5-0.5v-3a0.5 0.5 0 0 0-0.5-0.5zm5 0a0.5 0.5 0 0 0-0.5 0.5v3a0.5 0.5 0 0 0 0.5 0.5h3a0.5 0.5 0 0 0 0.5-0.5v-3a0.5 0.5 0 0 0-0.5-0.5zm5 0a0.5 0.5 0 0 0-0.502 0.5v3a0.5 0.5 0 0 0 0.502 0.5h3a0.5 0.5 0 0 0 0.5-0.5v-3a0.5 0.5 0 0 0-0.5-0.5zm-10 5a0.5 0.5 0 0 0-0.5 0.5v3a0.5 0.5 0 0 0 0.5 0.5h3a0.5 0.5 0 0 0 0.5-0.5v-3a0.5 0.5 0 0 0-0.5-0.5zm5 0a0.5 0.5 0 0 0-0.5 0.5v3a0.5 0.5 0 0 0 0.5 0.5h3a0.5 0.5 0 0 0 0.5-0.5v-3a0.5 0.5 0 0 0-0.5-0.5zm5 0a0.5 0.5 0 0 0-0.502 0.5v3a0.5 0.5 0 0 0 0.502 0.5h3a0.5 0.5 0 0 0 0.5-0.5v-3a0.5 0.5 0 0 0-0.5-0.5zm-10 5a0.5 0.5 0 0 0-0.5 0.5v3a0.5 0.5 0 0 0 0.5 0.5h3a0.5 0.5 0 0 0 0.5-0.5v-3a0.5 0.5 0 0 0-0.5-0.5zm5 0a0.5 0.5 0 0 0-0.5 0.5v3a0.5 0.5 0 0 0 0.5 0.5h3a0.5 0.5 0 0 0 0.5-0.5v-3a0.5 0.5 0 0 0-0.5-0.5zm5 0a0.5 0.5 0 0 0-0.502 0.5v3a0.5 0.5 0 0 0 0.502 0.5h3a0.5 0.5 0 0 0 0.5-0.5v-3a0.5 0.5 0 0 0-0.5-0.5z" fill="currentColor" fill-rule="evenodd"/>
</svg>
