<?xml version="1.0" encoding="UTF-8"?>
<svg width="20" height="20" enable-background="new 0 0 24 24" version="1.1" viewBox="0 0 20 20" xmlns="http://www.w3.org/2000/svg">
 <path d="m8 0h-7c-0.6 0-1 0.4-1 1v7c0 0.6 0.4 1 1 1h7c0.6 0 1-0.4 1-1v-7c0-0.6-0.4-1-1-1zm0 11h-7c-0.6 0-1 0.4-1 1v7c0 0.6 0.4 1 1 1h7c0.6 0 1-0.4 1-1v-7c0-0.6-0.4-1-1-1zm11-11h-7c-0.6 0-1 0.4-1 1v7c0 0.6 0.4 1 1 1h7c0.6 0 1-0.4 1-1v-7c0-0.6-0.4-1-1-1zm0 11h-7c-0.6 0-1 0.4-1 1v7c0 0.6 0.4 1 1 1h7c0.6 0 1-0.4 1-1v-7c0-0.6-0.4-1-1-1z" fill="currentColor"/>
</svg>
