<?xml version="1.0" encoding="UTF-8"?>
<svg width="17" height="14" version="1.1" viewBox="0 0 17 14" xmlns="http://www.w3.org/2000/svg">
 <path d="m1 9h2c0.55 0 1-0.45 1-1v-2c0-0.55-0.45-1-1-1h-2c-0.55 0-1 0.45-1 1v2c0 0.55 0.45 1 1 1zm0 5h2c0.55 0 1-0.45 1-1v-2c0-0.55-0.45-1-1-1h-2c-0.55 0-1 0.45-1 1v2c0 0.55 0.45 1 1 1zm0-10h2c0.55 0 1-0.45 1-1v-2c0-0.55-0.45-1-1-1h-2c-0.55 0-1 0.45-1 1v2c0 0.55 0.45 1 1 1zm5 5h10c0.55 0 1-0.45 1-1v-2c0-0.55-0.45-1-1-1h-10c-0.55 0-1 0.45-1 1v2c0 0.55 0.45 1 1 1zm0 5h10c0.55 0 1-0.45 1-1v-2c0-0.55-0.45-1-1-1h-10c-0.55 0-1 0.45-1 1v2c0 0.55 0.45 1 1 1zm-1-13v2c0 0.55 0.45 1 1 1h10c0.55 0 1-0.45 1-1v-2c0-0.55-0.45-1-1-1h-10c-0.55 0-1 0.45-1 1z" fill="currentColor"/>
</svg>
