<?xml version="1.0" encoding="UTF-8"?>
<svg fill="none" version="1.1" viewBox="0 0 395 249" xmlns="http://www.w3.org/2000/svg">
 <path d="m19.51 144.1c-0.6051 2.52-3.117 0.297-3.785-1.355-2.176-5.381-0.0305-14.44 0.8899-19.4 3.036-16.35 7.769-38.41 20.83-50.08 22.64-20.22 25.8 54.07 26 62.21 0.3222 13.16 0.3417 26.97-2.158 39.97-2.778 14.46-3.792-9.599-3.791-9.625 1.396-38.7 10.33-82.67 26.96-117.8 8.617-18.2 33.44-38.93 48.66-14.49 7.026 11.28 8.272 25.45 8.809 38.36 1.241 29.85-2.522 59.68-2.171 89.53 0.176 14.9 0.814 30.83 6.208 44.95 3.561 9.317 9.834 13.78 14.14 2.296 7.074-18.88 42.18-203.9 68.46-193.1 6.679 2.751 7.479 17.57 7.991 22.39 2.198 20.69 2.012 41.73 2.09 62.5 0.088 23.39-0.543 46.79 0.365 70.17 0.751 19.32 1.045 41.45 7.662 59.96 2.937 8.219 5.155-0.371 6.237-4.015 4.032-13.57 7.152-27.4 11.25-40.96 5.296-17.55 10.85-35.27 18.33-52.04 3.544-7.937 11.6-28.89 23.3-29.22 7.877-0.223 14.42 9.856 17.98 15.12 9.288 13.73 15.36 29.71 26.2 42.39 17.84 20.89 25.69-10.52 30.02-24.29" stroke="#fff" stroke-linecap="round" stroke-width="29.21"/>
</svg>
