<svg width="62" height="65" viewBox="0 0 62 65" fill="none" xmlns="http://www.w3.org/2000/svg">
<g fill="currentColor">
<path d="M11.7695 28.2273H49.6681C50.7712 28.2273 51.6686 27.3298 51.6686 26.2268V24.8515C51.6686 23.7439 50.7712 22.8428 49.6681 22.8428H47.8787C47.8781 22.8428 47.8777 22.8429 47.877 22.8429C47.8766 22.8429 47.876 22.8428 47.8755 22.8428H33.8073H27.4597H12.9637C12.9631 22.8428 12.9625 22.8429 12.9621 22.8429C12.9616 22.8429 12.961 22.8428 12.9604 22.8428H11.7697C10.6621 22.8428 9.76099 23.7439 9.76099 24.8515V26.2268C9.76083 27.3298 10.6619 28.2273 11.7695 28.2273Z"/>
<path d="M26.7014 21.3261V3.60352C18.8598 4.81759 13.4556 11.1816 13.4556 19.358C13.4556 20.0689 13.5123 20.6751 13.6086 21.3261H26.7014Z"/>
<path d="M33.049 2.41557C33.049 1.08366 31.9653 0 30.6334 0C29.3015 0 28.2178 1.08366 28.2178 2.41557V21.3263H33.049V2.41557Z"/>
<path d="M53.5727 7.62002C54.7851 7.62002 55.7716 6.63357 55.7716 5.42116C55.7716 4.20875 54.7851 3.22229 53.5727 3.22229C52.3603 3.22229 51.3738 4.20875 51.3738 5.42116C51.3738 6.63357 52.3603 7.62002 53.5727 7.62002Z"/>
<path d="M3.37791 38.7519C4.59032 38.7519 5.57678 37.7654 5.57678 36.553C5.57678 35.3406 4.59032 34.3541 3.37791 34.3541C2.1655 34.3541 1.17905 35.3406 1.17905 36.553C1.17905 37.7654 2.1655 38.7519 3.37791 38.7519Z"/>
<path d="M47.38 19.3583C47.38 11.587 42.1544 5.25095 34.5654 3.66003V21.3263H47.2379C47.3415 20.6573 47.38 20.0977 47.38 19.3583Z"/>
<path d="M14.9473 32.1835C14.9473 42.0135 23.4892 49.6383 30.8375 49.6383C34.5574 49.6383 38.4269 47.7839 41.4541 44.5508C44.6441 41.1437 46.4009 36.7807 46.4009 32.2649C46.4009 31.4617 46.334 30.6009 46.2082 29.7435H15.1321C15.01 30.5671 14.9473 31.3854 14.9473 32.1835Z"/>
<path d="M53.5727 49.1075C52.3603 49.1075 51.3738 50.094 51.3738 51.3064C51.3738 52.5188 52.3603 53.5053 53.5727 53.5053C54.7851 53.5053 55.7716 52.5188 55.7716 51.3064C55.7716 50.094 54.7851 49.1075 53.5727 49.1075Z"/>
<path d="M30.6742 53.3737C18.4289 53.3737 7.25292 57.896 1.67053 65H59.6791C54.1038 57.8962 42.927 53.3737 30.6742 53.3737Z"/>
<path d="M4.39773 6.08583C4.39773 4.87342 3.41128 3.88696 2.19887 3.88696C0.986458 3.88696 0 4.87342 0 6.08583C0 7.29824 0.986458 8.2847 2.19887 8.2847C3.41128 8.2847 4.39773 7.29824 4.39773 6.08583Z"/>
<path d="M60.48 18.0934H58.8119V16.4253C58.8119 16.0066 58.4724 15.6671 58.0537 15.6671C57.635 15.6671 57.2955 16.0066 57.2955 16.4253V18.0934H55.6274C55.2087 18.0934 54.8691 18.433 54.8691 18.8517C54.8691 19.2704 55.2087 19.6099 55.6274 19.6099H57.2955V21.278C57.2955 21.6967 57.635 22.0362 58.0537 22.0362C58.4724 22.0362 58.8119 21.6967 58.8119 21.278V19.6099H60.48C60.8987 19.6099 61.2383 19.2704 61.2383 18.8517C61.2383 18.433 60.8989 18.0934 60.48 18.0934Z"/>
<path d="M55.0892 34.6229C54.6705 34.6229 54.3309 34.9623 54.3309 35.3812V37.0493H52.6628C52.2441 37.0493 51.9046 37.3886 51.9046 37.8075C51.9046 38.2263 52.2441 38.5657 52.6628 38.5657H54.3309V40.2338C54.3309 40.6527 54.6705 40.9921 55.0892 40.9921C55.5079 40.9921 55.8474 40.6527 55.8474 40.2338V38.5657H57.5155C57.9342 38.5657 58.2737 38.2263 58.2737 37.8075C58.2737 37.3886 57.9342 37.0493 57.5155 37.0493H55.8474V35.3812C55.8474 34.9625 55.5079 34.6229 55.0892 34.6229Z"/>
<path d="M5.56995 50.3965C5.56995 50.8153 5.90948 51.1547 6.32818 51.1547H7.99628V52.8228C7.99628 53.2417 8.33582 53.581 8.75451 53.581C9.17321 53.581 9.51274 53.2417 9.51274 52.8228V51.1547H11.1808C11.5995 51.1547 11.9391 50.8153 11.9391 50.3965C11.9391 49.9776 11.5995 49.6382 11.1808 49.6382H9.51274V47.9701C9.51274 47.5513 9.17321 47.2119 8.75451 47.2119C8.33582 47.2119 7.99628 47.5513 7.99628 47.9701V49.6382H6.32818C5.90948 49.6382 5.56995 49.9776 5.56995 50.3965Z"/>
<path d="M3.14362 20.3682V22.0363C3.14362 22.455 3.48316 22.7945 3.90185 22.7945C4.32054 22.7945 4.66008 22.455 4.66008 22.0363V20.3682H6.32819C6.74688 20.3682 7.08642 20.0287 7.08642 19.61C7.08642 19.1913 6.74688 18.8518 6.32819 18.8518H4.66008V17.1836C4.66008 16.765 4.32054 16.4254 3.90185 16.4254C3.48316 16.4254 3.14362 16.765 3.14362 17.1836V18.8518H1.47551C1.05682 18.8518 0.717285 19.1913 0.717285 19.61C0.717285 20.0287 1.05682 20.3682 1.47551 20.3682H3.14362Z"/>
</g>
</svg>
