<svg xmlns="http://www.w3.org/2000/svg" xmlns:xlink="http://www.w3.org/1999/xlink" viewBox="0 0 10 10"><defs><path id="reuse-0" fill="#fff" d="M0 0h35v35H0z"/><path id="reuse-1" fill="#f9c201" d="M7.773.603c.272-.804 1.409-.804 1.68 0l1.447 4.27c.121.361.46.603.84.603h4.598c.868 0 1.22 1.119.508 1.615l-3.657 2.551a.887.887 0 0 0-.333 1.012l1.411 4.17c.275.811-.645 1.502-1.348 1.012l-3.798-2.649a.887.887 0 0 0-1.015 0l-3.798 2.65c-.703.49-1.623-.202-1.348-1.013l1.411-4.17a.887.887 0 0 0-.333-1.012L.381 7.092C-.33 6.594.021 5.475.89 5.475h4.598c.38 0 .719-.242.84-.602z"/><path id="reuse-2" fill="#d1d1d1" d="M7.773 16.603c.272-.804 1.409-.804 1.68 0l1.447 4.27c.121.361.46.604.84.604h4.598c.868 0 1.22 1.118.508 1.615l-3.657 2.55a.887.887 0 0 0-.333 1.012l1.411 4.17c.275.812-.645 1.503-1.348 1.013l-3.798-2.65a.887.887 0 0 0-1.015 0l-3.798 2.65c-.703.49-1.623-.201-1.348-1.013l1.411-4.17a.887.887 0 0 0-.333-1.012l-3.657-2.55c-.712-.497-.36-1.615.508-1.615h4.598c.38 0 .719-.243.84-.603z"/></defs><style><![CDATA[:root>svg{display:none}:root>svg:target{display:block}]]></style><svg xmlns="http://www.w3.org/2000/svg" id="assembling" fill="none" viewBox="0 0 59 59"><g fill="currentColor"><path d="M22.39 58.953h2.032V38.73l-2.031.87v19.353Zm10.157-17.265h7.11v5.078h-7.11v-5.078ZM23.406 32.2l-5.078-2.176v9.108l5.078-2.176V32.2Zm9.141 16.597h7.11v5.078h-7.11v-5.078ZM1.063 56.922a2.031 2.031 0 0 0 2.03 2.031h6.095a2.031 2.031 0 0 0 2.03-2.031V54.89H1.064v2.03Zm40.625-8.125h7.109v5.078h-7.11v-5.078Zm-31.199-7.109H5.125a7.547 7.547 0 0 1-.766-.043L1.367 52.859H9.87a6.324 6.324 0 0 1-.851-4.812l1.47-6.36Zm1.381 3.046h.364a2.575 2.575 0 0 0 2.546-2.157l.148-.89h-2.354l-.703 3.047Zm2.396-10.156h-2.032V29.5h-2.03v5.078H8.171V29.5H6.14v5.078H4.109v-4.976a5.078 5.078 0 0 0 1.016 10.054h11.172V29.5h-2.031v5.078Z"/><path d="M26.453 30.516h1.016a4.062 4.062 0 0 1 3.918 3.047h6.238v2.03h-6.238a4.063 4.063 0 0 1-3.918 3.048h-1.016v20.312h28.438V4.11H26.453v26.407ZM50.828 54.89a1.016 1.016 0 0 1-1.016 1.015h-18.28a1.016 1.016 0 0 1-1.016-1.015V40.67a1.016 1.016 0 0 1 1.015-1.015h18.282a1.016 1.016 0 0 1 1.015 1.016V54.89ZM30.516 18.328a10.156 10.156 0 0 1 20.312 0v9.14a1.016 1.016 0 0 1-1.016 1.016h-18.28a1.016 1.016 0 0 1-1.016-1.015v-9.14Z"/><path d="M39.656 10.273a8.133 8.133 0 0 0-7.04 7.04h7.04v-7.04ZM29.5 34.578a2.031 2.031 0 0 0-2.031-2.031h-2.032v4.062h2.032a2.031 2.031 0 0 0 2.031-2.03Zm12.188 7.11h7.109v5.078h-7.11v-5.078Zm-9.141-22.344h7.11v7.11h-7.11v-7.11Zm9.141 0h7.109v7.11h-7.11v-7.11Z"/><path d="M22.39.047v29.509l2.032.87V3.094a1.016 1.016 0 0 1 1.015-1.016h30.47a1.016 1.016 0 0 1 1.015 1.016v55.86h2.031V.046H22.391Z"/><path d="M41.688 10.273v7.04h7.039a8.134 8.134 0 0 0-7.04-7.04Z"/></g></svg><svg xmlns="http://www.w3.org/2000/svg" id="building" fill="none" viewBox="0 0 59 65"><g fill="currentColor"><path d="M57.485 15.997 30.069.237a1.769 1.769 0 0 0-1.769 0L.884 15.997A1.77 1.77 0 0 0 0 17.527V63.23A1.769 1.769 0 0 0 1.769 65h16.803V39.353a1.769 1.769 0 0 1 1.769-1.769h17.687a1.769 1.769 0 0 1 1.769 1.769V65H56.6a1.768 1.768 0 0 0 1.769-1.769V17.527a1.77 1.77 0 0 0-.884-1.53Z"/><path d="M22.11 41.122h14.15V65H22.11V41.122Z"/></g></svg><svg xmlns="http://www.w3.org/2000/svg" id="call-us" fill="none" viewBox="0 0 65 65"><path fill="currentColor" d="M35.16 2.717A2.713 2.713 0 0 1 37.873.004a27.158 27.158 0 0 1 27.128 27.128 2.713 2.713 0 0 1-5.426 0A21.727 21.727 0 0 0 37.873 5.43a2.713 2.713 0 0 1-2.713-2.713Zm2.713 13.564a10.851 10.851 0 0 1 10.851 10.851 2.713 2.713 0 1 0 5.426 0 16.293 16.293 0 0 0-16.277-16.277 2.713 2.713 0 1 0 0 5.426ZM62.54 45.414a8.41 8.41 0 0 1 0 11.876l-2.468 2.846C37.854 81.407-16.212 27.355 4.73 5.066l3.12-2.712a8.358 8.358 0 0 1 11.738.108c.084.084 5.11 6.614 5.11 6.614a8.41 8.41 0 0 1-.018 11.616l-3.142 3.95a34.672 34.672 0 0 0 18.803 18.84l3.974-3.16a8.41 8.41 0 0 1 11.613-.017s6.527 5.025 6.611 5.109Zm-3.732 3.944s-6.492-4.994-6.576-5.078a2.984 2.984 0 0 0-4.202 0c-.074.076-5.545 4.435-5.545 4.435a2.712 2.712 0 0 1-2.656.412 40.716 40.716 0 0 1-23.93-23.894 2.713 2.713 0 0 1 .394-2.713s4.36-5.474 4.433-5.544a2.984 2.984 0 0 0 0-4.203c-.085-.081-5.079-6.578-5.079-6.578a2.984 2.984 0 0 0-4.096.106L8.43 9.014C-6.874 27.417 39.978 71.67 56.106 56.43l2.471-2.848a3.041 3.041 0 0 0 .23-4.224Z"/></svg><svg xmlns="http://www.w3.org/2000/svg" id="cart" fill="none" viewBox="0 0 24 24"><path fill="currentColor" d="M18 6A6 6 0 1 0 6 6H0v15a3 3 0 0 0 3 3h18a3 3 0 0 0 3-3V6h-6Zm-6-4a4 4 0 0 1 4 4H8a4 4 0 0 1 4-4Z"/></svg><svg xmlns="http://www.w3.org/2000/svg" id="check" fill="none" viewBox="0 0 12 9"><path fill="#585858" d="M3.875 9c-.341 0-.668-.14-.908-.391L.222 5.759a.808.808 0 0 1 0-1.112.737.737 0 0 1 1.07 0L3.874 7.33l6.834-7.1a.737.737 0 0 1 1.07 0 .808.808 0 0 1 0 1.112L4.782 8.609c-.241.25-.568.391-.908.391Z"/></svg><svg xmlns="http://www.w3.org/2000/svg" id="check-round" fill="none" viewBox="0 0 31 30"><circle cx="15.5" cy="15" r="15" fill="#84A878"/><path fill="#fff" d="M30.139 9.366a1.227 1.227 0 0 0-1.746 0L16.922 20.983l-5.3-5.367a1.234 1.234 0 0 0-.877-.381 1.22 1.22 0 0 0-.883.366 1.252 1.252 0 0 0-.362.894 1.263 1.263 0 0 0 .377.889l6.172 6.25a1.226 1.226 0 0 0 1.745 0l12.345-12.5a1.258 1.258 0 0 0 0-1.768Z"/></svg><svg xmlns="http://www.w3.org/2000/svg" id="chevron-down" fill="none" viewBox="0 0 16 8"><path fill="#585858" d="M15.128.892 14.245 0l-6.18 6.245a.622.622 0 0 1-.884 0L1.013.01.128.904l6.168 6.233a1.867 1.867 0 0 0 2.653 0L15.13.892Z"/></svg><svg xmlns="http://www.w3.org/2000/svg" id="chevron-down-white" fill="none" viewBox="0 0 16 8"><path fill="#FFF" d="M15.128.892 14.245 0l-6.18 6.245a.622.622 0 0 1-.884 0L1.013.01.128.904l6.168 6.233a1.867 1.867 0 0 0 2.653 0L15.13.892Z"/></svg><svg xmlns="http://www.w3.org/2000/svg" id="chevron-right" fill="none" viewBox="0 0 21 39"><path fill="#EFD167" d="M2.57 39 .25 36.704l16.236-16.068a1.618 1.618 0 0 0 0-2.3L.279 2.3 2.6 0l16.206 16.037a4.853 4.853 0 0 1 1.443 3.45c0 1.293-.52 2.533-1.443 3.448L2.57 39Z"/></svg><svg xmlns="http://www.w3.org/2000/svg" id="clock" fill="none" viewBox="0 0 20 20"><path fill="currentColor" d="M10 0C4.486 0 0 4.486 0 10s4.486 10 10 10 10-4.486 10-10S15.514 0 10 0Zm4.756 15.172a.831.831 0 0 1-1.178 0L9.41 11.006a.83.83 0 0 1-.244-.59V5a.833.833 0 1 1 1.666 0v5.072l3.923 3.922a.833.833 0 0 1 0 1.178Z"/></svg><svg xmlns="http://www.w3.org/2000/svg" id="close" viewBox="0 0 14 14"><path fill="none" stroke="currentColor" stroke-width="1.1" d="m1 1 12 12m0-12L1 13"/></svg><svg xmlns="http://www.w3.org/2000/svg" id="consultation" fill="none" viewBox="0 0 78 65"><path fill="currentColor" d="M68.201 33.878V29.25a29.25 29.25 0 1 0-58.5 0v4.628A16.25 16.25 0 0 0 16.201 65a6.5 6.5 0 0 0 6.5-6.5V39a6.5 6.5 0 0 0-6.5-6.5v-3.25a22.75 22.75 0 0 1 45.5 0v3.25a6.5 6.5 0 0 0-6.5 6.5v19.5h-9.75a3.25 3.25 0 0 0 0 6.5h16.25a16.25 16.25 0 0 0 6.5-31.122Zm-52 24.622a9.75 9.75 0 1 1 0-19.5v19.5Zm45.5 0V39a9.75 9.75 0 1 1 0 19.5Z"/></svg><svg xmlns="http://www.w3.org/2000/svg" id="control" fill="none" viewBox="0 0 65 65"><g fill="currentColor"><path d="M54.09 14.202c0 .642.452-1.234-6.033 22.962-.36-1.394-.251 1.621-.251-24.843 1.861-2.834 6.285-1.497 6.285 1.88ZM45.709 3.984v28.519c-7.63-13.213-4.266-7.39-7.968-13.802V3.984A3.989 3.989 0 0 1 41.725 0a3.98 3.98 0 0 1 3.984 3.984Zm-4.606 24.733-3.093-3.092c-2.693-2.694-6.234-4.238-10.455-4.238L20.489 9.603a3.983 3.983 0 0 1 6.903-3.977c10.78 17.915 5.263 8.46 13.71 23.09Z"/><path d="M46.81 43.847a24.785 24.785 0 0 1-7.251 17.506 12.411 12.411 0 0 1-8.484 3.643c-.51 0 1.964.004-5.565.004-8.054 0-14.608-6.552-14.608-14.608V30.263a1.19 1.19 0 0 1 1.19-1.187c.102 0 .186-.006.312-.04.327.129 3.274.084 5.268 2.97 1.288 1.72 1.198 3.725 1.198 4.967a15.56 15.56 0 0 0 5.312 11.706c3.654 3.199 9.37.576 9.37-4.252 0-5.361.206-6.597-.728-8.715-.835-1.887-1.886-2.702-3.294-3.987-.48-.384.112-.273-9.735-.273-1.297-2.308-3.732-4.056-6.633-4.408a3.977 3.977 0 0 1 1.76-2.897c1.723-.84-.2-.663 12.858-.663 3.304 0 6.411 1.287 8.748 3.623l8.627 8.627.652 1.131c.612 2.246 1.003 4.314 1.003 6.982Z"/></g></svg><svg xmlns="http://www.w3.org/2000/svg" id="customer" fill="none" viewBox="0 0 65 65"><path fill="currentColor" d="M32.5 65A32.5 32.5 0 1 1 65 32.5 32.535 32.535 0 0 1 32.5 65Zm0-59.583A27.083 27.083 0 1 0 59.583 32.5 27.113 27.113 0 0 0 32.5 5.417Zm-10.833 32.5a2.708 2.708 0 0 0-2.608 3.48 14.896 14.896 0 0 0 13.46 10.061 14.812 14.812 0 0 0 13.45-10.061 2.765 2.765 0 0 0-2.609-3.48H21.667ZM16.25 27.083c0 2.709 2.424 2.709 5.417 2.709 2.992 0 5.416 0 5.416-2.709a5.416 5.416 0 1 0-10.833 0Zm21.667 0c0 2.709 2.424 2.709 5.416 2.709 2.993 0 5.417 0 5.417-2.709a5.417 5.417 0 0 0-10.833 0Z"/></svg><svg xmlns="http://www.w3.org/2000/svg" id="delivery-to-the-apartment" fill="none" viewBox="0 0 66 60"><path fill="currentColor" d="M63 41.95h-6.54a8.98 8.98 0 0 0 .54-2.996V23.972c0-2.384-.948-4.67-2.636-6.357A9.006 9.006 0 0 0 48 14.982H30a9.006 9.006 0 0 0-6.364 2.633A8.984 8.984 0 0 0 21 23.972v14.982a8.98 8.98 0 0 0 .54 2.997H18a3.002 3.002 0 0 1-3-2.997V8.99c0-2.384-.948-4.67-2.636-6.356A9.006 9.006 0 0 0 6 0H3a3.002 3.002 0 0 0-3 2.996 2.995 2.995 0 0 0 3 2.997h3a3.002 3.002 0 0 1 3 2.996v29.965a8.982 8.982 0 0 0 1.872 5.438 9 9 0 0 0 4.788 3.192 8.98 8.98 0 0 0 3.97 11.265 9.008 9.008 0 0 0 11.667-2.615 8.983 8.983 0 0 0 1.163-8.29h10.08a8.98 8.98 0 0 0 1.09 8.226A8.996 8.996 0 0 0 51 60a9.008 9.008 0 0 0 7.37-3.83 8.982 8.982 0 0 0 1.09-8.226H63a3.002 3.002 0 0 0 3-2.997 2.995 2.995 0 0 0-3-2.996ZM24 53.938a3.003 3.003 0 0 1-2.772-1.85A2.993 2.993 0 0 1 23.415 48a3.004 3.004 0 0 1 3.08 1.274 2.994 2.994 0 0 1-.374 3.784 3.002 3.002 0 0 1-2.121.878Zm6-11.986a3.002 3.002 0 0 1-3-2.997V23.972a2.995 2.995 0 0 1 3-2.997h18a3.001 3.001 0 0 1 3 2.997v14.982a2.995 2.995 0 0 1-3 2.997H30Zm21 11.986a3.003 3.003 0 0 1-2.772-1.85A2.993 2.993 0 0 1 50.415 48a3.003 3.003 0 0 1 3.08 1.274 2.994 2.994 0 0 1-.374 3.784 3.001 3.001 0 0 1-2.121.878Z"/></svg><svg xmlns="http://www.w3.org/2000/svg" id="delivery-truck" fill="none" viewBox="0 0 63 51"><path fill="currentColor" d="M51.813 50.606c-3.517 0-6.421-2.673-6.787-6.093h-25.02c-.366 3.42-3.271 6.093-6.787 6.093s-6.421-2.673-6.787-6.093H5.094A4.8 4.8 0 0 1 .3 39.719V25.5c0-.138.039-.266.104-.376l8.204-14.208a.732.732 0 0 1 .634-.366h15.435V1.125a.73.73 0 0 1 .731-.731h36.563a.73.73 0 0 1 .731.731v42.656a.73.73 0 0 1-.731.732H58.6c-.368 3.42-3.272 6.093-6.788 6.093Zm0-12.187a5.368 5.368 0 0 0-5.363 5.362 5.368 5.368 0 0 0 5.362 5.363 5.368 5.368 0 0 0 5.363-5.363 5.368 5.368 0 0 0-5.362-5.362Zm-38.594 0a5.368 5.368 0 0 0-5.363 5.362 5.368 5.368 0 0 0 5.363 5.363 5.368 5.368 0 0 0 5.362-5.363 5.368 5.368 0 0 0-5.362-5.362Zm45.38 4.631h2.639V1.856h-35.1V43.05h18.888a6.834 6.834 0 0 1 6.786-6.094A6.834 6.834 0 0 1 58.6 43.05Zm-38.594 0h4.67V26.231H1.762V39.72a3.336 3.336 0 0 0 3.332 3.331h1.338c.366-3.42 3.27-6.094 6.787-6.094 3.516 0 6.42 2.673 6.786 6.094Zm.039-18.281h4.631V12.013h-4.631v12.756Zm-17.745 0H18.58V12.013H9.664L2.299 24.768Zm19.045 5.525H17.28V28.83h4.063v1.463Zm36.562-4.063h-16.25V24.77h16.25v1.462Zm0-6.094H37.594v-1.462h20.312v1.462Zm0-6.093H33.531V12.58h24.375v1.463Zm0-6.094H29.47V6.487h28.437V7.95Z"/></svg><svg xmlns="http://www.w3.org/2000/svg" id="designer" fill="none" viewBox="0 0 66 65"><g fill="currentColor"><path d="m22.83 8.856 7.624 1.476a.61.61 0 0 0 .433-.067c.068-.041.19-.15.19-.312V8.125c0-.745.785-1.354 1.76-1.354.258 0 4.171.027 7.61 1.733C38.824 3.047 34.328 0 27.584 0c-7.502 0-12.228 3.765-13.298 10.44l.556-.324c2.302-1.341 5.213-1.788 7.99-1.26Z"/><path d="M41.125 13.542c0 9.71-6.08 17.604-13.542 17.604-7.353 0-13.365-7.665-13.541-17.184l2.898-1.68c1.449-.853 3.29-1.137 5.037-.799l7.624 1.476c1.205.23 2.465.027 3.44-.555.975-.596 1.544-1.49 1.544-2.45v-.326c1.95.271 5.01 1.043 6.526 3.29.014.204.014.42.014.624ZM19.458 59.583c0 .542.325 1.03.826 1.246l8.653 3.71v-9.912l-8.653 3.71a1.36 1.36 0 0 0-.826 1.246Zm12.188-5.416H56.02V65H31.646V54.167Zm28.437 0H58.73V65h1.354a5.415 5.415 0 0 0 5.417-5.417 5.424 5.424 0 0 0-5.417-5.416Z"/><path d="M54.667 48.75v2.708H30.292c-.542 0-1.057.109-1.598.325L19.2 55.846a4.074 4.074 0 0 0-2.451 3.737c0 1.625.962 3.088 2.465 3.738L23.155 65h-21.3C1.108 65 .5 64.39.5 63.646V48.777c0-8.166 5.918-15.004 13.772-15.898l4.035-.257a3.5 3.5 0 0 0 1.165-.27l.122-.042a3.79 3.79 0 0 0 .84-.514c2.152 1.313 4.576 2.058 7.15 2.058 2.559 0 4.97-.758 7.122-2.085.285.23.596.42.948.555.393.176.786.257 1.232.298l3.968.217a15.374 15.374 0 0 1 9.385 4.712l1.774 2.234a.813.813 0 0 0 .08.109 16.44 16.44 0 0 1 2.574 8.856Z"/></g></svg><svg xmlns="http://www.w3.org/2000/svg" id="developer" fill="none" viewBox="0 0 65 65"><g fill="currentColor"><path d="M41.987 20.395c.225.307.58.492.961.498a1.16 1.16 0 0 0 .905-1.886c-.205-.255-5.183-6.24-21.8-6.24-16.616 0-21.594 5.985-21.799 6.24a1.14 1.14 0 0 0 .178 1.598c.496.4 1.22.334 1.635-.148.188-.217 4.81-5.368 19.987-5.368 14.622 0 19.432 4.763 19.933 5.306Zm-1.497 5.141h1.296c.64-.001 1.16-.52 1.16-1.161a1.113 1.113 0 0 0-.334-.806 1.135 1.135 0 0 0-.826-.355h-1.17c.002.114.009.219.009.337a16.393 16.393 0 0 1-.1 1.772c-.008.072-.026.14-.035.213Z"/><path d="M9.528 7.053a18.101 18.101 0 0 0-4.568 6.232c3.674-1.512 9.154-2.839 17.094-2.839 7.939 0 13.419 1.326 17.093 2.838a18.091 18.091 0 0 0-4.567-6.231 3.476 3.476 0 0 1-6.723-1.25v-2.32c0-.087.02-.168.026-.254a18.718 18.718 0 0 0-2.347-.585v.838a3.482 3.482 0 0 1-6.965 0v-.838c-.794.144-1.578.34-2.346.585.006.086.025.167.025.253v2.322a3.476 3.476 0 0 1-6.722 1.249Z"/><path d="M11.607 3.482v2.322a1.16 1.16 0 1 0 2.322 0V3.482a1.16 1.16 0 1 0-2.322 0Zm18.572 0v2.322a1.16 1.16 0 1 0 2.321 0V3.482a1.16 1.16 0 1 0-2.321 0ZM13.348 30.179a6.413 6.413 0 0 0 3.791-.888 8.62 8.62 0 0 1 4.915-1.176 8.62 8.62 0 0 1 4.914 1.176 6.413 6.413 0 0 0 3.79.888 7.024 7.024 0 0 0 5.19-1.906 9.369 9.369 0 0 0 2.322-5.615c-.011-.159-.021-.318-.04-.468-.035-.425-.101-.812-.166-1.2-.038-.188-.095-.397-.145-.6-2.552-1.305-7.45-2.98-15.865-2.98-8.403 0-13.296 1.67-15.866 2.994-.051.206-.11.41-.15.623-.059.35-.124.738-.156 1.124-.02.169-.032.338-.044.508a9.369 9.369 0 0 0 2.322 5.614 7.024 7.024 0 0 0 5.188 1.906ZM20.893 1.16v2.322a1.16 1.16 0 0 0 2.321 0V1.161a1.16 1.16 0 1 0-2.321 0Zm15.089 46.148v14.599c.127-.19.271-.368.433-.53l6.799-6.799a12.856 12.856 0 0 0-7.232-7.27Zm-20.892-.879v8.125c0 .64.52 1.16 1.16 1.16h11.607c.641 0 1.16-.52 1.16-1.16v-8.125h-2.32v2.321a1.16 1.16 0 1 1-2.322 0v-8.275a19.97 19.97 0 0 1-2.321.15 20.42 20.42 0 0 1-2.322-.147v8.272a1.16 1.16 0 1 1-2.321 0v-2.321H15.09ZM2.333 23.214a1.12 1.12 0 0 0-.817.335 1.13 1.13 0 0 0-.355.826c0 .64.52 1.16 1.16 1.16h1.296c-.01-.069-.027-.136-.035-.205a16.4 16.4 0 0 1-.1-1.78c0-.117.007-.222.009-.336H2.333Zm35.723 39.805a1.161 1.161 0 0 0 1.642 1.64l14.026-14.026a1.159 1.159 0 0 1 1.498-.123 5.765 5.765 0 0 0 7.456-.622l1.642-1.642a2.322 2.322 0 0 0 0-3.284l-2.462 2.462a1.16 1.16 0 0 1-.821.34h-3.283c-.308 0-.603-.122-.82-.34l-1.642-1.642a1.16 1.16 0 0 1-.34-.82v-3.283c0-.308.122-.603.34-.82l2.462-2.463a2.326 2.326 0 0 0-3.283 0l-1.642 1.642a5.768 5.768 0 0 0-.624 7.458 1.16 1.16 0 0 1-.123 1.496L38.056 63.02ZM22.053 38.304A16.698 16.698 0 0 0 35.97 31.17a9.926 9.926 0 0 1-5.21 1.33 8.62 8.62 0 0 1-4.915-1.177 6.41 6.41 0 0 0-3.79-.887 6.412 6.412 0 0 0-3.792.887 8.619 8.619 0 0 1-4.914 1.177 9.927 9.927 0 0 1-5.216-1.331 16.594 16.594 0 0 0 13.921 7.135ZM1.16 65h6.965V47.31A12.75 12.75 0 0 0 0 59.197v4.643C.001 64.48.52 65 1.16 65Z"/><path d="M10.446 46.665V65h23.215V46.666c-.765-.15-1.542-.23-2.322-.237v8.125a3.487 3.487 0 0 1-3.482 3.482H16.25a3.487 3.487 0 0 1-3.482-3.482v-8.125a12.72 12.72 0 0 0-2.322.236Z"/></g></svg><svg xmlns="http://www.w3.org/2000/svg" id="discount" fill="none" viewBox="0 0 65 65"><path fill="currentColor" d="M62.353 32.5c1.73-1.898 2.448-4.53 1.832-7.232-.617-2.7-2.407-4.762-4.788-5.721.734-2.46.239-5.144-1.489-7.31-1.726-2.165-4.238-3.242-6.794-3.077-.407-2.535-2.017-4.738-4.512-5.941-2.494-1.2-5.222-1.089-7.459.176C37.678 1.29 35.272.001 32.501 0c-2.771 0-5.18 1.287-6.644 3.395-2.237-1.265-4.965-1.376-7.459-.176-2.495 1.203-4.105 3.406-4.512 5.94-2.556-.168-5.067.911-6.794 3.078-1.728 2.166-2.224 4.85-1.489 7.31-2.381.96-4.172 3.02-4.788 5.72-.616 2.702.103 5.335 1.832 7.233C.917 34.398.199 37.03.815 39.732c.617 2.701 2.407 4.762 4.788 5.721-.735 2.461-.239 5.144 1.489 7.31 1.726 2.165 4.24 3.238 6.794 3.078.407 2.534 2.017 4.737 4.512 5.94 2.495 1.201 5.223 1.089 7.459-.176C27.322 63.713 29.73 65 32.502 65c2.77-.001 5.176-1.289 6.641-3.395 2.236 1.264 4.963 1.376 7.459.176 2.495-1.203 4.105-3.406 4.512-5.94 2.553.158 5.067-.913 6.794-3.078 1.728-2.166 2.224-4.85 1.489-7.31 2.382-.96 4.172-3.02 4.788-5.72.617-2.702-.103-5.335-1.832-7.233Zm-46.917-9.954c0-3.92 3.19-7.11 7.11-7.11 3.92 0 7.11 3.19 7.11 7.11 0 3.92-3.19 7.11-7.11 7.11-3.92 0-7.11-3.19-7.11-7.11Zm8.618 21.416a2.126 2.126 0 0 1-1.508.625 2.132 2.132 0 0 1-1.508-3.641l19.908-19.908a2.132 2.132 0 1 1 3.016 3.016L24.054 43.962Zm18.4 5.602c-3.92 0-7.11-3.19-7.11-7.11 0-3.92 3.19-7.11 7.11-7.11 3.92 0 7.11 3.19 7.11 7.11 0 3.92-3.19 7.11-7.11 7.11Z"/></svg><svg xmlns="http://www.w3.org/2000/svg" id="document" fill="none" viewBox="0 0 49 65"><path fill="currentColor" d="M35.208.813a13.455 13.455 0 0 1 5.09 3.152l4.484 4.49a13.417 13.417 0 0 1 3.156 5.087h-12.73V.812ZM48.75 18.957v32.5A13.558 13.558 0 0 1 35.208 65H13.542A13.558 13.558 0 0 1 0 51.458V13.542A13.558 13.558 0 0 1 13.542 0h16.25v13.542a5.417 5.417 0 0 0 5.416 5.416H48.75ZM37.397 47.16a2.71 2.71 0 0 0-3.792-.601 12.42 12.42 0 0 1-6.156 2.191 3.648 3.648 0 0 1-2.34-.934 8.193 8.193 0 0 0-4.962-1.774 15.873 15.873 0 0 0-8.25 3.266 2.709 2.709 0 1 0 3.289 4.3 10.702 10.702 0 0 1 4.961-2.15c.667 0 1.005.212 1.896.813a8.808 8.808 0 0 0 5.417 1.896 17.508 17.508 0 0 0 9.36-3.231 2.708 2.708 0 0 0 .577-3.776Zm.52-9.243a2.708 2.708 0 0 0-2.709-2.709H13.542a2.708 2.708 0 0 0 0 5.417h21.666a2.708 2.708 0 0 0 2.709-2.708Zm0-10.834a2.708 2.708 0 0 0-2.709-2.708H13.542a2.708 2.708 0 1 0 0 5.417h21.666a2.708 2.708 0 0 0 2.709-2.709Z"/></svg><svg xmlns="http://www.w3.org/2000/svg" id="documents" fill="none" viewBox="0 0 56 65"><g fill="currentColor"><path d="M43.52 6.022H5.51a4.69 4.69 0 0 0-4.583 4.682v49.614A4.688 4.688 0 0 0 5.609 65h37.91a4.687 4.687 0 0 0 4.682-4.682V10.704a4.688 4.688 0 0 0-4.682-4.682ZM9.786 14.566H39.34a1.17 1.17 0 0 1 0 2.34H9.787a1.17 1.17 0 1 1 0-2.34Zm0 11.54H39.34a1.17 1.17 0 1 1 0 2.341H9.787a1.17 1.17 0 1 1 0-2.34Zm17.85 13.753H9.786a1.17 1.17 0 1 1 0-2.34h17.85a1.17 1.17 0 1 1 0 2.34Zm17.638 18.704a3.418 3.418 0 0 1-1.352 2.762 3.452 3.452 0 0 1-2.16.749h-9.1a1.232 1.232 0 0 1-1.17-1.17 1.17 1.17 0 0 1 1.17-1.17h9.1a1.17 1.17 0 0 0 1.17-1.171v-9.346a1.17 1.17 0 0 1 2.342 0v9.346Z"/><path d="M50.448 0H12.532a4.699 4.699 0 0 0-4.576 3.681h35.563a7.029 7.029 0 0 1 7.023 7.023v48.28a4.688 4.688 0 0 0 4.588-4.682V4.682A4.688 4.688 0 0 0 50.448 0Z"/></g></svg><svg xmlns="http://www.w3.org/2000/svg" id="dollar" fill="none" viewBox="0 0 12 22"><path fill="currentColor" d="M7.656 3.667c.697 0 1.366.297 1.859.824.493.527.77 1.242.77 1.988a.95.95 0 0 0 .252.648.83.83 0 0 0 .606.269.83.83 0 0 0 .606-.269A.95.95 0 0 0 12 6.48v-.112a4.808 4.808 0 0 0-1.31-3.212 4.21 4.21 0 0 0-3.034-1.322h-.799V.917a.95.95 0 0 0-.25-.649A.83.83 0 0 0 6 0a.83.83 0 0 0-.606.268.95.95 0 0 0-.251.649v.916h-.799a4.18 4.18 0 0 0-2.812 1.11A4.734 4.734 0 0 0 .06 5.736a4.916 4.916 0 0 0 .57 3.147 4.411 4.411 0 0 0 2.342 2.002l2.17.775v6.673h-.799a2.549 2.549 0 0 1-1.859-.824 2.917 2.917 0 0 1-.77-1.988.95.95 0 0 0-.252-.648.83.83 0 0 0-.606-.269.83.83 0 0 0-.606.269.95.95 0 0 0-.251.648v.112a4.808 4.808 0 0 0 1.31 3.212 4.21 4.21 0 0 0 3.034 1.322h.799v.916c0 .243.09.477.25.649A.83.83 0 0 0 6 22a.83.83 0 0 0 .606-.268.95.95 0 0 0 .251-.649v-.916h.799a4.18 4.18 0 0 0 2.813-1.11 4.733 4.733 0 0 0 1.47-2.793 4.917 4.917 0 0 0-.57-3.147 4.411 4.411 0 0 0-2.342-2.002l-2.17-.775V3.667h.799Zm.831 9.186a2.67 2.67 0 0 1 1.42 1.212c.323.571.446 1.247.346 1.906-.1.66-.417 1.26-.892 1.692a2.53 2.53 0 0 1-1.705.67h-.799v-6.062l1.63.582ZM5.143 9.729l-1.629-.582a2.67 2.67 0 0 1-1.419-1.211A2.976 2.976 0 0 1 1.75 6.03c.1-.66.416-1.26.891-1.692a2.53 2.53 0 0 1 1.704-.671h.799v6.062Z"/></svg><svg xmlns="http://www.w3.org/2000/svg" id="dooors-bath-and-sauna" fill="currentColor" viewBox="0 0 48 48"><path fill-rule="evenodd" d="M45 46H0v-1h45v1ZM21 4H1V3h20v1ZM1 45V4h1v41H1Zm19 0V4h1v41h-1Zm24-8H25v-1h19v1Zm0 4H25v-1h19v1Zm-20 0v-5h1v5h-1Zm20 0v-5h1v5h-1Zm-3 4v-4h1v4h-1Zm-3 0v-4h1v4h-1Zm-8 0v-4h1v4h-1Zm-3 0v-4h1v4h-1Z" clip-rule="evenodd"/><path d="M42 21a2 2 0 1 1-4 0 2 2 0 0 1 4 0Z"/><path fill-rule="evenodd" d="M40 22a1 1 0 1 0 0-2 1 1 0 0 0 0 2Zm0 1a2 2 0 1 0 0-4 2 2 0 0 0 0 4Z" clip-rule="evenodd"/><path fill-rule="evenodd" d="M39.2 22V6h1.5v16h-1.5ZM37 17V4h1v13h-1Zm5 0V4h1v13h-1Zm1-13h-6V3h6v1ZM14 24h3v1h-3v-1Zm12.277-.96c-.078.033-.134.092-.237.249a2.292 2.292 0 0 1-.308.363 2.18 2.18 0 0 0-.501.608 1.54 1.54 0 0 0-.225.74c-.045.602.2 1.135.735 1.604.303.265.46.598.459.968-.002.388-.144.675-.486.986-.452.41-.672.822-.709 1.329-.043.602.175 1.082.727 1.598.34.319.47.594.467.987-.004.36-.132.638-.43.927a.732.732 0 0 0-.15.189c-.073.24.215.473.492.397.131-.036.386-.262.541-.48.362-.508.446-1.12.23-1.675-.124-.32-.28-.531-.636-.863-.432-.404-.563-.906-.363-1.4.09-.221.165-.323.417-.563.386-.368.566-.663.661-1.082a1.777 1.777 0 0 0-.252-1.316c-.126-.196-.215-.297-.469-.53-.27-.25-.456-.63-.458-.938a1.389 1.389 0 0 1 .256-.747 3.57 3.57 0 0 1 .288-.302c.236-.224.418-.46.49-.636.077-.188-.016-.362-.229-.429a.395.395 0 0 0-.31.017Zm3 0c-.078.033-.134.092-.237.249a2.292 2.292 0 0 1-.308.363 2.18 2.18 0 0 0-.501.608 1.54 1.54 0 0 0-.225.74c-.045.602.2 1.135.735 1.604.303.265.46.598.459.968-.002.388-.144.675-.486.986-.452.41-.672.822-.709 1.329-.043.602.175 1.082.727 1.598.34.319.47.594.467.987-.004.36-.132.638-.43.927a.732.732 0 0 0-.15.189c-.073.24.215.473.492.397.131-.036.386-.262.541-.48.362-.508.446-1.12.23-1.675-.124-.32-.28-.531-.636-.863-.432-.404-.563-.906-.363-1.4.09-.221.165-.323.417-.563.386-.368.566-.663.661-1.082a1.777 1.777 0 0 0-.252-1.316c-.126-.196-.215-.297-.469-.53-.27-.25-.456-.63-.458-.938a1.389 1.389 0 0 1 .256-.747 3.57 3.57 0 0 1 .288-.302c.236-.224.418-.46.49-.636.077-.188-.016-.362-.229-.429a.395.395 0 0 0-.31.017Zm3 0c-.078.033-.134.092-.237.249a2.292 2.292 0 0 1-.308.363 2.18 2.18 0 0 0-.501.608 1.54 1.54 0 0 0-.225.74c-.045.602.2 1.135.735 1.604.303.265.46.598.459.968-.002.388-.144.675-.486.986-.452.41-.672.822-.709 1.329-.043.602.175 1.082.727 1.598.34.319.47.594.467.987-.004.36-.132.638-.43.927a.732.732 0 0 0-.15.189c-.073.24.215.473.492.397.131-.036.386-.262.541-.48.362-.508.446-1.12.23-1.675-.124-.32-.28-.531-.636-.863-.432-.404-.563-.906-.363-1.4.09-.221.165-.323.417-.563.386-.368.566-.663.661-1.082a1.777 1.777 0 0 0-.252-1.316c-.126-.196-.215-.297-.469-.53-.27-.25-.456-.63-.458-.938a1.389 1.389 0 0 1 .256-.747 3.57 3.57 0 0 1 .288-.302c.236-.224.418-.46.49-.636.077-.188-.016-.362-.229-.429a.395.395 0 0 0-.31.017Z" clip-rule="evenodd"/><path fill-rule="evenodd" d="M38 16.416A5.001 5.001 0 0 0 40 26a5 5 0 0 0 2-9.584v1.12a4 4 0 1 1-4 0v-1.12Z" clip-rule="evenodd"/></svg><svg xmlns="http://www.w3.org/2000/svg" xml:space="preserve" id="doorhandle" viewBox="0 0 222.02 222.02"><path fill="currentColor" d="M58.079 221.8c-8.543-1.15-18.257-5.331-22.286-9.592-1.88-1.988-3.42-4.695-4.564-8.026-.647-1.883-.666-4.643-.666-93.133V19.856l.846-2.585c1.006-3.069 2.932-6.17 5.156-8.302 2.045-1.96 8.118-5.127 12.893-6.725C54.698.491 59.268-.19 64.253.04c6.822.313 11.378 1.535 18.344 4.918 3.696 1.795 4.783 2.518 6.712 4.463 1.267 1.277 2.81 3.288 3.429 4.467 2.221 4.232 2.206 4.04 2.206 28.561v22.268l-2.028-.142c-1.116-.079-2.223-.204-2.46-.279-.332-.105-.453-5.262-.529-22.464l-.098-22.328-1.117-2.356c-1.754-3.703-3.399-5.217-8.347-7.68C68.957 3.79 58.65 3.472 47.22 8.445c-5.778 2.513-8.38 4.65-10.236 8.406l-1.13 2.286v183.81l.987 2.008c1.678 3.416 3.636 5.246 7.982 7.456 6.35 3.229 11.694 4.562 18.196 4.538 6.117-.023 12.407-1.664 18.303-4.774 3.946-2.082 5.601-3.662 7.178-6.852l1.33-2.692.185-115.89 1.142-.175a668.8 668.8 0 0 0 2.466-.384l1.323-.21-.004 57.96c-.005 63.584.133 59.449-2.141 64.069-1.745 3.543-4.678 6.251-9.32 8.607-7 3.551-12.566 5.095-19.398 5.38-1.943.081-4.644-.002-6.002-.185zm.617-7.764c-3.653-.475-7.458-1.672-11.562-3.639-4.757-2.28-6.168-3.478-7.657-6.502l-1.154-2.344V20.561l1.018-2.204c1.332-2.884 3.251-4.604 7.326-6.567 11.404-5.494 21.23-5.43 32.686.214 4.172 2.055 5.967 3.782 7.112 6.843.693 1.851.718 2.662.718 23.6 0 17.113-.093 21.682-.441 21.678-.243-.003-.799-.1-1.235-.218l-.794-.213V20.876l-.884-1.773c-1.121-2.25-1.852-2.917-5.113-4.667-3.64-1.952-8.416-3.482-12.47-3.994-5.858-.74-12.517.552-18.607 3.611-3.439 1.727-4.716 2.823-5.894 5.055l-.953 1.806v179.92l.811 1.76c1.053 2.285 1.866 3.115 4.462 4.563 8.512 4.746 17.498 5.838 26.025 3.163 4.015-1.26 9.618-4.178 10.67-5.557 1.872-2.453 1.764.817 1.953-59.471l.177-56.248 1.146-.67 1.147-.67v113.92l-1.25 2.499c-1.55 3.098-2.437 3.852-7.356 6.247-4.35 2.118-7.723 3.137-12.199 3.684-3.333.408-4.478.406-7.682-.01zm1.753-8.677c-2.243-1.105-3.43-4.012-2.56-6.27l.399-1.035 3.518 3.505c3.142 3.13 3.454 3.552 2.915 3.946-.832.608-2.884.538-4.272-.146zm3.286-5.399c-1.927-1.934-3.405-3.615-3.285-3.735.565-.565 2.734-.74 3.957-.32 1.748.602 2.532 1.37 3.212 3.152.465 1.217.497 1.762.176 2.956-.217.805-.431 1.463-.476 1.463-.044 0-1.657-1.582-3.584-3.516zm-6.461-37.25c-1.661-1.164-1.84-2.106-1.84-9.64 0-3.878.15-7.45.336-7.937s.917-1.529 1.626-2.313l1.29-1.427-1.142-1.3c-3.283-3.74-2.738-8.645 1.26-11.35 1.64-1.11 1.893-1.173 4.25-1.054 3.18.16 4.984 1.284 6.302 3.93 1.462 2.934 1.004 5.803-1.379 8.625l-.97 1.15 1.136 1.294c1.958 2.23 2.107 2.958 2.107 10.341 0 9.983-.185 10.231-7.665 10.231-3.53 0-4.698-.121-5.312-.55zm.981-64.84c-5.794-1.578-10.62-6.505-12.16-12.412-2.26-8.679 2.883-17.904 11.543-20.704 3.101-1.003 8.852-.896 21.783.406 17.792 1.79 21.14 1.964 37.394 1.944 24.381-.03 29.19-.808 48.05-7.773 10.477-3.87 12.842-4.477 16.808-4.319 2.346.094 3.42.314 4.64.948 6.681 3.473 6.867 10.453.508 19.107-4.811 6.548-13.173 12.409-20.614 14.448-3.528.966-11.473 1.566-16.989 1.282-4.867-.251-9.255-.86-21.642-3.002-9.53-1.648-17.88-2.643-27.164-3.236-5.879-.375-7.04-.359-9.443.134-3.88.795-7.132 2.503-12.605 6.62-5.685 4.277-7.56 5.404-10.532 6.335-2.576.807-7.05.91-9.576.222zm9.878-5.729c1.262-.594 3.993-2.376 6.07-3.96 8.99-6.854 13.758-8.882 20.876-8.882 7.51 0 22.873 1.715 36.355 4.058 14.492 2.52 18.936 2.902 26.627 2.294 5.803-.458 8.494-1.174 12.64-3.362 8.507-4.488 15.616-12.829 15.702-18.423.055-3.574-3.98-4.9-9.909-3.257-1.415.393-5.619 1.843-9.341 3.224-20.336 7.543-28.6 8.755-56.51 8.292-12.54-.208-17.796-.547-33.447-2.156-15.96-1.642-18.978-1.276-23.051 2.793-1.832 1.831-2.285 2.541-2.91 4.566-.886 2.867-.933 4.726-.182 7.253.704 2.372 1.771 4.07 3.593 5.715 2.615 2.363 4.813 3.138 8.548 3.014 2.1-.069 3.12-.31 4.94-1.168zm-8.006-66.428c-2.11-1.325-3.078-4.006-2.237-6.19l.4-1.039 3.583 3.583c1.97 1.97 3.47 3.695 3.334 3.832s-1.083.31-2.101.386c-1.414.104-2.118-.03-2.98-.572zm3.585-5.343c-3.852-3.87-3.92-4.203-.87-4.211 2.171-.006 3.751 1.023 4.634 3.018.677 1.53.673 3.022-.012 4.29-.154.285-1.458-.791-3.752-3.097z"/></svg><svg xmlns="http://www.w3.org/2000/svg" id="doors-double" fill="none" stroke="currentColor" viewBox="0 0 43 43"><circle cx="24.9" cy="27.8" r="1.2"/><circle cx="18.1" cy="27.8" r="1.2"/><path d="M24.9 27.8h3.5m-10.3 0h-3.5m-7 11.7V5.8h27.8v33.7"/><path d="M5.3 39.5v-36h32.4v36M3 39.5h37M21.5 5.8v33.7"/><path d="M24.7 8.8H32V23h-7.3zM11 8.8h7.3V23H11z"/></svg><svg xmlns="http://www.w3.org/2000/svg" id="doors-ecoveneer" viewBox="0 0 48 48"><path fill="currentColor" fill-rule="evenodd" d="M39 1H9V0h30v1ZM9 47V1h1v46H9Z" clip-rule="evenodd"/><path fill="currentColor" fill-rule="evenodd" d="M38 47V0h1v47h-1Zm10 1H0v-1h48v1ZM32 8H15V7h17v1Zm0 6H15v-1h17v1Zm-17-1V8h1v5h-1Zm16 0V8h1v5h-1Zm1 4H15v-1h17v1Zm0 6H15v-1h17v1Zm-17-1v-5h1v5h-1Zm16 0v-5h1v5h-1Zm1 7H15v-1h17v1Zm0 6H15v-1h17v1Zm-17-1v-5h1v5h-1Zm16 0v-5h1v5h-1Zm1 4H15v-1h17v1Zm0 6H15v-1h17v1Zm-17-1v-5h1v5h-1Zm16 0v-5h1v5h-1Zm5-17h-3v-1h3v1Z" clip-rule="evenodd"/></svg><svg xmlns="http://www.w3.org/2000/svg" id="doors-enamel" viewBox="0 0 48 48"><path fill="currentColor" fill-rule="evenodd" d="M47 46H0v-1h47v1Zm-35-1V2h1v43h-1Z" clip-rule="evenodd"/><path fill="currentColor" fill-rule="evenodd" d="M36 3H12V2h24v1Z" clip-rule="evenodd"/><path fill="currentColor" fill-rule="evenodd" d="M35 45V2h1v43h-1ZM21 27h-5v-1h5v1Z" clip-rule="evenodd"/></svg><svg xmlns="http://www.w3.org/2000/svg" id="doors-entrance" fill="none" stroke="#000" viewBox="0 0 43 43"><g stroke="currentColor"><path d="M10 40.5v-38h23v38"/><path d="M30.3 40.5V5.2H12.7v35.3"/><circle cx="21.5" cy="15.9" r="1.2"/><circle cx="27.5" cy="24.1" r="1.2"/><circle cx="27.1" cy="28.9" r="1.2"/><path d="M27.5 24.1h-3.6m16.6 16.4h-38"/></g></svg><svg xmlns="http://www.w3.org/2000/svg" id="doors-fittings" fill="none" stroke="#000" viewBox="0 0 43 43"><g stroke="currentColor"><path d="M19.3 19.3c-1-4.1-4.8-7.2-9.2-7.2-5.2 0-9.4 4.2-9.4 9.4s4.2 9.4 9.4 9.4c4.6 0 8.4-3.2 9.2-7.5"/><path d="M16.1 19.2c-.9-2.4-3.3-4.1-6-4.1-3.5 0-6.4 2.9-6.4 6.4s2.9 6.4 6.4 6.4c2.5 0 4.7-1.5 5.8-3.6"/><path d="M10.2 17.9c-2 0-3.6 1.6-3.6 3.6s1.6 3.6 3.6 3.6"/><path d="M10.2 17.9c2.8 0 3.2 1.4 8.3 1.4 5.7 0 13.7-3.4 20.5-3.4 3.4 0 3.5 3.6 3.1 6-.1.4-.3.8-.7.9-.4.2-.8.1-1.2-.1-1.3-.9-3.5-2-7.1-2-7.7 0-16.5 4.4-23 4.4m-1.7-3.6s0 1.7 1.8 1.7"/></g></svg><svg xmlns="http://www.w3.org/2000/svg" id="doors-glass" viewBox="0 0 43 43"><g fill="currentColor"><path d="M7.7.4c0-.2.2-.4.4-.4h26.2c.2 0 .4.2.4.4v42.1c0 .2-.2.4-.4.4s-.4-.2-.4-.4V.9H8.6v41.7c0 .2-.2.4-.4.4s-.4-.2-.4-.4V.4z"/><path d="M31.4 12.9c.2 0 .4.2.4.4v18.5c0 .2-.2.4-.4.4s-.4-.2-.4-.4V13.4c0-.3.2-.5.4-.5zm0 23.3c.2 0 .4.2.4.4v5.9c0 .2-.2.4-.4.4s-.4-.2-.4-.4v-5.9c0-.2.2-.4.4-.4zM10.6 2.8c0-.2.2-.4.4-.4h20.4c.2 0 .4.2.4.4v5.7c0 .2-.2.4-.4.4-.2.1-.4-.1-.4-.3V3.3H11.4v39.3c0 .2-.2.4-.4.4s-.4-.2-.4-.4V2.8z"/><path d="M14 25.8c-.4.1-.7.4-.6.8.1.4.4.7.8.6.4-.1.7-.4.6-.8-.1-.4-.4-.7-.8-.6zm-1.5 1c-.1-.9.4-1.7 1.3-1.8.9-.1 1.7.4 1.8 1.3.1.9-.4 1.7-1.3 1.8-.8.1-1.6-.5-1.8-1.3zm1.6-7.1c-.6 0-1.1.5-1.1 1.1 0 .6.5 1.1 1.1 1.1s1.1-.5 1.1-1.1c-.1-.7-.5-1.1-1.1-1.1zm-2 1c0-1.1.9-1.9 1.9-1.9s1.9.9 1.9 1.9c0 1.1-.9 1.9-1.9 1.9s-1.9-.8-1.9-1.9z"/><path d="M13.6 20.7c0-.2.2-.4.4-.4h4.4c.2 0 .4.2.4.4s-.2.4-.4.4H14c-.2.1-.4-.1-.4-.4zM0 42.6c0-.2.2-.4.4-.4h42.1c.2 0 .4.2.4.4s-.2.4-.4.4H.4c-.2 0-.4-.2-.4-.4zm30.1-34c0-.2.2-.4.4-.4h1.9c.2 0 .4.2.4.4v4.8c0 .2-.2.4-.4.4h-1.9c-.2 0-.4-.2-.4-.4V8.6zm.8.4v3.9h1V9h-1zm-.8 22.9c0-.2.2-.4.4-.4h1.9c.2 0 .4.2.4.4v4.8c0 .2-.2.4-.4.4h-1.9c-.2 0-.4-.2-.4-.4v-4.8zm.8.4v3.9h1v-3.9h-1zM10.6 16c0-.2.2-.4.4-.4h5.8c.2 0 .4.2.4.4v3.2c0 .2-.2.4-.4.4s-.4-.2-.4-.4v-2.8H11c-.2.1-.4-.1-.4-.4zm6.2 6.3c.2 0 .4.2.4.4v7.2c0 .2-.2.4-.4.4H11c-.2 0-.4-.2-.4-.4s.2-.4.4-.4h5.4v-6.8c0-.2.2-.4.4-.4z"/></g></svg><svg xmlns="http://www.w3.org/2000/svg" id="doors-hidden" viewBox="0 0 43 43"><g fill="currentColor"><path d="M9.8.4c0-.2.2-.4.5-.4h22.5c.2 0 .4.2.4.4v42.1c0 .2-.2.4-.4.4s-.4-.2-.4-.4V.9H10.7v41.7c0 .2-.2.4-.4.4s-.4-.2-.4-.4V.4z"/><path d="M13.9 26.4c-.4 0-.7.3-.7.7s.3.7.7.7.7-.3.7-.7-.3-.7-.7-.7zm-1.6.7c0-.9.7-1.6 1.6-1.6.9 0 1.6.7 1.6 1.6s-.7 1.6-1.6 1.6c-.9 0-1.6-.8-1.6-1.6zM0 42.6c0-.2.2-.4.4-.4h42.1c.2 0 .4.2.4.4s-.2.4-.4.4H.4c-.2 0-.4-.2-.4-.4zM0 40c0-.2.2-.4.4-.4h42.1c.2 0 .4.2.4.4s-.2.4-.4.4H.4c-.2 0-.4-.2-.4-.4zm12.1-19.3c0-.2.2-.4.4-.4h2.7c.2 0 .4.2.4.4v3.4c0 .2-.2.4-.4.4h-2.7c-.2 0-.4-.2-.4-.4v-3.4zm.9.5v2.6h1.8v-2.6H13z"/><path d="M13.5 22.5c0-.2.2-.4.4-.4h3.9c.2 0 .4.2.4.4s-.2.4-.4.4h-3.9c-.3 0-.4-.2-.4-.4z"/></g></svg><svg xmlns="http://www.w3.org/2000/svg" id="doors-interior" fill="none" stroke="#000" viewBox="0 0 43 43"><g stroke="currentColor"><path d="M33 40.5v-38H10v38"/><path d="M12.5 40.5V4.7h18v35.8"/><circle cx="14.8" cy="25.5" r="1.2"/><path d="M14.8 25.5h3.6m-15.9 15h38M15.7 23.3v-13s1.4-2.6 6-2.6 6 2.6 6 2.6v18.2h-12v-1.3m-.2 4.2h12.1v5H15.5zm6.2-23.7v20.8m-6-13.2h12.1M15.7 22h12.1"/></g></svg><svg xmlns="http://www.w3.org/2000/svg" id="doors-sliding" viewBox="0 0 43 43"><g fill="currentColor"><path d="M20.7 35.2H31c.3 0 .5-.2.5-.5V10.3c0-.3-.2-.5-.5-.5H20.7c-.3 0-.5.2-.5.5v24.5c0 .2.3.4.5.4zm9.8-6.9v.8h-9.3v-.8h9.3zm-9.3-1v-9.8h9.3v9.8h-9.3zm9.3-10.7h-9.3v-.8h9.3v.8zm-9.3 17.7v-4.2h9.3v4.2h-9.3zm9.3-23.6v4.1h-9.3v-4.1h9.3z"/><path d="M39 4.3H5.5c-.3 0-.5.2-.5.5v2.9c0 .3.2.5.5.5h1.1v29.6H4c-.3 0-.5.2-.5.5s.2.5.5.5h33.5c.3 0 .5-.2.5-.5s-.2-.5-.5-.5H34V8.2h5c.3 0 .5-.2.5-.5V4.8c0-.3-.2-.5-.5-.5zM7.5 8.2h1.4v29.6H7.5V8.2zm10.2 0v29.6H9.9V8.2h7.8zM33 37.8H18.7V8.2H33v29.6zm5.5-30.6H6v-2h32.5v2z"/></g></svg><svg xmlns="http://www.w3.org/2000/svg" id="doors-solid-wood" viewBox="0 0 48 48"><path fill="currentColor" fill-rule="evenodd" d="M48 47H0v-1h48v1ZM8 46V1h1v45H8Zm31 0V1h1v45h-1Z" clip-rule="evenodd"/><path fill="currentColor" fill-rule="evenodd" d="M40 2H8V1h32v1ZM23 7H13V6h10v1Zm0 16H13v-1h10v1Z" clip-rule="evenodd"/><path fill="currentColor" fill-rule="evenodd" d="M13 23V6h1v17h-1Zm9 0V6h1v17h-1ZM35 7H25V6h10v1Zm0 16H25v-1h10v1Z" clip-rule="evenodd"/><path fill="currentColor" fill-rule="evenodd" d="M25 23V6h1v17h-1Zm9 0V6h1v17h-1Zm1 6H25v-1h10v1Zm0 15H25v-1h10v1Z" clip-rule="evenodd"/><path fill="currentColor" fill-rule="evenodd" d="M25 44V28h1v16h-1Zm9 0V28h1v16h-1ZM23 29H13v-1h10v1Zm0 15H13v-1h10v1Z" clip-rule="evenodd"/><path fill="currentColor" fill-rule="evenodd" d="M13 44V28h1v16h-1Zm9 0V28h1v16h-1Zm14-18h-4v-1h4v1Z" clip-rule="evenodd"/></svg><svg xmlns="http://www.w3.org/2000/svg" id="email" fill="none" viewBox="0 0 20 20"><path fill="currentColor" d="M12.5 16.667H4.167A4.172 4.172 0 0 1 0 12.5V4.167A4.172 4.172 0 0 1 4.167 0H12.5a4.172 4.172 0 0 1 4.167 4.167V12.5a4.172 4.172 0 0 1-4.167 4.167Zm7.5-.834V5a.833.833 0 1 0-1.667 0v10.833a2.5 2.5 0 0 1-2.5 2.5H5A.833.833 0 1 0 5 20h10.833A4.172 4.172 0 0 0 20 15.833Z"/></svg><svg xmlns="http://www.w3.org/2000/svg" id="equals" fill="none" viewBox="0 0 21 12"><path fill="currentColor" d="M.6.488h19.68V1.4H.6V.488ZM.6 11h19.68v.912H.6V11Z"/></svg><svg xmlns="http://www.w3.org/2000/svg" id="facebook" fill="none" viewBox="0 0 35 35"><g clip-path="url(#bka)"><path fill="#3C5A9A" d="M17.5 35C27.165 35 35 27.165 35 17.5S27.165 0 17.5 0 0 7.835 0 17.5 7.835 35 17.5 35Z"/><path fill="#fff" d="M23.19 5.372h-3.876c-2.301 0-4.86.967-4.86 4.302.011 1.162 0 2.275 0 3.527h-2.661v4.235h2.744v12.192h5.041V17.356h3.328l.301-4.167h-3.716s.009-1.853 0-2.392c0-1.317 1.372-1.242 1.454-1.242.653 0 1.921.002 2.247 0V5.372h-.002Z"/></g><defs><clipPath id="bka"><use xlink:href="#reuse-0"/></clipPath></defs></svg><svg xmlns="http://www.w3.org/2000/svg" id="favicon" fill="none" viewBox="0 0 464.27 464.27"><path stroke="#2b2b2b" stroke-width="10" d="M110.39 5h243.5v454.27h-243.5z"/><path fill="#86be6b" fill-opacity=".46" d="M177.3 23.045h112.39v415.35H177.3z"/><path fill="#2b2b2b" d="M108.89 228.28h107.17v10H108.89zm122.16 0h-9.773v10h9.773z"/></svg><svg xmlns="http://www.w3.org/2000/svg" id="filler-background" fill="none" viewBox="0 0 1920 579"><mask id="bma" width="1920" height="579" x="0" y="0" maskUnits="userSpaceOnUse"><path fill="#fff" d="M0 0h1920v579H0z"/></mask><g fill="#84A878" mask="url(#bma)"><circle cx="1558.5" cy="541.5" r="97.5" fill-opacity=".07"/><circle cx="145" cy="453" r="131" fill-opacity=".04"/><circle cx="501.5" cy="150.5" r="65.5" fill-opacity=".07"/><circle cx="1895.5" cy="248.5" r="65.5" fill-opacity=".07"/><circle cx="1357.5" cy="166.5" r="31.5" fill-opacity=".16"/><circle cx="5.5" cy="53.5" r="31.5" fill-opacity=".16"/></g></svg><svg xmlns="http://www.w3.org/2000/svg" id="filter" fill="none" viewBox="0 0 14 15"><path fill="currentColor" d="M14 .908H0l5.334 5.945v8.055l3.332-1.823V6.853L14 .908Z"/></svg><svg xmlns="http://www.w3.org/2000/svg" id="form-block-background" fill="none" viewBox="0 0 1816 1668"><circle cx="1744.5" cy="1026.5" r="62.5" fill="#84A878" fill-opacity=".02"/><circle cx="1545.5" cy="526.5" r="97.5" fill="#84A878" fill-opacity=".07"/><ellipse cx="192.346" cy="193.158" fill="#84A878" fill-opacity=".02" rx="192.346" ry="193.158" transform="matrix(-1 0 0 1 558.693 986)"/><circle cx="131" cy="368" r="131" fill="#84A878" fill-opacity=".04"/><circle cx="487.5" cy="65.5" r="65.5" fill="#84A878" fill-opacity=".07"/><circle cx="47.5" cy="47.5" r="47.5" fill="#84A878" fill-opacity=".07" transform="matrix(-1 0 0 1 435 725)"/><circle cx="1784.5" cy="57.5" r="31.5" fill="#84A878" fill-opacity=".16"/><circle cx="1425.5" cy="1548.5" r="119.5" fill="#84A878" fill-opacity=".04"/></svg><svg xmlns="http://www.w3.org/2000/svg" id="four-shops" fill="none" viewBox="0 0 66 60"><path fill="currentColor" d="M20.222 50.526c-.923 0-1.825.278-2.592.799a4.722 4.722 0 0 0-1.72 2.125 4.804 4.804 0 0 0-.265 2.737 4.76 4.76 0 0 0 1.277 2.426 4.646 4.646 0 0 0 2.39 1.296 4.603 4.603 0 0 0 2.696-.27 4.682 4.682 0 0 0 2.094-1.744 4.788 4.788 0 0 0 .787-2.632 4.774 4.774 0 0 0-1.367-3.35 4.632 4.632 0 0 0-3.3-1.387Zm32.667-9.473H15.556a3.088 3.088 0 0 1-2.2-.925 3.182 3.182 0 0 1-.912-2.233c0-.838.328-1.641.912-2.233a3.087 3.087 0 0 1 2.2-.925h26.417a9.284 9.284 0 0 0 5.614-1.919 9.52 9.52 0 0 0 3.36-4.952l4.933-17.524a3.204 3.204 0 0 0-.507-2.77 3.123 3.123 0 0 0-1.097-.925 3.074 3.074 0 0 0-1.387-.331H14.744a9.482 9.482 0 0 0-3.4-4.564A9.26 9.26 0 0 0 5.978 0H3.11a3.09 3.09 0 0 0-2.2.925A3.182 3.182 0 0 0 0 3.158c0 .837.328 1.64.911 2.233a3.088 3.088 0 0 0 2.2.925h2.867a3.095 3.095 0 0 1 1.87.64c.54.412.933.991 1.12 1.65l.485 1.72v.016l5.104 18.133a9.292 9.292 0 0 0-6.11 3.28 9.565 9.565 0 0 0-2.211 6.647 9.535 9.535 0 0 0 2.899 6.368 9.26 9.26 0 0 0 6.42 2.598H52.89c.825 0 1.616-.332 2.2-.925a3.182 3.182 0 0 0 .91-2.231c0-.838-.328-1.641-.911-2.233a3.088 3.088 0 0 0-2.2-.925Zm-4.124-28.421-3.8 13.498a3.174 3.174 0 0 1-1.12 1.651 3.096 3.096 0 0 1-1.872.64h-20.96l-.793-2.817-3.649-12.972h32.194ZM45.11 50.526c-.923 0-1.825.278-2.592.799a4.722 4.722 0 0 0-1.72 2.125 4.803 4.803 0 0 0-.265 2.737 4.76 4.76 0 0 0 1.277 2.426 4.645 4.645 0 0 0 2.39 1.296 4.603 4.603 0 0 0 2.696-.27 4.682 4.682 0 0 0 2.094-1.744 4.788 4.788 0 0 0 .787-2.632 4.773 4.773 0 0 0-1.367-3.35 4.632 4.632 0 0 0-3.3-1.387Z"/></svg><svg xmlns="http://www.w3.org/2000/svg" xml:space="preserve" id="frame" viewBox="0 0 106.9 106.9"><path fill="none" stroke="currentColor" stroke-linecap="round" stroke-linejoin="round" stroke-width="1.9" d="M82.94 23.51h-6.45v-6.45m12.74-6.292-12.74 12.74m22.41-6.503c0 8.87-7.2 16.06-16.07 16.06-8.869 0-16.06-7.19-16.06-16.06 0-8.867 7.201-16.06 16.07-16.06 8.87 0 16.06 7.19 16.06 16.06zm-54.12 63.69-12.74 12.74m.079-12.98 12.58-12.58m-12.58-.157 12.68-12.68m-12.68-.065 12.66-12.66m.014-12.44-12.78 12.78m.103-18.98v82.08l12.72-12.72m12.77.015-12.78 12.78m25.36-12.78-12.76 12.76m.013-50.67c0 4.195-6.292 4.195-6.292 0s6.292-4.195 6.292 0zm-12.66-12.9h37.9l.011 25.64H44.77zm.002-25.17h21.98c-.135 7.867 6.543 15.92 15.92 16.01l.008 59.97h-37.91zm31.53 75.98v12.69h-50.5v-82.06h18.97m-5.968 0-6.694 6.693m44.19 68.8-6.563 6.563"/></svg><svg xmlns="http://www.w3.org/2000/svg" id="gear" fill="none" viewBox="0 0 44 52"><g fill="currentColor"><path d="M43.583 26a21.5 21.5 0 0 0-2.255-9.566l1.113-.773a3.25 3.25 0 0 0-3.716-5.332l-1.116.775a21.6 21.6 0 0 0-12.443-6.5V3.25a3.25 3.25 0 1 0-6.5 0v1.354a21.6 21.6 0 0 0-12.443 6.5l-1.116-.775a3.25 3.25 0 0 0-3.715 5.332l1.113.773a21.413 21.413 0 0 0 0 19.132l-1.113.773a3.25 3.25 0 0 0 3.715 5.333l1.116-.776a21.599 21.599 0 0 0 12.443 6.5v1.354a3.25 3.25 0 1 0 6.5 0v-1.354a21.599 21.599 0 0 0 12.443-6.5l1.116.776a3.25 3.25 0 0 0 3.716-5.333l-1.114-.773A21.5 21.5 0 0 0 43.584 26ZM21.916 41.167A15.166 15.166 0 1 1 37.083 26a15.186 15.186 0 0 1-15.167 15.167Z"/><circle cx="22" cy="26" r="11"/></g></svg><svg xmlns="http://www.w3.org/2000/svg" id="heart" fill="none" viewBox="0 0 26 24"><path fill="currentColor" d="M18.763 0a6.86 6.86 0 0 0-5.896 3.537A6.86 6.86 0 0 0 6.973 0 7.289 7.289 0 0 0 .005 7.557c0 7.261 11.744 15.649 12.243 16.005l.62.438.619-.438c.5-.354 12.243-8.744 12.243-16.005A7.289 7.289 0 0 0 18.763 0Z"/></svg><svg xmlns="http://www.w3.org/2000/svg" id="hot-sale" fill="none" viewBox="0 0 10 11"><path fill="#fff" d="M7.086 1.329C6.732 1.023 6.36.702 5.981.351A1.326 1.326 0 0 0 4.91.012a1.27 1.27 0 0 0-.917.596A9.444 9.444 0 0 0 2.87 3.565a2.87 2.87 0 0 1-.215-.374.914.914 0 0 0-.687-.515.888.888 0 0 0-.801.298A4.195 4.195 0 0 0 0 5.918a5.09 5.09 0 0 0 1.02 3.11 4.947 4.947 0 0 0 2.687 1.81c.41.105.83.16 1.252.162a2.48 2.48 0 0 1-1.478-.562 2.567 2.567 0 0 1-.718-.787 2.611 2.611 0 0 1-.342-1.017c-.103-1.013.403-2.193 1.506-3.506a1.407 1.407 0 0 1 1.072-.501h.004a1.379 1.379 0 0 1 1.067.504c.694.838 1.521 2.08 1.521 3.238a2.66 2.66 0 0 1-.699 1.797 2.575 2.575 0 0 1-1.717.829 4.948 4.948 0 0 0 3.423-1.543A5.115 5.115 0 0 0 10 5.92c-.002-2.077-1.351-3.242-2.914-4.592Z"/></svg><svg xmlns="http://www.w3.org/2000/svg" id="instagram" fill="none" viewBox="0 0 35 35"><g clip-path="url(#bua)"><circle cx="17.547" cy="17.547" r="13.648" fill="#fff"/><path fill="#FA608E" d="M22.716 9.312H12.284a3.023 3.023 0 0 0-3.02 3.02v10.43a3.024 3.024 0 0 0 3.02 3.02h10.432a3.024 3.024 0 0 0 3.02-3.02v-10.43a3.023 3.023 0 0 0-3.02-3.02ZM17.5 22.97a5.429 5.429 0 0 1-5.422-5.423 5.428 5.428 0 0 1 5.422-5.422 5.429 5.429 0 0 1 5.422 5.422 5.429 5.429 0 0 1-5.422 5.422Zm5.597-9.724a1.284 1.284 0 0 1-1.284-1.283 1.284 1.284 0 0 1 2.566 0c0 .707-.575 1.283-1.282 1.283Z"/><path fill="#FA608E" d="M17.5 14.416a3.135 3.135 0 0 0-3.131 3.13A3.135 3.135 0 0 0 17.5 20.68a3.135 3.135 0 0 0 3.13-3.132 3.135 3.135 0 0 0-3.13-3.13Z"/><path fill="#FA608E" d="M17.5 0C7.835 0 0 7.835 0 17.5S7.835 35 17.5 35 35 27.165 35 17.5 27.165 0 17.5 0Zm10.527 22.763a5.316 5.316 0 0 1-5.311 5.31H12.284a5.317 5.317 0 0 1-5.31-5.31V12.331a5.317 5.317 0 0 1 5.31-5.31h10.432a5.317 5.317 0 0 1 5.31 5.31v10.432Z"/></g><defs><clipPath id="bua"><use xlink:href="#reuse-0"/></clipPath></defs></svg><svg xmlns="http://www.w3.org/2000/svg" id="installation" fill="none" viewBox="0 0 65 65"><g fill="currentColor"><path d="M32.5 21.668a10.833 10.833 0 1 0 0 21.666 10.833 10.833 0 0 0 0-21.666Zm0 16.25a5.417 5.417 0 1 1 0-10.833 5.417 5.417 0 0 1 0 10.833Z"/><path d="m57.671 37.646-1.202-.694a24.644 24.644 0 0 0 0-8.91l1.202-.693a8.13 8.13 0 1 0-8.125-14.084l-1.205.696a24.313 24.313 0 0 0-7.716-4.447V8.125a8.125 8.125 0 1 0-16.25 0v1.39a24.313 24.313 0 0 0-7.713 4.457l-1.21-.701a8.13 8.13 0 0 0-8.126 14.083l1.203.694a24.646 24.646 0 0 0 0 8.91l-1.203.693a8.13 8.13 0 1 0 8.125 14.084l1.205-.697a24.313 24.313 0 0 0 7.72 4.448v1.389a8.125 8.125 0 0 0 16.25 0v-1.39a24.312 24.312 0 0 0 7.713-4.457l1.21.699a8.13 8.13 0 0 0 8.125-14.084l-.003.003Zm-6.9-10.227a19.09 19.09 0 0 1 0 10.156 2.708 2.708 0 0 0 1.256 3.069l2.936 1.695a2.71 2.71 0 1 1-2.708 4.694l-2.942-1.7a2.708 2.708 0 0 0-3.29.446 18.916 18.916 0 0 1-8.783 5.078 2.709 2.709 0 0 0-2.034 2.624v3.394a2.708 2.708 0 0 1-5.417 0v-3.39a2.709 2.709 0 0 0-2.034-2.625 18.915 18.915 0 0 1-8.78-5.09 2.709 2.709 0 0 0-3.29-.446l-2.937 1.698a2.71 2.71 0 0 1-3.983-3.046 2.708 2.708 0 0 1 1.275-1.645l2.936-1.695a2.709 2.709 0 0 0 1.256-3.069 19.09 19.09 0 0 1 0-10.156 2.708 2.708 0 0 0-1.259-3.058l-2.936-1.695a2.71 2.71 0 1 1 2.709-4.694l2.94 1.701a2.709 2.709 0 0 0 3.289-.436 18.915 18.915 0 0 1 8.783-5.078 2.708 2.708 0 0 0 2.034-2.635V8.125a2.708 2.708 0 0 1 5.416 0v3.39a2.709 2.709 0 0 0 2.034 2.625 18.916 18.916 0 0 1 8.784 5.09 2.708 2.708 0 0 0 3.29.446l2.936-1.698a2.71 2.71 0 1 1 2.708 4.69l-2.935 1.696a2.708 2.708 0 0 0-1.254 3.058v-.003Z"/></g></svg><svg xmlns="http://www.w3.org/2000/svg" id="installment" fill="none" viewBox="0 0 66 60"><path fill="currentColor" d="M26.433 44.427a2.718 2.718 0 0 0-.436-.327 1.525 1.525 0 0 0-.463-.245 1.633 1.633 0 0 0-.517-.164 2.527 2.527 0 0 0-1.551.163 2.45 2.45 0 0 0-1.47 1.473 2.294 2.294 0 0 0-.218 1.037c-.005.354.06.706.19 1.036.158.326.36.629.6.9a2.724 2.724 0 0 0 1.932.79c.357.01.711-.065 1.034-.217a3.13 3.13 0 0 0 .899-.573 2.729 2.729 0 0 0 .79-1.936 2.731 2.731 0 0 0-.219-1.037 2.726 2.726 0 0 0-.571-.9ZM15.108 33.191a1.522 1.522 0 0 0-.462-.245 1.632 1.632 0 0 0-.518-.219 2.335 2.335 0 0 0-1.061 0l-.49.164-.49.245-.409.328a2.867 2.867 0 0 0-.79 1.99 2.73 2.73 0 0 0 .79 1.937c.265.24.569.434.899.573a2.718 2.718 0 0 0 3.431-1.23c.211-.394.323-.833.325-1.28a2.866 2.866 0 0 0-.79-1.936l-.435-.327Zm.436 11.236a2.722 2.722 0 0 0-.898-.572 2.717 2.717 0 0 0-1.58-.219l-.49.164a2.1 2.1 0 0 0-.49.245c-.142.101-.278.21-.408.328-.248.26-.442.565-.571.9a2.567 2.567 0 0 0 0 2.072c.138.331.33.635.571.9a2.724 2.724 0 0 0 1.933.846c.357.01.711-.066 1.035-.218a3.13 3.13 0 0 0 .898-.573c.24-.265.434-.57.572-.9a2.568 2.568 0 0 0 0-2.073 2.728 2.728 0 0 0-.572-.9Zm7.922-11.481c-.335.13-.64.324-.899.572a2.866 2.866 0 0 0-.79 1.937 2.73 2.73 0 0 0 1.213 2.255 2.718 2.718 0 0 0 2.544.254 3.13 3.13 0 0 0 .899-.573 2.729 2.729 0 0 0 .79-1.936 2.866 2.866 0 0 0-.79-1.937 2.72 2.72 0 0 0-2.967-.572Zm13.856 11.481a3.132 3.132 0 0 0-.899-.572 2.717 2.717 0 0 0-2.967.572c-.248.26-.442.566-.572.9a2.568 2.568 0 0 0 0 2.073c.138.33.332.635.572.9a2.723 2.723 0 0 0 1.933.79c.357.01.711-.065 1.034-.217a3.13 3.13 0 0 0 .899-.573 2.729 2.729 0 0 0 .571-2.973 2.726 2.726 0 0 0-.571-.9ZM35.389 10.91H13.61a2.72 2.72 0 0 0-1.925.799 2.73 2.73 0 0 0-.797 1.928v10.91c0 .723.287 1.416.797 1.928a2.72 2.72 0 0 0 1.925.799h21.78a2.72 2.72 0 0 0 1.925-.8 2.73 2.73 0 0 0 .797-1.927v-10.91a2.73 2.73 0 0 0-.797-1.928 2.72 2.72 0 0 0-1.925-.799Zm-2.722 10.91H16.333v-5.455h16.334v5.454ZM40.833 0H8.167a8.159 8.159 0 0 0-5.775 2.396A8.19 8.19 0 0 0 0 8.182v43.636c0 2.17.86 4.251 2.392 5.786A8.159 8.159 0 0 0 8.167 60h32.666a8.159 8.159 0 0 0 5.775-2.396A8.19 8.19 0 0 0 49 51.818V8.182a8.19 8.19 0 0 0-2.392-5.786A8.159 8.159 0 0 0 40.833 0Zm2.723 51.818a2.73 2.73 0 0 1-.798 1.929 2.72 2.72 0 0 1-1.925.798H8.167a2.72 2.72 0 0 1-1.925-.798 2.73 2.73 0 0 1-.798-1.929V8.182c0-.724.287-1.417.798-1.929a2.72 2.72 0 0 1 1.925-.798h32.666a2.72 2.72 0 0 1 1.925.798 2.73 2.73 0 0 1 .798 1.929v43.636Zm-6.67-18.627a1.523 1.523 0 0 0-.463-.245 1.63 1.63 0 0 0-.517-.164 2.338 2.338 0 0 0-1.062 0l-.49.164-.49.245-.408.327a2.866 2.866 0 0 0-.79 1.937 2.732 2.732 0 0 0 1.213 2.255 2.72 2.72 0 0 0 2.544.254 3.13 3.13 0 0 0 .899-.573 2.727 2.727 0 0 0 .79-1.936 2.866 2.866 0 0 0-.79-1.937l-.436-.327Z"/></svg><svg xmlns="http://www.w3.org/2000/svg" id="key" fill="none" viewBox="0 0 65 65"><path fill="currentColor" d="M59.142 5.858c-7.81-7.81-20.473-7.81-28.283 0-5.273 5.273-6.98 12.757-5.133 19.467L1.57 49.48a3.176 3.176 0 0 0-.924 2.045l-.64 10.098a3.176 3.176 0 0 0 3.371 3.37l10.098-.64a3.175 3.175 0 0 0 2.045-.924l1.702-1.702a3.686 3.686 0 0 0 .995-3.39l-.858-3.946a.797.797 0 0 1 .948-.948l3.946.86a3.686 3.686 0 0 0 4.385-4.386l-.859-3.946a.797.797 0 0 1 .948-.948l3.946.86a3.685 3.685 0 0 0 3.39-.996l5.612-5.612c6.71 1.847 14.194.14 19.467-5.133 7.81-7.811 7.81-20.474 0-28.284Zm-32.54 31.281L10.634 53.108a2.219 2.219 0 0 1-1.573.652 2.225 2.225 0 0 1-1.573-3.798l15.968-15.97a2.226 2.226 0 0 1 3.146 3.147Zm24.153-11.385a8.138 8.138 0 1 1-11.509-11.51 8.138 8.138 0 0 1 11.51 11.51Z"/></svg><svg xmlns="http://www.w3.org/2000/svg" id="like" fill="none" viewBox="0 0 60 52"><path fill="currentColor" d="M56.168 17.66a13.468 13.468 0 0 0-10.51-5.01h-5.012l.222-1.299c.902-5.29-2.655-10.31-7.945-11.213A9.711 9.711 0 0 0 31.16.001a9.81 9.81 0 0 0-8.794 5.361l-3.719 7.288h-5.12C6.06 12.658.008 18.71 0 26.176v12.297C.008 45.941 6.06 51.992 13.527 52h29.532a13.588 13.588 0 0 0 13.234-10.725l2.6-12.297a13.47 13.47 0 0 0-2.725-11.319ZM7.378 38.472V26.176a6.149 6.149 0 0 1 6.149-6.148h3.689v24.594h-3.69a6.149 6.149 0 0 1-6.148-6.149ZM51.674 27.45l-2.602 12.297a6.173 6.173 0 0 1-6.013 4.875H24.594V17.227l4.343-8.512a2.53 2.53 0 0 1 2.351-1.336 2.341 2.341 0 0 1 2.307 2.732l-1.69 9.917H45.66a6.149 6.149 0 0 1 6.015 7.422Z"/></svg><svg xmlns="http://www.w3.org/2000/svg" id="list" fill="none" viewBox="0 0 56 52"><path fill="currentColor" d="M10.503 15.784a8.332 8.332 0 0 1-3.127-.598 8.134 8.134 0 0 1-2.648-1.722L1.17 10.398A3.36 3.36 0 0 1 .006 8.055a3.305 3.305 0 0 1 .19-1.313c.152-.422.388-.81.694-1.143a3.496 3.496 0 0 1 1.092-.798 3.59 3.59 0 0 1 3.854.527l3.696 3.2a1.396 1.396 0 0 0 .97.466c.31 0 .606-.119.824-.33l8.43-7.786a3.564 3.564 0 0 1 2.479-.876c.912.033 1.775.41 2.404 1.052a3.34 3.34 0 0 1 .965 2.381 3.345 3.345 0 0 1-1.023 2.359l-8.367 7.727a8.07 8.07 0 0 1-2.623 1.684c-.98.388-2.03.585-3.088.58ZM56 7.863c0-.9-.369-1.764-1.025-2.401a3.555 3.555 0 0 0-2.475-.995H33.835c-.928 0-1.819.358-2.475.995a3.344 3.344 0 0 0-1.025 2.4c0 .901.369 1.765 1.025 2.401a3.555 3.555 0 0 0 2.475.995H52.5c.928 0 1.819-.358 2.475-.995A3.344 3.344 0 0 0 56 7.863ZM16.214 31.628l8.367-7.727a3.345 3.345 0 0 0 1.023-2.358 3.34 3.34 0 0 0-.965-2.382 3.549 3.549 0 0 0-2.404-1.051 3.564 3.564 0 0 0-2.479.875l-8.43 7.786a1.185 1.185 0 0 1-.824.331c-.31 0-.606-.119-.825-.33l-3.698-3.59a3.556 3.556 0 0 0-2.476-.995c-.928 0-1.819.357-2.475.994a3.345 3.345 0 0 0-1.026 2.402c0 .9.37 1.764 1.026 2.401l3.7 3.588a8.295 8.295 0 0 0 5.731 2.318 8.3 8.3 0 0 0 5.755-2.262ZM56 25.97c0-.9-.369-1.764-1.025-2.4a3.555 3.555 0 0 0-2.475-.995H33.835c-.928 0-1.819.358-2.475.994a3.344 3.344 0 0 0-1.025 2.4c0 .901.369 1.765 1.025 2.402a3.555 3.555 0 0 0 2.475.994H52.5c.928 0 1.819-.358 2.475-.994A3.344 3.344 0 0 0 56 25.97ZM16.214 49.736l8.367-7.728a3.345 3.345 0 0 0 1.023-2.358 3.341 3.341 0 0 0-.965-2.381 3.549 3.549 0 0 0-2.404-1.052 3.564 3.564 0 0 0-2.479.875l-8.43 7.786a1.18 1.18 0 0 1-.823.33 1.395 1.395 0 0 1-.535-.135 1.355 1.355 0 0 1-.436-.33l-3.696-3.2a3.57 3.57 0 0 0-2.53-.859 3.546 3.546 0 0 0-2.416 1.13 3.337 3.337 0 0 0-.884 2.455 3.36 3.36 0 0 0 1.164 2.343l3.553 3.067A8.294 8.294 0 0 0 10.457 52a8.3 8.3 0 0 0 5.757-2.263ZM56 44.077c0-.9-.369-1.764-1.025-2.4a3.555 3.555 0 0 0-2.475-.995H33.835c-.928 0-1.819.358-2.475.994a3.344 3.344 0 0 0-1.025 2.401c0 .9.369 1.764 1.025 2.4a3.555 3.555 0 0 0 2.475.995H52.5c.928 0 1.819-.357 2.475-.994a3.344 3.344 0 0 0 1.025-2.4Z"/></svg><svg xmlns="http://www.w3.org/2000/svg" id="loading" stroke="#fff" viewBox="0 0 38 38"><g fill="none" fill-rule="evenodd" stroke-width="2" transform="translate(1 1)"><circle cx="18" cy="18" r="18" stroke-opacity=".5"/><path d="M36 18c0-9.94-8.06-18-18-18"><animateTransform attributeName="transform" dur="1s" from="0 18 18" repeatCount="indefinite" to="360 18 18" type="rotate"/></path></g></svg><svg xmlns="http://www.w3.org/2000/svg" id="logo" fill="none" viewBox="0 0 145 99"><path fill="#fff" d="M70.959 26.214c4.953 0 7.255-2.463 7.255-5.327 0-6.88-11.351-4.016-11.351-8.594 0-1.633 1.365-2.972 4.551-2.972 1.66 0 3.507.482 5.14 1.526l.884-2.142c-1.553-1.07-3.829-1.66-6.024-1.66-4.926 0-7.175 2.463-7.175 5.355 0 6.96 11.352 4.07 11.352 8.647 0 1.633-1.393 2.892-4.632 2.892-2.41 0-4.792-.91-6.184-2.169l-.99 2.088c1.498 1.392 4.31 2.356 7.174 2.356ZM96.127 26h2.811L90.425 7.26h-2.65L79.287 26h2.757l2.062-4.685h9.959L96.127 26Zm-11.083-6.827 4.042-9.183 4.043 9.183h-8.085ZM115.173 7.26v13.975L103.929 7.26h-2.195V26h2.677V12.025L115.655 26h2.195V7.26h-2.677ZM65.498 92H78.32v-2.33H68.175V73.26h-2.677V92Zm23.346.214c4.952 0 7.924-2.864 7.924-8.3V73.26h-2.597v10.548c0 4.15-1.927 6.023-5.3 6.023-3.374 0-5.275-1.874-5.275-6.023V73.26H80.92v10.655c0 5.435 2.999 8.3 7.925 8.3Zm28.01-.214-7.095-9.691 6.613-9.05h-2.918l-5.194 7.202-5.247-7.201h-3.052l6.612 9.129L99.533 92h3.078l5.542-7.737L113.775 92h3.079Z"/><path fill="#FFC907" d="M64.909 59h8.513c6.13 0 10.334-3.694 10.334-9.37 0-5.676-4.203-9.37-10.334-9.37H64.91V59Zm4.337-3.56V43.82h3.962c3.721 0 6.157 2.222 6.157 5.81 0 3.587-2.436 5.81-6.157 5.81h-3.962Zm30.861-15.18-5.783 13.386L88.62 40.26h-4.685L92.021 59h4.284l8.112-18.74h-4.31Zm10.185 15.26v-4.337h8.701v-3.374h-8.701V43.74h9.852v-3.48h-14.162V59h14.51v-3.48h-10.2ZM140.541 59l-4.203-6.024c2.436-1.044 3.855-3.105 3.855-5.916 0-4.204-3.132-6.8-8.138-6.8h-8.112V59h4.337v-5.22h3.989l3.614 5.22h4.658Zm-4.738-11.94c0 2.034-1.339 3.266-3.989 3.266h-3.534v-6.532h3.534c2.65 0 3.989 1.204 3.989 3.266Z"/><path stroke="#fff" stroke-width="3" d="M1.75 5.5h45.612v87.179H1.75z"/><path fill="#fff" d="M.25 48h21.136v3H.25zm25.019 0h-3v3h3z"/></svg><svg xmlns="http://www.w3.org/2000/svg" id="map-marker" fill="none" viewBox="0 0 14 16"><path fill="currentColor" d="M7 0C5.144.002 3.365.704 2.053 1.95.74 3.199.003 4.89 0 6.654c0 1.714 1.396 4.395 4.148 7.97.328.426.757.774 1.253 1.013A3.68 3.68 0 0 0 7 16a3.68 3.68 0 0 0 1.6-.364 3.51 3.51 0 0 0 1.252-1.013C12.604 11.048 14 8.367 14 6.653c-.002-1.764-.74-3.455-2.053-4.702C10.635.704 8.856 0 7 0Zm0 9.305a2.91 2.91 0 0 1-1.559-.45A2.7 2.7 0 0 1 4.408 7.66a2.544 2.544 0 0 1-.16-1.54c.109-.518.376-.993.768-1.366a2.853 2.853 0 0 1 1.437-.73 2.941 2.941 0 0 1 1.62.152c.513.202.951.544 1.26.982.308.439.472.954.472 1.482 0 .707-.295 1.385-.821 1.885s-1.24.781-1.984.781Z"/></svg><svg xmlns="http://www.w3.org/2000/svg" id="map-marker-green" fill="none" viewBox="0 0 14 16"><path fill="#50b22f" d="M7 0C5.144.002 3.365.704 2.053 1.95.74 3.199.003 4.89 0 6.654c0 1.714 1.396 4.395 4.148 7.97.328.426.757.774 1.253 1.013A3.68 3.68 0 0 0 7 16a3.68 3.68 0 0 0 1.6-.364 3.51 3.51 0 0 0 1.252-1.013C12.604 11.048 14 8.367 14 6.653c-.002-1.764-.74-3.455-2.053-4.702C10.635.704 8.856 0 7 0Zm0 9.305a2.91 2.91 0 0 1-1.559-.45A2.7 2.7 0 0 1 4.408 7.66a2.544 2.544 0 0 1-.16-1.54c.109-.518.376-.993.768-1.366a2.853 2.853 0 0 1 1.437-.73 2.941 2.941 0 0 1 1.62.152c.513.202.951.544 1.26.982.308.439.472.954.472 1.482 0 .707-.295 1.385-.821 1.885s-1.24.781-1.984.781Z"/></svg><svg xmlns="http://www.w3.org/2000/svg" id="map-marker-yellow" fill="none" viewBox="0 0 14 16"><path fill="#F9C201" d="M7 0C5.144.002 3.365.704 2.053 1.95.74 3.199.003 4.89 0 6.654c0 1.714 1.396 4.395 4.148 7.97.328.426.757.774 1.253 1.013A3.68 3.68 0 0 0 7 16a3.68 3.68 0 0 0 1.6-.364 3.51 3.51 0 0 0 1.252-1.013C12.604 11.048 14 8.367 14 6.653c-.002-1.764-.74-3.455-2.053-4.702C10.635.704 8.856 0 7 0Zm0 9.305a2.91 2.91 0 0 1-1.559-.45A2.7 2.7 0 0 1 4.408 7.66a2.544 2.544 0 0 1-.16-1.54c.109-.518.376-.993.768-1.366a2.853 2.853 0 0 1 1.437-.73 2.941 2.941 0 0 1 1.62.152c.513.202.951.544 1.26.982.308.439.472.954.472 1.482 0 .707-.295 1.385-.821 1.885s-1.24.781-1.984.781Z"/></svg><svg xmlns="http://www.w3.org/2000/svg" id="material-delivery" fill="none" viewBox="0 0 62 65"><path fill="currentColor" d="M62 26.343v25.118c-.004 3.59-1.366 7.03-3.788 9.569-2.421 2.538-5.704 3.966-9.129 3.97H46.5a2.525 2.525 0 0 1-1.827-.793 2.775 2.775 0 0 1-.756-1.915c0-.718.272-1.407.756-1.915a2.525 2.525 0 0 1 1.827-.793h2.583c2.056 0 4.027-.856 5.48-2.379 1.454-1.523 2.27-3.59 2.27-5.744V26.343c0-1.33-.311-2.64-.906-3.813a8.006 8.006 0 0 0-2.509-2.921L35.335 6.819A7.45 7.45 0 0 0 31 5.42a7.45 7.45 0 0 0-4.335 1.4L8.582 19.61a8.005 8.005 0 0 0-2.509 2.92 8.438 8.438 0 0 0-.906 3.814v25.118c0 2.154.816 4.22 2.27 5.744 1.453 1.523 3.424 2.38 5.48 2.38H15.5c.685 0 1.342.285 1.827.792.484.508.756 1.197.756 1.915s-.272 1.407-.756 1.915A2.525 2.525 0 0 1 15.5 65h-2.583c-3.425-.004-6.708-1.432-9.13-3.97C1.368 58.492.005 55.05 0 51.46V26.344a14.044 14.044 0 0 1 1.505-6.355 13.324 13.324 0 0 1 4.178-4.869L23.767 2.327A12.455 12.455 0 0 1 30.992 0c2.577 0 5.094.81 7.226 2.327L56.3 15.12a13.341 13.341 0 0 1 4.185 4.867A14.062 14.062 0 0 1 62 26.343ZM49.083 40.648a19.615 19.615 0 0 1-1.367 7.257 18.906 18.906 0 0 1-3.928 6.145l-9.08 9.31A5.204 5.204 0 0 1 31 64.931a5.204 5.204 0 0 1-3.707-1.573l-9.06-9.288a19.148 19.148 0 0 1-4.53-7.897 19.834 19.834 0 0 1-.443-9.203 19.365 19.365 0 0 1 3.75-8.335 18.176 18.176 0 0 1 7.057-5.495 17.332 17.332 0 0 1 8.696-1.358 17.562 17.562 0 0 1 8.279 3.1 18.67 18.67 0 0 1 5.905 6.827 19.686 19.686 0 0 1 2.136 8.938Zm-5.166 0c0-2.226-.524-4.418-1.525-6.382a13.336 13.336 0 0 0-4.215-4.875 12.545 12.545 0 0 0-5.91-2.217 12.38 12.38 0 0 0-6.21.965 12.98 12.98 0 0 0-5.041 3.92 13.831 13.831 0 0 0-2.684 5.947c-.415 2.183-.31 4.44.307 6.571a13.68 13.68 0 0 0 3.226 5.644l9.042 9.266 9.248-9.288a13.485 13.485 0 0 0 2.793-4.38 13.99 13.99 0 0 0 .969-5.17Zm-5.167-.019a8.404 8.404 0 0 1-1.306 4.514 7.842 7.842 0 0 1-3.478 2.992 7.42 7.42 0 0 1-4.478.462 7.646 7.646 0 0 1-3.968-2.223 8.253 8.253 0 0 1-2.121-4.16 8.489 8.489 0 0 1 .44-4.693 8.054 8.054 0 0 1 2.855-3.646A7.5 7.5 0 0 1 31 32.506c2.055 0 4.027.856 5.48 2.38 1.454 1.523 2.27 3.589 2.27 5.743Z"/></svg><svg xmlns="http://www.w3.org/2000/svg" id="neat-installation" fill="none" viewBox="0 0 66 60"><path fill="currentColor" d="M51 6H21a3 3 0 0 0-3 3v6H3a3 3 0 0 0 0 6h15v12a3 3 0 0 0 6 0v-3h12v21a3 3 0 0 0 3 3h6a9 9 0 0 0 9-9V29.46A9 9 0 0 0 60 21v-6a9 9 0 0 0-9-9Zm-3 39a3 3 0 0 1-3 3h-3V30h6v15Zm6-24a3 3 0 0 1-3 3H24V12h18v3a3 3 0 0 0 6 0v-3h3a3 3 0 0 1 3 3v6Z"/></svg><svg xmlns="http://www.w3.org/2000/svg" id="nine-years-of-successful-work" fill="none" viewBox="0 0 66 60"><path fill="currentColor" d="M47.6 14.158h-8.4v-2.79a8.353 8.353 0 0 0-2.46-5.917A8.416 8.416 0 0 0 30.8 3h-5.6a8.416 8.416 0 0 0-5.94 2.451 8.353 8.353 0 0 0-2.46 5.917v2.79H8.4a8.416 8.416 0 0 0-5.94 2.45A8.353 8.353 0 0 0 0 22.527v25.106c0 2.219.885 4.348 2.46 5.917A8.416 8.416 0 0 0 8.4 56h39.2a8.416 8.416 0 0 0 5.94-2.451A8.353 8.353 0 0 0 56 47.632V22.526c0-2.22-.885-4.348-2.46-5.917a8.416 8.416 0 0 0-5.94-2.451Zm-25.2-2.79c0-.74.295-1.449.82-1.972a2.805 2.805 0 0 1 1.98-.817h5.6c.743 0 1.455.294 1.98.817.525.523.82 1.233.82 1.972v2.79H22.4v-2.79Zm28 36.264c0 .74-.295 1.449-.82 1.972a2.805 2.805 0 0 1-1.98.817H8.4a2.805 2.805 0 0 1-1.98-.817 2.784 2.784 0 0 1-.82-1.972V32.289a59.728 59.728 0 0 0 8.4 2.623v1.645c0 .74.295 1.45.82 1.973a2.805 2.805 0 0 0 3.96 0c.525-.523.82-1.233.82-1.973v-.585c2.784.377 5.59.573 8.4.585a64.644 64.644 0 0 0 8.4-.585v.585c0 .74.295 1.45.82 1.973a2.805 2.805 0 0 0 3.96 0c.525-.523.82-1.233.82-1.973v-1.645a59.726 59.726 0 0 0 8.4-2.623v15.343Zm0-21.451A57.238 57.238 0 0 1 42 28.97v-.865c0-.74-.295-1.45-.82-1.972a2.805 2.805 0 0 0-3.96 0 2.784 2.784 0 0 0-.82 1.972v2.064a56.521 56.521 0 0 1-16.8 0v-2.064c0-.74-.295-1.45-.82-1.972a2.805 2.805 0 0 0-3.96 0 2.784 2.784 0 0 0-.82 1.972v.92a57.237 57.237 0 0 1-8.4-2.789v-3.71c0-.74.295-1.449.82-1.972a2.805 2.805 0 0 1 1.98-.817h39.2c.743 0 1.455.294 1.98.817.525.523.82 1.233.82 1.972v3.654Z"/></svg><svg xmlns="http://www.w3.org/2000/svg" id="phone" fill="none" viewBox="0 0 20 20"><path fill="currentColor" d="M19.133 9.166a.833.833 0 0 1-.833-.833 6.672 6.672 0 0 0-6.665-6.665.833.833 0 1 1 0-1.667 8.34 8.34 0 0 1 8.332 8.332.833.833 0 0 1-.834.833Zm-2.499-.833a4.999 4.999 0 0 0-4.999-4.999.833.833 0 1 0 0 1.666 3.333 3.333 0 0 1 3.333 3.333.833.833 0 0 0 1.666 0Zm1.819 10.134.758-.873a2.583 2.583 0 0 0 0-3.647c-.026-.026-2.03-1.568-2.03-1.568a2.583 2.583 0 0 0-3.567.005l-1.588 1.338A10.65 10.65 0 0 1 6.25 7.936l1.333-1.583a2.583 2.583 0 0 0 .006-3.567S6.045.784 6.02.758A2.568 2.568 0 0 0 2.416.72l-.958.833C-4.203 8.12 7.986 20.215 14.77 19.997a5.126 5.126 0 0 0 3.684-1.53Z"/></svg><svg xmlns="http://www.w3.org/2000/svg" xml:space="preserve" id="platbands" viewBox="0 0 100.04 100.04"><path fill="none" stroke="currentColor" stroke-linecap="round" stroke-linejoin="round" stroke-width="1.9" d="m69.842 15.382 5.742 5.742L91.226 5.482M88.64 8.138a15.815 15.815 0 0 1 2.592 8.702c0 8.775-7.114 15.889-15.889 15.889s-15.889-7.114-15.889-15.89S66.567.952 75.343.952c3.288 0 6.343.999 8.878 2.71m-40.83 57.581a3.19 3.19 0 0 1-3.19 3.19 3.19 3.19 0 0 1-3.188-3.19 3.19 3.19 0 0 1 3.189-3.19 3.19 3.19 0 0 1 3.189 3.19v0m-12.568 12.84h38.069m-38.069-25.33h38.069M30.823 23.27h29.974m8.095 75.824V31.42m-38.07-14.285v81.96M75.343 32.8v66.293H24.688V17.135h34.78"/></svg><svg xmlns="http://www.w3.org/2000/svg" id="plus" fill="none" viewBox="0 0 21 20"><path fill="currentColor" d="M9.96 19.8V.6h.96v19.2h-.96ZM.6 10.68v-.912h19.68v.912H.6Z"/></svg><svg xmlns="http://www.w3.org/2000/svg" id="polite-staff" fill="none" viewBox="0 0 66 60"><path fill="currentColor" d="M37.08 36.69a11.28 11.28 0 0 1-14.16 0 3.004 3.004 0 0 0-3.84 4.62 17.04 17.04 0 0 0 21.84 0 3.004 3.004 0 0 0-3.84-4.62ZM21 27a3 3 0 1 0 0-6 3 3 0 0 0 0 6Zm18-6a3 3 0 1 0 0 5.999A3 3 0 0 0 39 21ZM30 0a30 30 0 1 0 0 60 30 30 0 0 0 0-60Zm0 54a24 24 0 1 1 0-48.001A24 24 0 0 1 30 54Z"/></svg><svg xmlns="http://www.w3.org/2000/svg" id="profitable" fill="none" viewBox="0 0 66 60"><path fill="currentColor" d="M50.385 45.414a11.84 11.84 0 0 0-1.61-14.492 12.074 12.074 0 0 0-6.912-3.521 12.13 12.13 0 0 0-7.644 1.4 11.966 11.966 0 0 0-5.186 5.736 11.827 11.827 0 0 0-.567 7.682 11.921 11.921 0 0 0 4.29 6.423 12.108 12.108 0 0 0 7.356 2.486 12.315 12.315 0 0 0 6.27-1.747l4.815 4.798a2.8 2.8 0 0 0 1.988.821 2.822 2.822 0 0 0 2.6-1.723 2.753 2.753 0 0 0-.613-3.036l-4.787-4.827Zm-5.598-1.58a6.667 6.667 0 0 1-4.577 1.814 6.667 6.667 0 0 1-4.576-1.815 6.405 6.405 0 0 1-1.887-4.535 6.406 6.406 0 0 1 3.986-5.927 6.517 6.517 0 0 1 7.054 1.392 6.406 6.406 0 0 1 1.887 4.535c0 1.7-.678 3.33-1.887 4.535ZM47.587 5H8.396A8.437 8.437 0 0 0 2.46 7.437 8.283 8.283 0 0 0 0 13.321v24.965c0 2.207.885 4.323 2.46 5.884a8.437 8.437 0 0 0 5.938 2.437h11.196c.743 0 1.455-.292 1.98-.812a2.76 2.76 0 0 0 .82-1.962 2.76 2.76 0 0 0-.82-1.961 2.812 2.812 0 0 0-1.98-.813H8.398a2.812 2.812 0 0 1-1.98-.812 2.761 2.761 0 0 1-.82-1.961V21.643h44.787v2.774c0 .735.295 1.44.82 1.961.525.52 1.237.812 1.98.812.742 0 1.454-.292 1.979-.812a2.76 2.76 0 0 0 .82-1.961V13.32a8.283 8.283 0 0 0-2.46-5.884A8.437 8.437 0 0 0 47.586 5Zm2.798 11.095H5.598v-2.774c0-.735.295-1.44.82-1.961a2.812 2.812 0 0 1 1.98-.812h39.188c.743 0 1.455.292 1.98.812.524.52.82 1.226.82 1.961v2.774ZM22.394 27.19h-8.398c-.742 0-1.454.293-1.98.813a2.761 2.761 0 0 0-.82 1.961c0 .736.296 1.441.82 1.962.526.52 1.238.812 1.98.812h8.397c.743 0 1.455-.292 1.98-.812a2.76 2.76 0 0 0 .82-1.962c0-.735-.295-1.441-.82-1.961a2.812 2.812 0 0 0-1.98-.813Z"/></svg><svg xmlns="http://www.w3.org/2000/svg" id="reliable-reputation" fill="none" viewBox="0 0 66 60"><path fill="currentColor" d="M47.867 4.947a3.088 3.088 0 0 0-1.217-.587 3.123 3.123 0 0 0-1.356-.014c-3.272.672-6.65.681-9.926.026A24.764 24.764 0 0 1 26.246.535 3.106 3.106 0 0 0 24.5 0c-.624 0-1.233.187-1.746.535a24.764 24.764 0 0 1-9.122 3.837 24.992 24.992 0 0 1-9.926-.026 3.124 3.124 0 0 0-1.356.014 3.096 3.096 0 0 0-1.217.587 3.007 3.007 0 0 0-.837 1.044A2.95 2.95 0 0 0 0 7.287v22.357a26.57 26.57 0 0 0 3.052 12.37 27.175 27.175 0 0 0 8.494 9.627l11.178 7.803a3.111 3.111 0 0 0 3.552 0l11.178-7.803c3.574-2.5 6.486-5.8 8.494-9.627A26.57 26.57 0 0 0 49 29.644V7.287c.002-.448-.1-.891-.295-1.296a3.011 3.011 0 0 0-.838-1.044Zm-4.992 24.697a20.665 20.665 0 0 1-2.371 9.618 21.135 21.135 0 0 1-6.602 7.488L24.5 53.322l-9.402-6.572a21.136 21.136 0 0 1-6.602-7.488 20.665 20.665 0 0 1-2.371-9.618V10.738A31.13 31.13 0 0 0 24.5 6.568a31.13 31.13 0 0 0 18.375 4.17v18.906Zm-13.659-6.872-8.238 8.103-2.726-2.701a3.107 3.107 0 0 0-2.174-.883c-.815 0-1.598.318-2.174.883a2.983 2.983 0 0 0-.9 2.13c0 .8.323 1.566.9 2.131l4.9 4.802c.285.281.623.504.996.657a3.116 3.116 0 0 0 3.352-.657l10.535-10.234a2.98 2.98 0 0 0 .901-2.13c0-.8-.324-1.566-.9-2.13a3.107 3.107 0 0 0-2.175-.883c-.815 0-1.598.317-2.174.882l-.123.03Z"/></svg><svg xmlns="http://www.w3.org/2000/svg" id="ruler" fill="none" viewBox="0 0 20 20"><path fill="currentColor" d="M19.926 19.357 6.456.174a.408.408 0 0 0-.742.234v5.306h2.041v.817h-2.04v2.04h2.04v.817h-2.04v2.04h2.04v.817h-2.04v2.04h2.04v.817h-2.04v2.04h2.04v.817h-2.04v1.633c0 .225.182.408.407.408h13.47a.408.408 0 0 0 .334-.643Zm-5.806-3.256a.408.408 0 0 1-.365.226H9.47a.408.408 0 0 1-.408-.409v-5.714a.408.408 0 0 1 .735-.245l4.286 5.715a.41.41 0 0 1 .038.427ZM4.49 0H.408A.408.408 0 0 0 0 .408v2.245h2.154v.816H0v2.45h2.154v.816H0v2.857h2.154v.816H0v2.857h2.154v.817H0v2.449h2.154v.816H0v2.245c0 .225.183.408.408.408H4.49a.408.408 0 0 0 .408-.408V.408A.408.408 0 0 0 4.49 0Z"/></svg><svg xmlns="http://www.w3.org/2000/svg" id="scales" fill="none" viewBox="0 0 33 24"><path fill="currentColor" d="M16.12 20.84A3.698 3.698 0 0 0 12.459 24h7.325a3.698 3.698 0 0 0-3.663-3.16Zm15.69-8.078-4.237-9.227h1.975a.539.539 0 0 0 0-1.077H19.172a3.124 3.124 0 0 0-6.103 0H2.693a.539.539 0 0 0 0 1.077h1.974L.431 12.762a.538.538 0 0 0-.43.539 5.563 5.563 0 0 0 5.527 5.565 5.6 5.6 0 0 0 5.565-5.53.646.646 0 0 0-.467-.61L6.39 3.536h6.642a3.16 3.16 0 0 0 2.37 2.548v13.608h1.077V6.156a3.16 3.16 0 0 0 2.728-2.62h6.642l-4.236 9.19a.61.61 0 0 0-.467.575c0 3.06 2.47 5.545 5.529 5.565A5.637 5.637 0 0 0 32.24 13.3a.539.539 0 0 0-.431-.539Zm-22.367.108H1.616l3.913-8.4 3.914 8.401Zm13.355 0 3.914-8.401 3.913 8.401h-7.827Z"/></svg><svg xmlns="http://www.w3.org/2000/svg" id="search" fill="none" viewBox="0 0 20 20"><path fill="currentColor" d="M8.667 2C4.993 2 2 4.993 2 8.667s2.993 6.666 6.667 6.666a6.631 6.631 0 0 0 4.215-1.509l3.98 3.98a.665.665 0 0 0 .952.01.666.666 0 0 0-.01-.952l-3.98-3.98a6.631 6.631 0 0 0 1.51-4.215C15.333 4.993 12.34 2 8.666 2Zm0 1.333A5.323 5.323 0 0 1 14 8.667 5.323 5.323 0 0 1 8.667 14a5.323 5.323 0 0 1-5.334-5.333 5.323 5.323 0 0 1 5.334-5.334Z"/></svg><svg xmlns="http://www.w3.org/2000/svg" id="specialist-departure" fill="none" viewBox="0 0 71 65"><path fill="currentColor" d="M56.073 11.805h-6.197A14.783 14.783 0 0 0 35.415 0H14.756A14.774 14.774 0 0 0 0 14.756v26.561A11.805 11.805 0 0 0 9.034 52.76a10.33 10.33 0 1 0 20.363.363h12.047c-.076.489-.116.982-.12 1.476a10.33 10.33 0 1 0 20.658 0 10.033 10.033 0 0 0-.18-1.839 11.805 11.805 0 0 0 9.028-11.442V26.561a14.774 14.774 0 0 0-14.757-14.756Zm8.854 14.756v2.951H50.171V17.707h5.902a8.854 8.854 0 0 1 8.854 8.854ZM5.902 41.317v-26.56a8.854 8.854 0 0 1 8.854-8.855h20.659a8.854 8.854 0 0 1 8.854 8.854V47.22H11.805a5.902 5.902 0 0 1-5.903-5.903Zm17.708 13.28a4.427 4.427 0 1 1-8.854 0 4.186 4.186 0 0 1 .275-1.475h8.304c.18.471.273.971.275 1.476Zm28.037 4.428a4.427 4.427 0 0 1-4.427-4.427 4.161 4.161 0 0 1 .274-1.476H55.8c.18.471.273.971.274 1.476a4.427 4.427 0 0 1-4.426 4.427Zm7.378-11.805H50.17V35.415h14.756v5.902a5.903 5.903 0 0 1-5.902 5.903Z"/></svg><svg xmlns="http://www.w3.org/2000/svg" id="staff" fill="none" viewBox="0 0 65 65"><g fill="currentColor"><path d="M26.787 36.309a5.72 5.72 0 0 0 5.713 5.713 5.72 5.72 0 0 0 5.713-5.713 5.72 5.72 0 0 0-5.713-5.713 5.72 5.72 0 0 0-5.713 5.713ZM32.5 45.83c-6.3 0-11.426 5.125-11.426 11.426V65h22.852v-7.744c0-6.3-5.126-11.426-11.426-11.426Zm-15.234-5.713a5.72 5.72 0 0 0-5.713-5.713 5.72 5.72 0 0 0-5.713 5.713 5.72 5.72 0 0 0 5.713 5.713 5.72 5.72 0 0 0 5.713-5.713Zm41.894 0a5.72 5.72 0 0 0-5.713-5.713 5.72 5.72 0 0 0-5.713 5.713 5.72 5.72 0 0 0 5.713 5.713 5.72 5.72 0 0 0 5.713-5.713ZM9.648 0 6.751 6.83 0 7.782l4.87 4.626-1.12 6.762 5.898-3.083 5.9 3.083-1.12-6.762 4.742-4.626-6.554-.952L9.649 0Zm25.82 6.83L32.5 0l-2.897 6.83-6.625.952 4.743 4.626-1.12 6.762 5.899-3.083 5.899 3.083-1.12-6.762 4.742-4.626-6.553-.952ZM55.352 0l-2.897 6.83-6.625.952 4.742 4.626-1.12 6.762 5.9-3.083 5.898 3.083-1.12-6.762L65 7.782l-6.68-.952L55.352 0Zm-1.905 49.639c-2.53 0-4.847.85-6.74 2.242.637 1.677 1.027 3.477 1.027 5.375V65H65v-3.935c0-6.311-5.242-11.426-11.553-11.426ZM0 61.065V65h17.266v-7.744c0-1.898.39-3.698 1.028-5.375-1.894-1.393-4.21-2.242-6.741-2.242C5.243 49.639 0 54.754 0 61.064Z"/></g></svg><svg xmlns="http://www.w3.org/2000/svg" id="star" fill="none" viewBox="0 0 21 19"><path fill="currentColor" d="M9.553.799c.306-.906 1.588-.906 1.894 0l1.63 4.813a1 1 0 0 0 .947.68h5.182c.979 0 1.375 1.26.573 1.82l-4.122 2.875a1 1 0 0 0-.375 1.14l1.59 4.7c.31.915-.727 1.694-1.519 1.141l-4.28-2.985a1 1 0 0 0-1.145 0l-4.281 2.985c-.792.553-1.829-.226-1.52-1.14l1.591-4.7a1 1 0 0 0-.375-1.141L1.221 8.112c-.802-.56-.406-1.82.573-1.82h5.182a1 1 0 0 0 .948-.68L9.553.8Z"/></svg><svg xmlns="http://www.w3.org/2000/svg" id="star-grey" fill="none" viewBox="0 0 21 19"><path fill="#d1d1d1" d="M9.553.799c.306-.906 1.588-.906 1.894 0l1.63 4.813a1 1 0 0 0 .947.68h5.182c.979 0 1.375 1.26.573 1.82l-4.122 2.875a1 1 0 0 0-.375 1.14l1.59 4.7c.31.915-.727 1.694-1.519 1.141l-4.28-2.985a1 1 0 0 0-1.145 0l-4.281 2.985c-.792.553-1.829-.226-1.52-1.14l1.591-4.7a1 1 0 0 0-.375-1.141L1.221 8.112c-.802-.56-.406-1.82.573-1.82h5.182a1 1 0 0 0 .948-.68L9.553.8Z"/></svg><svg xmlns="http://www.w3.org/2000/svg" id="star-outline" fill="none" viewBox="0 0 54 52"><path fill="currentColor" d="M15.308 52a8.074 8.074 0 0 1-4.741-1.565 7.98 7.98 0 0 1-2.975-9.061l2.615-8.09-6.884-5.033a8.103 8.103 0 0 1 4.783-14.645h8.427l2.559-7.98a8.106 8.106 0 0 1 15.436 0l2.569 7.98h8.426a8.103 8.103 0 0 1 4.781 14.645l-6.882 5.034 2.615 8.089a8.105 8.105 0 0 1-12.517 9.019l-6.705-4.931-6.706 4.933A8.09 8.09 0 0 1 15.308 52ZM8.106 20.311a1.4 1.4 0 0 0-.827 2.529l8.842 6.462a3.353 3.353 0 0 1 1.212 3.737L13.98 43.432a1.4 1.4 0 0 0 2.16 1.565l8.692-6.395a3.352 3.352 0 0 1 3.974 0l8.693 6.393a1.397 1.397 0 0 0 2.16-1.565l-3.354-10.394a3.352 3.352 0 0 1 1.212-3.737l8.84-6.462a1.4 1.4 0 0 0-.825-2.528H34.638a3.354 3.354 0 0 1-3.192-2.329l-3.29-10.306a1.4 1.4 0 0 0-2.665 0l-3.314 10.308a3.352 3.352 0 0 1-3.186 2.33H8.106Z"/></svg><svg xmlns="http://www.w3.org/2000/svg" xml:space="preserve" id="star-rating" viewBox="0 0 22 32"><use xlink:href="#reuse-1"/><use xlink:href="#reuse-2"/></svg><svg xmlns="http://www.w3.org/2000/svg" xml:space="preserve" id="stars-rating" viewBox="0 0 22 32"><use xlink:href="#reuse-1"/><use xlink:href="#reuse-2"/></svg><svg xmlns="http://www.w3.org/2000/svg" id="telegram" fill="none" viewBox="0 0 35 35"><g clip-path="url(#cya)"><circle cx="18.337" cy="18.337" r="13.336" fill="#fff"/><path fill="#008DDD" d="M17.5 35C27.167 35 35 27.167 35 17.5S27.167 0 17.5 0 0 7.833 0 17.5 7.833 35 17.5 35ZM8.008 17.12l16.873-6.505c.783-.283 1.467.191 1.213 1.375l.001-.001-2.872 13.535c-.213.96-.784 1.193-1.581.74l-4.375-3.224-2.11 2.033c-.234.233-.43.43-.883.43l.31-4.452 8.11-7.325c.352-.31-.08-.486-.545-.177l-10.02 6.31-4.32-1.348c-.937-.298-.958-.938.199-1.39Z"/></g><defs><clipPath id="cya"><use xlink:href="#reuse-0"/></clipPath></defs></svg><svg xmlns="http://www.w3.org/2000/svg" id="tools" fill="none" viewBox="0 0 63 63"><path fill="currentColor" d="M50.041 62.944a12.953 12.953 0 0 1-9.15-3.782 12.966 12.966 0 0 1-3.133-13.19L17.025 25.245A12.966 12.966 0 0 1 3.84 22.11 12.938 12.938 0 0 1 1.314 7.402a.731.731 0 0 1 1.176-.2l8.129 8.128a3.34 3.34 0 0 0 4.712 0 3.338 3.338 0 0 0 0-4.712l-8.129-8.13a.734.734 0 0 1-.205-.64.734.734 0 0 1 .406-.535 12.935 12.935 0 0 1 14.705 2.524A12.956 12.956 0 0 1 25.24 17.03l20.73 20.73a12.942 12.942 0 0 1 13.19 3.132 12.947 12.947 0 0 1 2.524 14.706.735.735 0 0 1-1.178.201l-8.129-8.13a3.33 3.33 0 0 0-4.708 4.709l8.129 8.13a.733.733 0 0 1-.201 1.177 12.859 12.859 0 0 1-5.556 1.26ZM17.216 23.672a.73.73 0 0 1 .516.213l21.385 21.377a.73.73 0 0 1 .169.772 11.49 11.49 0 0 0 2.64 12.092 11.482 11.482 0 0 0 12.07 2.65l-7.361-7.36a4.804 4.804 0 0 1 0-6.781c1.877-1.865 4.916-1.863 6.78 0l7.361 7.361a11.478 11.478 0 0 0-2.65-12.07 11.488 11.488 0 0 0-12.092-2.64.735.735 0 0 1-.772-.169l-21.38-21.379a.73.73 0 0 1-.168-.772 11.493 11.493 0 0 0-2.638-12.094A11.48 11.48 0 0 0 9.004 2.224l7.361 7.36a4.76 4.76 0 0 1 1.398 3.391 4.754 4.754 0 0 1-1.4 3.388c-1.804 1.806-4.976 1.804-6.778 0l-7.361-7.36a11.486 11.486 0 0 0 2.648 12.073 11.496 11.496 0 0 0 12.09 2.64.736.736 0 0 1 .254-.044ZM4.806 62.456a.733.733 0 0 1-.517-.213l-3.54-3.54a.732.732 0 0 1-.024-1.01l5.963-6.559a.734.734 0 0 1 .524-.24c.157 0 .392.074.535.214l1.551 1.552 15.186-15.188 1.034 1.036-15.186 15.188 1.55 1.55a.737.737 0 0 1-.026 1.06l-6.56 5.963a.736.736 0 0 1-.49.187Zm-2.53-4.296 2.554 2.556 5.474-4.98-3.051-3.05-4.977 5.474ZM42.39 28.49l-1.035-1.034L60.267 8.543a4.084 4.084 0 0 0 1.208-2.911 4.084 4.084 0 0 0-1.208-2.91 4.12 4.12 0 0 0-5.818 0L35.536 21.633 34.5 20.6 53.413 1.687c2.109-2.108 5.785-2.104 7.89 0a5.54 5.54 0 0 1 1.635 3.945 5.54 5.54 0 0 1-1.636 3.945L42.39 28.49Zm-3.426-3.427-1.036-1.034L56.78 5.175l1.036 1.034-18.854 18.854Z"/></svg><svg xmlns="http://www.w3.org/2000/svg" id="viber" fill="none" viewBox="0 0 21 21"><g clip-path="url(#daa)"><path fill="#7B519C" d="M10.5 0C5.316 0 0 1.116 0 9.188c0 4.33 1.51 7.021 4.594 8.268v2.428c0 .46.262.854.656 1.05.131.066.328.066.46.066.262 0 .59-.131.787-.328l2.362-2.363c.525 0 1.05.066 1.641.066 5.184 0 10.5-1.116 10.5-9.188C21 1.117 15.684 0 10.5 0Z"/><path fill="#fff" d="M10.172 5.972c1.575 0 2.887 1.312 2.887 2.887 0 .394.263.657.657.657.393 0 .656-.263.656-.657 0-2.297-1.903-4.2-4.2-4.2-.394 0-.656.263-.656.657 0 .393.262.656.656.656Z"/><path fill="#fff" d="M10.172 8.006c.46 0 .853.394.853.853 0 .394.262.657.656.657s.657-.263.657-.657a2.185 2.185 0 0 0-2.166-2.165c-.394 0-.656.262-.656.656s.262.656.656.656Zm0-5.381c-.394 0-.656.263-.656.656 0 .394.262.656.656.656 2.69 0 4.922 2.232 4.922 4.922 0 .394.262.657.656.657s.656-.263.656-.657c0-3.412-2.822-6.234-6.234-6.234Z"/><path fill="#fff" d="m14.372 11.222-.131-.066s-1.444-.722-1.707-.787c-.525-.197-1.05-.066-1.378.393l-.065.132c-.132.197-.329.46-.46.59-.328-.13-.918-.393-1.706-1.05-.525-.459-.919-1.05-1.116-1.378l.132-.131.196-.197c.132-.131.197-.262.329-.46.13-.327.13-.656 0-1.05a40.023 40.023 0 0 1-.525-1.18l-.263-.526c-.262-.656-.656-.787-1.115-.787-.066-.131-.132-.131-.263-.131-.525 0-.984.197-1.313.525-.328.328-1.05 1.05-1.05 2.494 0 1.18.722 2.296 1.116 2.887l.066.066c1.247 1.837 2.822 3.15 4.397 3.806 1.378.59 2.165.722 2.69.722.263 0 .46 0 .59-.066.854-.197 1.838-.787 2.1-1.575.132-.46.329-1.247.066-1.706-.13-.263-.393-.394-.59-.525Z"/></g><defs><clipPath id="daa"><path fill="#fff" d="M0 0h21v21H0z"/></clipPath></defs></svg><svg xmlns="http://www.w3.org/2000/svg" id="view-grid" viewBox="0 0 14 14"><path fill="currentColor" fill-rule="evenodd" d="M.5 0a.5.5 0 0 0-.5.5v3a.5.5 0 0 0 .5.5h3a.5.5 0 0 0 .5-.5v-3a.5.5 0 0 0-.5-.5zm5 0a.5.5 0 0 0-.5.5v3a.5.5 0 0 0 .5.5h3a.5.5 0 0 0 .5-.5v-3a.5.5 0 0 0-.5-.5zm5 0a.5.5 0 0 0-.502.5v3a.5.5 0 0 0 .502.5h3a.5.5 0 0 0 .5-.5v-3a.5.5 0 0 0-.5-.5zM.5 5a.5.5 0 0 0-.5.5v3a.5.5 0 0 0 .5.5h3a.5.5 0 0 0 .5-.5v-3a.5.5 0 0 0-.5-.5zm5 0a.5.5 0 0 0-.5.5v3a.5.5 0 0 0 .5.5h3a.5.5 0 0 0 .5-.5v-3a.5.5 0 0 0-.5-.5zm5 0a.5.5 0 0 0-.502.5v3a.5.5 0 0 0 .502.5h3a.5.5 0 0 0 .5-.5v-3a.5.5 0 0 0-.5-.5zm-10 5a.5.5 0 0 0-.5.5v3a.5.5 0 0 0 .5.5h3a.5.5 0 0 0 .5-.5v-3a.5.5 0 0 0-.5-.5zm5 0a.5.5 0 0 0-.5.5v3a.5.5 0 0 0 .5.5h3a.5.5 0 0 0 .5-.5v-3a.5.5 0 0 0-.5-.5zm5 0a.5.5 0 0 0-.502.5v3a.5.5 0 0 0 .502.5h3a.5.5 0 0 0 .5-.5v-3a.5.5 0 0 0-.5-.5z"/></svg><svg xmlns="http://www.w3.org/2000/svg" id="view-grid2" viewBox="0 0 20 20"><path fill="currentColor" d="M8 0H1C.4 0 0 .4 0 1v7c0 .6.4 1 1 1h7c.6 0 1-.4 1-1V1c0-.6-.4-1-1-1zm0 11H1c-.6 0-1 .4-1 1v7c0 .6.4 1 1 1h7c.6 0 1-.4 1-1v-7c0-.6-.4-1-1-1zM19 0h-7c-.6 0-1 .4-1 1v7c0 .6.4 1 1 1h7c.6 0 1-.4 1-1V1c0-.6-.4-1-1-1zm0 11h-7c-.6 0-1 .4-1 1v7c0 .6.4 1 1 1h7c.6 0 1-.4 1-1v-7c0-.6-.4-1-1-1z"/></svg><svg xmlns="http://www.w3.org/2000/svg" id="view-list" viewBox="0 0 17 14"><path fill="currentColor" d="M1 9h2c.55 0 1-.45 1-1V6c0-.55-.45-1-1-1H1c-.55 0-1 .45-1 1v2c0 .55.45 1 1 1zm0 5h2c.55 0 1-.45 1-1v-2c0-.55-.45-1-1-1H1c-.55 0-1 .45-1 1v2c0 .55.45 1 1 1zM1 4h2c.55 0 1-.45 1-1V1c0-.55-.45-1-1-1H1C.45 0 0 .45 0 1v2c0 .55.45 1 1 1zm5 5h10c.55 0 1-.45 1-1V6c0-.55-.45-1-1-1H6c-.55 0-1 .45-1 1v2c0 .55.45 1 1 1zm0 5h10c.55 0 1-.45 1-1v-2c0-.55-.45-1-1-1H6c-.55 0-1 .45-1 1v2c0 .55.45 1 1 1zM5 1v2c0 .55.45 1 1 1h10c.55 0 1-.45 1-1V1c0-.55-.45-1-1-1H6c-.55 0-1 .45-1 1z"/></svg><svg xmlns="http://www.w3.org/2000/svg" xml:space="preserve" id="wave" viewBox="0 0 196 160"><path fill="#84A878" d="M98.7 159.1c-2.6 0-4.8-.7-6.7-1.6-4.9-2.4-9.6-8.3-8.3-17.4 1.7-11.4 6.8-21.9 11.3-31.1l1-2.1c3.5-7.2 7.2-14.2 10.9-21-7 7.6-13.7 15.2-19.1 21.4-7.9 9-11.5 13-13.9 15.1-9.6 8.5-18.4 4.9-20.9 3.6-6.9-3.6-10.3-11.4-9.1-20.8 1.3-10.1 5.6-19.1 9.5-26.7 3.4-6.5 7.1-12.8 10.7-18.8 4.3-7.1 8.3-13.8 11.6-20.8 1.2-2.6 2.4-5.2 3.1-7.5l-1.5.9c-7.9 5.9-16 13.9-23.3 22.9-1.5 3.5-2.8 5.9-3 6.4-3.2 6.3-7 13.6-12.3 20.2-9.9 12.2-20.5 5.3-21.6 4.5-4.3-3-8-9.2-5.5-17.4.3-1.1.8-2.3 1.4-3.8.1-.2.4-.9.8-1.9-1.5-.2-3-.6-4.4-1.2-6.2-2.7-10-9.6-9.3-16.7.7-7 5.1-12.3 7.7-15.5l.5-.6c8-10 17.1-19.7 29.5-22.7 7.3-1.8 14.3 0 18.9 4.8 1.1-.8 2.1-1.7 3.2-2.5C69.2 2.1 83.4-2.3 95 3c8.2 3.8 13.3 11.7 14 21.7.5 7.9-1.5 15-4.3 21.6 16.4-16 26.1-21.5 34.6-21.5h.3c5.4.1 10.2 2.4 13.6 6.4 7.8 9.4 2.6 21.7.7 26.3l-.2.5c-3.9 9.6-8.6 18.6-13.3 27.3l-1.5 2.8c0 .1-.1.1-.1.2 6.5-3.6 14.8-6.3 23.1-2.1 10.7 5.3 11.9 17.3 12.5 22.4v.3c.4 3.5.5 6.8.5 10 5.4-2.5 12-1.4 16.5 3.1 5.7 5.8 5.6 15-.2 20.7-.3.3-.7.7-1.1 1-6 6-16.1 16.1-28.6 12.4-4.2-1.2-11.6-5.1-14.2-17-1.4-6.5-1.5-12.7-1.5-18.2v-1.6c-6.4 5.1-12.3 11-18.4 17-2.5 2.5-4.8 5-7.4 7.8-2.4 2.6-4.9 5.3-7.6 8l-.2.2c-4.9 5.1-9.6 6.8-13.5 6.8zm77.2-25.9z"/></svg><svg xmlns="http://www.w3.org/2000/svg" id="wave-02" fill="none" viewBox="0 0 395 249"><path stroke="#fff" stroke-linecap="round" stroke-width="29.21" d="M19.51 144.1c-.605 2.52-3.117.297-3.785-1.355-2.176-5.381-.03-14.44.89-19.4 3.036-16.35 7.769-38.41 20.83-50.08 22.64-20.22 25.8 54.07 26 62.21.322 13.16.342 26.97-2.158 39.97-2.778 14.46-3.792-9.599-3.791-9.625 1.396-38.7 10.33-82.67 26.96-117.8 8.617-18.2 33.44-38.93 48.66-14.49 7.026 11.28 8.272 25.45 8.809 38.36 1.24 29.85-2.522 59.68-2.171 89.53.176 14.9.814 30.83 6.208 44.95 3.56 9.317 9.834 13.78 14.14 2.296 7.074-18.88 42.18-203.9 68.46-193.1 6.679 2.751 7.479 17.57 7.99 22.39 2.199 20.69 2.013 41.73 2.09 62.5.089 23.39-.542 46.79.366 70.17.75 19.32 1.045 41.45 7.662 59.96 2.937 8.219 5.155-.371 6.237-4.015 4.032-13.57 7.152-27.4 11.25-40.96 5.296-17.55 10.85-35.27 18.33-52.04 3.544-7.937 11.6-28.89 23.3-29.22 7.877-.223 14.42 9.856 17.98 15.12 9.288 13.73 15.36 29.71 26.2 42.39 17.84 20.89 25.69-10.52 30.02-24.29"/></svg><svg xmlns="http://www.w3.org/2000/svg" id="whatsapp" fill="none" viewBox="0 0 33 33"><circle cx="16.333" cy="16.334" r="14" fill="#fff"/><path fill="#00C42B" stroke="#fff" d="m3.57 26.107.097-.253-.16-.219A15.73 15.73 0 0 1 .5 16.333C.5 7.585 7.585.5 16.333.5c8.748 0 15.834 7.085 15.834 15.833 0 8.748-7.086 15.834-15.834 15.834a15.66 15.66 0 0 1-8.706-2.611l-.193-.13-.223.065-5.531 1.6 1.89-4.985Zm21.81-2.638.018-.018.017-.02c.763-.915.777-2.303-.06-3.194l-.006-.005-.005-.006-2.573-2.572c-1.153-1.153-3.165-.7-3.649.859v.004c-.164.543-.825.905-1.402.761h-.002c-.798-.195-1.803-.834-2.679-1.69-.876-.856-1.537-1.847-1.73-2.675l-.007-.026-.008-.026c-.172-.49.167-1.14.788-1.36 1.551-.49 2-2.496.85-3.646l-2.573-2.573-.006-.005-.005-.005c-.881-.83-2.292-.844-3.147.01L7.446 9.038l-.009.008c-.545.572-.769 1.355-.762 2.214.006.859.24 1.833.656 2.857.832 2.05 2.426 4.392 4.606 6.57 2.178 2.2 4.518 3.826 6.575 4.669 1.028.42 2.009.656 2.877.653.87-.004 1.66-.25 2.237-.827l1.754-1.713Z"/></svg><svg xmlns="http://www.w3.org/2000/svg" id="worker" fill="none" viewBox="0 0 62 65"><g fill="currentColor"><path d="M11.77 28.227h37.898c1.103 0 2-.897 2-2v-1.375a2.007 2.007 0 0 0-2-2.01H11.77a2.011 2.011 0 0 0-2.009 2.01v1.375c0 1.103.9 2 2.009 2Zm14.931-6.901V3.604c-7.841 1.214-13.245 7.578-13.245 15.754 0 .71.056 1.317.153 1.968H26.7Zm6.348-18.91A2.418 2.418 0 0 0 30.633 0a2.418 2.418 0 0 0-2.415 2.416v18.91h4.831V2.416ZM53.573 7.62a2.201 2.201 0 0 0 2.199-2.199 2.201 2.201 0 0 0-2.2-2.199 2.201 2.201 0 0 0-2.198 2.2 2.2 2.2 0 0 0 2.199 2.198ZM3.378 38.752a2.201 2.201 0 0 0 2.199-2.199 2.201 2.201 0 0 0-2.2-2.199 2.201 2.201 0 0 0-2.198 2.199c0 1.212.987 2.199 2.199 2.199ZM47.38 19.358c0-7.771-5.226-14.107-12.815-15.698v17.666h12.673c.104-.669.142-1.228.142-1.968ZM14.947 32.184c0 9.83 8.542 17.454 15.89 17.454 3.72 0 7.59-1.854 10.617-5.087 3.19-3.407 4.947-7.77 4.947-12.286 0-.803-.067-1.664-.193-2.521H15.132a16.677 16.677 0 0 0-.185 2.44Zm38.626 16.924a2.201 2.201 0 0 0-2.2 2.198c0 1.213.987 2.2 2.2 2.2a2.201 2.201 0 0 0 2.199-2.2 2.201 2.201 0 0 0-2.2-2.198Zm-22.899 4.266C18.43 53.374 7.253 57.896 1.671 65h58.008c-5.575-7.104-16.752-11.626-29.005-11.626ZM4.398 6.086a2.201 2.201 0 0 0-2.2-2.199A2.201 2.201 0 0 0 0 6.086c0 1.212.986 2.199 2.199 2.199a2.201 2.201 0 0 0 2.199-2.2ZM60.48 18.093h-1.668v-1.668a.758.758 0 0 0-1.517 0v1.668h-1.668a.758.758 0 0 0 0 1.517h1.668v1.668a.758.758 0 0 0 1.517 0V19.61h1.668a.758.758 0 0 0 0-1.517Zm-5.39 16.53a.758.758 0 0 0-.76.758v1.668h-1.667a.758.758 0 1 0 0 1.517h1.668v1.668a.758.758 0 1 0 1.516 0v-1.668h1.669a.758.758 0 1 0 0-1.517h-1.669v-1.668a.758.758 0 0 0-.758-.758ZM5.57 50.397c0 .418.34.758.758.758h1.668v1.668a.758.758 0 1 0 1.517 0v-1.668h1.668a.758.758 0 1 0 0-1.517H9.513V47.97a.758.758 0 0 0-1.517 0v1.668H6.328a.758.758 0 0 0-.758.759ZM3.144 20.368v1.668a.758.758 0 0 0 1.516 0v-1.668h1.668a.758.758 0 0 0 0-1.516H4.66v-1.668a.758.758 0 0 0-1.516 0v1.668H1.476a.758.758 0 0 0 0 1.516h1.668Z"/></g></svg><svg xmlns="http://www.w3.org/2000/svg" id="youtube" fill="none" viewBox="0 0 35 25"><g clip-path="url(#dia)"><path fill="#fff" d="M23.314 11.934c-3.209-1.715-6.282-3.292-9.422-4.938v9.848c3.305-1.797 6.788-3.443 9.436-4.91h-.014Z"/><path fill="#E8E0E0" d="M23.314 11.934a1198.767 1198.767 0 0 0-9.422-4.938l8.284 5.568 1.138-.63Z"/><path fill="#CD201F" d="M14.495 24.552c-6.665-.123-8.942-.233-10.341-.521-.947-.192-1.77-.617-2.373-1.234-.466-.467-.837-1.18-1.125-2.168-.246-.823-.342-1.508-.48-3.181-.21-3.777-.26-6.865 0-10.315.215-1.905.319-4.167 1.742-5.486A4.67 4.67 0 0 1 4.25.467C5.621.208 11.464.002 17.513.002c6.035 0 11.89.206 13.264.467 1.096.206 2.125.822 2.729 1.618 1.298 2.043 1.321 4.583 1.453 6.57.055.947.055 6.323 0 7.27-.205 3.14-.37 4.25-.836 5.403-.289.727-.535 1.11-.96 1.536a4.6 4.6 0 0 1-2.442 1.248c-5.768.434-10.666.528-16.226.44Zm8.834-12.618c-3.21-1.715-6.282-3.305-9.423-4.951v9.848c3.305-1.797 6.79-3.443 9.436-4.91l-.013.013Z"/></g><defs><clipPath id="dia"><path fill="#fff" d="M0 0h35v24.584H0z"/></clipPath></defs></svg></svg>